<svg width="328" height="83" viewBox="0 0 328 83" fill="none" xmlns="http://www.w3.org/2000/svg">
<path d="M82.4219 82.43H27.3694L10.4134 65.474H53.4753L0 11.9907L11.9907 0L65.466 53.4833V10.4214L82.4219 27.3774V82.43ZM28.3109 80.1526H80.1445V28.319L67.7354 15.9098V58.9717L11.9907 3.21898L3.21898 11.9907L58.9717 67.7434H15.9098L28.319 80.1445L28.3109 80.1526Z" fill="#5A91E2"/>
<g clip-path="url(#clip0_1138_5423)">
<path d="M204.844 82.43H149.791L132.835 65.474H175.897L122.422 11.9907L134.413 0L187.888 53.4833V10.4214L204.844 27.3774V82.43ZM150.733 80.1526H202.566V28.319L190.157 15.9098V58.9717L134.413 3.21898L125.641 11.9907L181.394 67.7434H138.332L150.741 80.1445L150.733 80.1526Z" fill="#5A91E2"/>
</g>
<g clip-path="url(#clip1_1138_5423)">
<path d="M327.266 82.43H272.214L255.258 65.474H298.32L244.844 11.9907L256.835 0L310.31 53.4833V10.4214L327.266 27.3774V82.43ZM273.155 80.1526H324.989V28.319L312.58 15.9098V58.9717L256.835 3.21898L248.063 11.9907L303.816 67.7434H260.754L273.163 80.1445L273.155 80.1526Z" fill="#5A91E2"/>
</g>
<defs>
<clipPath id="clip0_1138_5423">
<rect width="82.4219" height="82.43" fill="white" transform="translate(122.422)"/>
</clipPath>
<clipPath id="clip1_1138_5423">
<rect width="82.4219" height="82.43" fill="white" transform="translate(244.844)"/>
</clipPath>
</defs>
</svg>
