<svg preserveAspectRatio="none" width="100%" height="100%" overflow="visible" style="display: block;" viewBox="0 0 25 24" fill="none" xmlns="http://www.w3.org/2000/svg">
<g id="Layer_1" clip-path="url(#clip0_865_578)">
<path id="Vector" d="M12.8065 0H12.1957V12H12.8065V0Z" fill="var(--fill-0, #B9BFD6)"/>
<path id="Vector_2" d="M6.51543 1.46067L5.9865 1.75384L12.2365 12.1461L12.7654 11.853L6.51543 1.46067Z" fill="var(--fill-0, #B9BFD6)"/>
<path id="Vector_3" d="M1.82796 5.74516L1.52258 6.25293L12.3479 12.2529L12.6533 11.7452L1.82796 5.74516Z" fill="var(--fill-0, #B9BFD6)"/>
<path id="Vector_4" d="M12.5 11.7079H0V12.2942H12.5V11.7079Z" fill="var(--fill-0, #B9BFD6)"/>
<path id="Vector_5" d="M12.3468 11.7482L1.52037 17.7464L1.82566 18.2542L12.6521 12.256L12.3468 11.7482Z" fill="var(--fill-0, #B9BFD6)"/>
<path id="Vector_6" d="M12.2357 11.8521L5.98756 22.2454L6.51654 22.5385L12.7647 12.1452L12.2357 11.8521Z" fill="var(--fill-0, #B9BFD6)"/>
<path id="Vector_7" d="M12.8065 12H12.1957V24H12.8065V12Z" fill="var(--fill-0, #B9BFD6)"/>
<path id="Vector_8" d="M12.7655 11.8529L12.2365 12.1461L18.4865 22.5384L19.0155 22.2452L12.7655 11.8529Z" fill="var(--fill-0, #B9BFD6)"/>
<path id="Vector_9" d="M12.6533 11.7452L12.3479 12.253L23.1732 18.253L23.4786 17.7452L12.6533 11.7452Z" fill="var(--fill-0, #B9BFD6)"/>
<path id="Vector_10" d="M25 11.7079H12.5V12.2942H25V11.7079Z" fill="var(--fill-0, #B9BFD6)"/>
<path id="Vector_11" d="M23.1739 5.74923L12.3475 11.7474L12.6528 12.2552L23.4792 6.25706L23.1739 5.74923Z" fill="var(--fill-0, #B9BFD6)"/>
<path id="Vector_12" d="M18.486 1.46086L12.2379 11.8542L12.7668 12.1473L19.015 1.75393L18.486 1.46086Z" fill="var(--fill-0, #B9BFD6)"/>
</g>
<defs>
<clipPath id="clip0_865_578">
<rect width="25" height="24" fill="white"/>
</clipPath>
</defs>
</svg>
