<svg preserveAspectRatio="none" width="100%" height="100%" overflow="visible" style="display: block;" viewBox="0 0 430 430" fill="none" xmlns="http://www.w3.org/2000/svg">
<g id="Layer_1">
<path id="Vector" fill-rule="evenodd" clip-rule="evenodd" d="M132.808 61.4347H134.695V59.5567H138.478V57.6787H142.261V55.8008H147.932V53.9228H153.602V52.0448H155.489V53.9228H153.602V55.8008H159.272V53.9228H161.159V52.0448H166.83V50.1669H172.5V48.2889H170.613V46.4109H168.726V44.533H170.613V46.4109H176.283V44.533H180.067V42.655H187.624V40.777H197.068V38.8991H202.739V37.0211H210.296V38.8991H212.183V40.777H214.07V42.655H217.853V38.8899H214.07V37.0119H219.74V35.1339H221.627V37.0119H223.514V35.1339H240.516V37.0119H242.403V35.1339H244.29V37.0119H251.848V38.8899H249.961V40.7678H248.074V42.6458H246.187V44.5238H244.3V46.4017H242.412V50.1669H240.525V53.932H236.742V55.81H238.629V57.6879H240.516V55.81H242.403V52.0448H244.29V48.2797H246.177V46.4017H248.064V44.5238H249.951V42.6458H251.838V40.7678H253.725V38.8899H257.509V37.0119H261.292V38.8899H266.962V40.7678H276.407V42.6458H283.964V44.5238H287.747V46.4017H291.531V50.1669H274.529V52.0448H268.859V53.9228H259.414V55.8008H257.527V57.6787H263.198V55.8008H272.642V53.9228H282.086V52.0448H302.871V53.9228H304.758V55.8008H308.542V57.6787H310.429V59.5567H314.212V63.3218H317.995V67.087H319.882V70.8521H323.666V74.6172H321.779V72.7393H316.108V70.8613H306.664V68.9833H297.219V67.1054H283.992V65.2274H282.105V67.1054H280.218V65.2274H244.318V67.1054H246.205V68.9833H248.092V67.1054H249.979V68.9833H251.866V67.1054H253.753V68.9833H255.64V67.1054H257.527V68.9833H259.414V67.1054H265.085V68.9833H266.972V67.1054H268.859V68.9833H270.746V67.1054H272.633V68.9833H274.52V67.1054H276.407V68.9833H285.851V70.8613H302.853V72.7393H312.297V74.6172H317.967V76.4952H323.638V78.3732H327.421V85.8942H329.308V87.7722H327.421V89.6501H329.308V91.5281H327.421V93.4061H329.308V95.284H327.421V102.805H323.638V100.927H321.751V99.0492H317.967V97.1712H314.184V95.2932H310.401V93.4153H306.618V91.5373H304.731V89.6594H299.06V87.7814H297.173V85.9034H291.503V84.0255H285.833V82.1475H283.946V85.9126H289.616V87.7906H293.399V89.6686H297.182V91.5465H300.966V93.4245H304.749V95.3025H306.636V97.1804H310.419V99.0584H314.203V100.936H317.986V102.814H319.873V104.692H323.656V110.335H321.769V112.213H319.882V114.091H317.995V117.856H316.108V119.734H314.221V121.612H310.438V123.49H306.655V129.133H308.542V127.255H310.429V125.377H312.316V123.5H316.099V121.622H317.986V119.744H319.873V115.978H323.656V112.213H325.543V110.335H327.43V108.457H329.317V110.335H331.204V112.213H334.988V114.091H336.875V115.969H340.658V117.847H342.545V119.725H344.432V121.603H346.319V123.481H350.102V127.246H353.886V129.124H355.773V131.002H357.66V132.88H359.547V134.758H361.434V136.636H363.321V138.514H365.208V140.392H367.095V142.27H368.982V144.148H370.869V146.026H372.756V149.791H374.643V151.669H376.53V153.547H378.417V155.425H380.304V157.303H382.191V159.181H384.078V155.416H382.191V153.538H380.304V149.773H378.417V147.895H376.53V146.017H374.643V144.139H372.756V142.261H370.869V140.383H368.982V138.505H367.095V136.627H365.208V134.749H363.321V132.871H361.434V129.106H357.651V127.228H355.764V125.35H353.876V123.472H351.989V121.594H350.102V119.716H348.215V117.838H344.432V115.96H342.545V114.082H340.658V112.204H336.875V110.326H334.988V108.448H333.101V106.57H329.317V102.805H331.204V80.2419H334.988V82.1199H336.875V83.9978H342.545V85.8758H348.215V87.7538H350.102V89.6317H353.886V91.5097H357.669V93.3877H359.556V95.2656H361.443V97.1436H365.226V99.0216H369.01V100.9H370.897V102.777H372.784V104.655H374.671V106.533H376.558V108.411H378.445V110.289H380.332V112.167H384.115V115.932H387.898V119.698H389.785V121.576H391.672V123.454H393.56V129.097H395.447V132.862H397.334V162.946H395.447V166.711H393.56V168.589H391.672V164.824H389.785V162.946H387.898V159.181H384.115V162.946H386.002V164.824H387.889V168.589H389.776V170.467H391.663V176.11H389.776V177.988H387.889V181.753H386.002V183.631H384.115V187.396H382.228V189.274H380.341V191.152H378.454V193.03H376.567V194.908H374.68V196.786H372.793V198.664H370.906V200.542H369.019V202.42H367.132V204.298H363.349V206.176H361.462V208.054H357.678V209.932H355.791V211.81H348.234V208.045H346.347V204.28H344.46V198.637H342.573V194.871H340.686V191.106H338.799V187.341H336.912V183.576H335.025V179.811H333.138V176.046H331.251V172.281H329.364V170.403H327.477V166.637H325.59V162.872H323.703V159.107H319.919V162.872H321.806V166.637H323.693V168.515H325.58V172.281H327.467V176.046H329.354V179.811H331.241V183.576H333.128V185.454H335.015V191.097H336.902V194.862H338.79V198.627H340.677V202.392H342.564V206.158H344.451V211.801H346.338V215.566H344.451V217.444H342.564V219.322H336.893V221.2H335.006V223.078H329.336V224.956H323.666V226.834H319.882V228.712H314.212V230.59H308.542V232.467H306.655V234.345H312.325V232.467H317.995V230.59H323.666V228.712H329.336V226.834H331.223V224.956H336.893V223.078H342.564V221.2H344.451V219.322H348.234V221.2H350.121V228.721H352.008V232.486H353.895V240.007H355.782V243.772H357.669V253.171H359.556V258.814H361.443V270.1H363.33V287.021H365.217V305.828H363.33V307.706H361.443V309.584H357.66V311.462H351.989V313.34H350.102V315.218H344.432V317.096H340.649V318.974H334.978V320.851H331.195V322.729H323.638V324.607H316.08V326.485H310.41V328.363H300.966V330.241H295.295V332.119H282.068V333.997H280.181V305.791H278.294V303.913H280.181V302.035H278.294V300.157H280.181V298.279H278.294V271.951H274.51V277.594H276.397V279.472H274.51V285.115H276.397V286.993H274.51V288.871H276.397V290.749H274.51V292.627H276.397V294.505H274.51V296.383H276.397V328.345H278.284V330.223H276.397V333.988H272.614V335.866H270.727V333.988H268.84V335.866H240.498V337.744H238.611V335.866H236.724V337.744H234.837V335.866H232.95V337.744H231.063V335.866H229.176V337.744H227.289V335.866H225.402V337.744H223.514V335.866H191.398V333.988H181.954V332.11H180.067V330.232H181.954V328.354H180.067V326.476H181.954V324.598H180.067V322.72H178.18V332.119H168.735V330.241H163.065V332.119H164.952V333.997H174.396V335.875H178.18V358.438H180.067V360.316H178.18V362.194H180.067V382.88H181.954V390.401H183.841V396.044H176.283V394.166H166.839V392.288H157.395V390.41H153.611V388.532H146.054V386.654H142.271V384.776H136.6V382.898H132.817V381.02H127.147V379.142H123.363V377.264H119.58V375.386H117.693V373.508H113.91V371.63H112.023V369.752H110.136V365.987H108.249V364.109H106.362V360.344H104.475V354.701H102.588V352.823H100.701V345.302H98.8136V339.659H96.9265V330.26H95.0395V317.096H93.1525V315.218H95.0395V313.34H93.1525V307.697H96.9358V309.575H100.719V305.809H96.9358V303.931H93.1525V296.41H95.0395V294.532H93.1525V292.654H95.0395V290.776H93.1525V288.898H95.0395V287.021H93.1525V285.143H91.2655V302.063H89.3784V300.185H87.4914V303.95H91.2747V324.635H93.1617V337.799H95.0488V343.442H96.9358V352.841H98.8228V354.719H100.71V360.362H102.597V362.24H104.484V366.005H100.701V364.128H98.8136V362.25H96.9265V360.372H95.0395V358.494H91.2562V354.728H87.4729V352.851H85.5859V350.973H83.6989V347.207H81.8118V345.329H79.9248V343.451H78.0378V339.686H76.1507V337.808H74.2637V335.93H72.3767V332.165H70.4897V330.287H68.6026V328.409H66.7156V324.644H64.8286V320.879H62.9416V317.114H61.0545V313.349H59.1675V309.584H57.2805V305.819H55.3935V302.053H53.5064V298.288H51.6194V303.931H53.5064V309.575H55.3935V311.452H57.2805V317.096H59.1675V318.974H61.0545V324.617H62.9416V326.495H64.8286V330.26H66.7156V334.025H68.6026V335.903H70.4897V337.781H72.3767V341.546H74.2637V343.424H76.1507V345.302H78.0378V349.067H79.9248V350.945H81.8118V352.823H83.6989V354.701H85.5859V356.579H87.4729V358.457H89.3599V360.335H91.247V362.213H93.134V365.978H96.9173V367.856H98.8043V369.734H100.691V371.612H102.578V373.49H104.465V375.368H106.352V377.246H108.239V379.124H110.126V381.002H113.91V382.88H117.693V384.758H119.58V386.635H121.467V388.513H123.354V390.391H127.137V392.269H130.921V394.147H134.704V396.025H136.591V397.903H140.374V399.781H144.158V401.659H147.941V403.537H149.828V405.415H157.385V407.293H161.169V409.171H166.839V411.049H172.509V412.927H178.18V414.805H185.737V416.683H193.294V418.561H206.522V420.439H223.524V418.561H214.079V416.683H212.192V418.561H210.305V416.683H204.635V414.805H202.748V416.683H200.861V414.805H197.078V412.927H195.191V411.049H193.304V407.284H191.417V403.519H189.53V401.641H200.87V403.519H202.757V401.641H204.644V403.519H225.429V405.397H227.316V403.519H229.203V405.397H231.09V403.519H232.977V405.397H234.864V403.519H236.751V405.397H238.638V403.519H259.423V401.641H268.868V407.284H266.981V409.162H270.764V405.397H272.651V401.632H276.434V399.754H282.105V397.876H274.547V390.355H276.434V380.956H278.321V364.035H280.208V362.158H278.321V360.28H280.208V335.838H293.436V333.96H299.107V332.082H308.551V330.204H314.221V328.327H323.666V326.449H327.449V324.571H335.006V322.693H340.677V320.815H342.564V318.937H348.234V317.059H352.017V315.181H357.688V313.303H359.575V311.425H363.358V309.547H365.245V326.467H363.358V339.631H361.471V349.03H363.358V343.387H365.245V337.744H367.132V320.824H369.019V307.66H370.906V305.782H374.689V303.904H376.576V302.026H380.36V300.148H382.247V298.27H384.134V296.392H380.35V298.27H376.567V300.148H374.68V302.026H370.897V303.904H369.01V292.618H367.123V271.932H365.236V266.289H363.349V253.125H361.462V245.604H359.575V241.839H357.688V232.44H355.8V228.675H353.913V223.032H352.026V219.267H350.139V217.389H352.026V215.511H353.913V213.633H357.697V211.755H361.48V209.877H363.367V207.999H365.254V206.121H369.037V204.243H370.924V202.365H374.708V198.6H376.595V196.722H380.378V192.957H384.161V189.191H386.048V187.313H387.935V183.548H389.822V181.67H391.709V179.792H393.597V177.914H395.484V179.792H397.371V185.436H399.258V187.313H401.145V191.079H403.032V194.844H404.919V200.487H406.806V206.13H408.693V209.895H410.58V217.416H412.467V223.059H414.354V228.702H416.241V230.58H414.354V232.458H416.241V241.857H418.128V239.979H420.015V238.101H418.128V236.223H420.015V234.345H418.128V224.946H416.241V219.303H414.354V211.782H412.467V206.139H410.58V200.496H408.693V196.731H406.806V191.088H404.919V187.323H403.032V185.445H401.145V181.68H399.258V177.914H397.371V174.149H395.484V172.271H397.371V164.75H399.258V160.985H401.145V136.544H403.032V140.309H404.919V144.074H406.806V149.717H408.693V151.595H410.58V157.238H412.467V162.882H414.354V168.525H416.241V172.29H420.024V170.412H418.137V162.891H416.25V159.126H414.363V153.483H412.476V149.717H410.589V144.074H408.702V140.309H406.815V136.544H404.928V132.779H403.041V129.014H401.154V127.136H399.267V123.371H397.38V121.493H395.493V117.728H393.606V113.962H391.719V112.084H389.832V110.206H387.945V106.441H384.161V108.319H382.274V106.441H380.387V104.563H378.5V102.685H374.717V98.9203H370.934V97.0423H367.15V95.1644H365.263V93.2864H363.376V91.4084H359.593V89.5305H355.81V87.6525H353.923V85.7745H350.139V83.8966H344.469V82.0186H342.582V80.1407H336.912V78.2627H333.128V76.3847H327.458V70.7416H325.571V68.8637H323.684V66.9857H321.797V65.1077H319.91V61.3426H318.023V59.4646H316.136V57.5867H314.249V55.7087H310.466V53.8307H314.249V55.7087H319.919V57.5867H323.703V59.4646H329.373V61.3426H331.26V63.2206H335.043V65.0985H336.93V66.9765H340.714V68.8545H342.601V70.7324H344.488V72.6104H348.271V74.4883H350.158V76.3663H353.941V78.2443H355.828V80.1222H357.715V82.0002H359.602V83.8782H361.489V85.7561H363.376V87.6341H365.263V89.5121H367.15V91.39H369.037V93.268H370.924V95.146H372.811V97.0239H374.699V98.9019H376.586V100.78H378.473V102.658H380.36V104.536H382.247V106.414H384.134V102.649H382.247V98.8835H380.36V97.0055H376.576V93.2404H374.689V91.3624H372.802V89.4844H370.915V87.6065H369.028V85.7285H367.141V83.8506H363.358V80.0854H359.575V78.2075H357.688V76.3295H355.8V74.4515H353.913V72.5736H350.13V70.6956H348.243V68.8176H346.356V66.9397H342.573V65.0617H340.686V63.1837H336.902V61.3058H335.015V59.4278H331.232V57.5498H327.449V55.6719H325.562V53.7939H319.892V51.916H318.005V50.038H312.334V48.16H310.447V46.2821H304.777V44.4041H300.994V42.5261H293.436V40.6482H287.766V38.7702H282.096V36.8922H272.651V35.0143H263.207V33.1363H249.979V31.3504H217.863V33.2284H215.976V31.3504H214.089V33.2284H200.861V35.1063H191.417V36.9843H181.972V38.8623H176.302V40.7402H170.632V42.6182H164.961V44.4962H159.291V46.3741H153.621V48.2521H151.734V50.13H146.063V52.008H144.176V53.886H138.506V55.7639H134.723V57.6419H132.836V59.5199H129.052V61.3978H127.165V63.2758H132.836V61.3978L132.808 61.4347ZM191.38 411.178V413.056H193.267V414.934H191.38V413.056H183.822V411.178H176.265V409.3H170.595V407.422H164.924V405.544H159.254V403.666H157.367V401.788H151.697V399.91H147.913V398.032H144.13V396.154H140.347V394.276H136.563V392.398H132.78V390.52H130.893V388.642H127.11V386.764H125.223V384.886H123.336V383.008H121.449V381.13H119.562V379.253H121.449V381.13H125.232V383.008H129.015V384.886H134.686V386.764H136.573V388.642H142.243V390.52H147.913V392.398H153.584V394.276H163.028V396.154H168.698V398.032H178.143V399.91H183.813V401.788H185.7V403.666H187.587V409.309H189.474V411.187H191.361L191.38 411.178ZM276.407 366.051H274.52V367.929H276.407V369.807H274.52V386.728H272.633V392.371H270.746V398.014H268.859V399.892H266.972V398.014H265.085V399.892H251.857V401.77H249.97V399.892H248.083V401.77H215.966V399.892H214.079V401.77H212.192V399.892H198.965V398.014H187.624V392.371H185.737V384.85H183.85V367.929H181.963V347.244H180.076V345.366H181.963V343.488H180.076V341.61H181.963V339.732H180.076V337.854H181.963V335.976H187.633V337.854H208.418V339.732H210.305V337.854H212.192V339.732H251.866V337.854H253.753V339.732H255.64V337.854H276.425V366.061L276.407 366.051ZM299.079 46.3925H300.966V48.2705H304.749V50.1485H300.966V48.2705H299.079V46.3925ZM293.408 48.2705H295.295V50.1485H293.408V48.2705ZM163.037 46.3925H164.924V48.2705H163.037V46.3925ZM217.835 46.3925V42.6274H221.618V46.3925H223.505V50.1577H225.392V53.9228H227.279V55.8008H223.496V52.0356H221.609V48.2705H219.722V46.3925H217.835ZM176.265 50.1577H174.378V48.2797H180.048V50.1577H178.161V52.0356H176.274V50.1577H176.265ZM180.039 52.0356V50.1577H181.926V48.2797H183.813V50.1577H193.257V52.0356H191.37V53.9136H189.483V52.0356H180.039ZM172.482 52.0356V50.1577H174.369V52.0356H172.482ZM193.267 53.9136V52.0356H195.154V53.9136H193.267ZM206.494 53.9136V57.6787H204.607V55.8008H197.05V52.0356H198.937V53.9136H206.494ZM153.593 59.5567H149.809V55.7916H153.593V59.5567ZM210.278 55.7916V57.6695H208.391V55.7916H210.278ZM255.622 57.6787H257.509V59.5567H251.838V61.4347H249.951V57.6695H253.735V55.7916H255.622V57.6695V57.6787ZM206.494 57.6787H208.381V59.5567H206.494V57.6787ZM215.939 57.6787V59.5567H210.268V57.6787H215.939ZM249.951 63.3126V61.4347H248.064V59.5567H246.177V61.4347H240.507V63.3126H238.62V65.1906H236.733V59.5475H234.846V65.1906H231.063V61.4254H229.176V57.6603H225.392V59.5383H227.279V63.3034H229.166V65.1814H227.279V63.3034H225.392V61.4254H217.835V63.3034H223.505V65.1814H225.392V67.0593H219.722V65.1814H217.835V67.0593H215.948V68.9373H217.835V70.8153H215.948V72.6932H221.618V74.5712H223.505V72.6932H225.392V74.5712H227.279V72.6932H229.166V74.5712H227.279V76.4492H229.166V78.3271H231.053V74.562H232.94V76.44H234.827V80.2051H236.714V85.8482H238.601V87.7262H240.488V83.961H238.601V78.3179H236.714V74.5528H234.827V72.6748H236.714V74.5528H238.601V72.6748H240.488V74.5528H242.375V76.4308H244.263V78.3087H246.15V80.1867H248.037V76.4215H246.15V72.6564H244.263V70.7784H246.15V68.9005H244.263V67.0225H242.375V65.1446H244.263V63.2666H249.933L249.951 63.3126ZM221.609 70.8337H219.722V68.9557H221.609V70.8337ZM236.724 57.6787H238.611V59.5567H236.724V57.6787ZM146.035 67.0778H142.252V65.1998H144.139V61.4347H147.922V59.5567H149.809V63.3218H146.026V67.087L146.035 67.0778ZM217.835 59.5567V61.4347H215.948V59.5567H217.835ZM117.693 72.7209H113.91V70.8429H115.797V68.9649H117.684V67.087H121.467V65.209H123.354V63.331H127.137V67.0962H123.354V68.9741H121.467V70.8521H117.684V72.7301L117.693 72.7209ZM174.378 67.0778H172.491V65.1998H174.378V67.0778ZM178.152 67.0778H176.265V65.1998H178.152V67.0778ZM185.709 67.0778H180.039V65.1998H185.709V67.0778ZM193.267 67.0778H187.596V65.1998H193.267V67.0778ZM200.824 67.0778H195.154V65.1998H200.824V67.0778ZM208.381 67.0778H202.711V65.1998H208.381V67.0778ZM215.939 65.1998V67.0778H210.268V65.1998H215.939ZM129.034 78.3547H127.147V76.4768H132.817V74.5988H134.704V76.4768H136.591V70.8337H138.478V68.9557H140.365V67.0778H142.252V70.8429H140.365V72.7209H144.148V70.8429H146.035V72.7209H147.922V74.5988H138.478V78.3639H130.921V80.2419H129.034V78.3639V78.3547ZM166.82 70.8337H153.593V68.9557H159.263V67.0778H161.15V68.9557H163.037V67.0778H164.924V68.9557H166.811V70.8337H166.82ZM168.707 68.9557H166.82V67.0778H168.707V68.9557ZM172.482 68.9557H170.595V67.0778H172.482V68.9557ZM174.378 68.9557V67.0778H176.265V68.9557H174.378ZM178.152 68.9557V67.0778H180.039V68.9557H178.152ZM168.707 70.8337V68.9557H170.595V70.8337H168.707ZM149.809 72.7209H147.922V70.8429H149.809V72.7209ZM153.593 72.7209H151.706V70.8429H153.593V72.7209ZM214.052 72.7209H212.165V70.8429H214.052V72.7209ZM248.064 72.7209H246.177V70.8429H251.848V72.7209H253.735V74.5988H248.064V72.7209ZM38.3362 260.747H40.2233V273.912H42.1103V277.677H43.9973V285.198H45.8843V290.841H47.7714V296.484H49.6584V298.362H51.5454V288.963H49.6584V285.198H47.7714V275.799H45.8843V264.513H43.9973V262.635H47.7806V266.4H49.6676V268.278H51.5547V272.043H53.4417V275.808H57.225V279.573H59.112V281.451H60.999V283.329H62.8861V285.207H64.7731V287.085H66.6601V288.963H70.4434V292.728H74.2267V294.606H76.1138V296.484H79.8971V298.362H81.7841V300.24H83.6711V302.118H85.5581V300.24H87.4452V298.362H83.6619V296.484H81.7748V294.606H77.9915V292.728H76.1045V290.85H74.2175V288.972H72.3305V287.094H70.4434V285.216H68.5564V283.338H66.6694V281.46H64.7823V279.582H62.8953V277.704H61.0083V275.826H59.1213V273.948H57.2342V272.07H55.3472V270.192H53.4602V266.427H51.5732V262.662H49.6861V260.784H47.7991V257.019H45.9121V253.254H44.0251V243.855H45.9121V241.977H44.0251V240.099H45.9121V230.7H47.7991V221.301H49.6861V219.423H47.7991V217.545H45.9121V223.188H44.0251V234.474H42.138V241.995H40.251V232.596H38.364V219.432H40.251V217.554H38.364V215.676H40.251V198.756H42.138V196.878H40.251V195H42.138V187.479H44.0251V179.958H45.9121V172.437H47.7991V164.916H49.6861V163.038H51.5732V157.395H53.4602V151.752H55.3472V146.109H57.2342V142.344H59.1213V138.578H61.0083V136.701H62.8953V132.935H64.7823V136.701H62.8953V138.578H64.7823V140.456H62.8953V142.334H64.7823V144.212H66.6694V131.048H68.5564V127.283H70.4434V123.518H72.3305V119.753H74.2175V115.988H78.0008V112.223H79.8878V110.345H81.7748V108.467H83.6619V106.589H81.7748V104.711H83.6619V106.589H85.5489V104.711H87.4359V102.833H85.5489V100.955H87.4359V102.833H91.2192V100.955H93.1062V97.1896H91.2192V99.0676H87.4359V97.1896H91.2192V93.4245H95.0025V89.6594H98.7858V85.8942H102.569V84.0163H104.456V82.1383H106.343V80.2603H108.23V78.3824H110.117V76.5044H112.004V74.6264H113.891V72.7485H110.108V74.6264H108.221V76.5044H104.438V80.2695H100.654V82.1475H98.7673V84.0255H96.8803V85.9034H94.9933V87.7814H93.1062V89.6594H91.2192V91.5373H89.3322V93.4153H87.4452V95.2932H85.5581V97.1712H83.6711V99.0492H81.7841V100.927H79.8971V104.692H78.01V106.57H76.123V110.335H74.236V112.213H72.349V114.091H70.4619V117.856H68.5749V119.734H66.6879V123.5H64.8008V127.265H62.9138V129.143H61.0268V132.908H59.1398V136.673H57.2527V140.438H55.3657V142.316H53.4787V147.959H51.5917V153.602H49.7046V157.367H47.8176V163.01H45.9306V166.776H44.0436V174.297H42.1565V181.818H40.2695V191.217H38.3825V200.616H36.4492V251.385H38.3362V260.784V260.747ZM40.2325 255.114H42.1195V256.991H40.2325V255.114ZM204.607 74.5988H202.72V72.7209H204.607V74.5988ZM208.381 74.5988H206.494V72.7209H208.381V74.5988ZM212.165 74.5988H210.278V72.7209H212.165V74.5988ZM261.292 72.7209V74.5988H259.405V76.4768H257.518V74.5988H255.631V72.7209H261.301H261.292ZM198.937 76.4768H197.05V74.5988H198.937V76.4768ZM202.72 76.4768H200.833V74.5988H202.72V76.4768ZM204.607 76.4768V74.5988H206.494V76.4768H204.607ZM219.722 74.5988H221.609V76.4768H219.722V74.5988ZM263.179 74.5988V76.4768H261.292V74.5988H263.179ZM272.623 76.4768V78.3547H270.736V80.2327H268.849V78.3547H263.179V76.4768H265.066V74.5988H266.953V76.4768H272.623ZM189.493 78.3547H187.606V76.4768H189.493V78.3547ZM197.05 78.3547H191.38V76.4768H197.05V78.3547ZM198.937 78.3547V76.4768H200.824V78.3547H198.937ZM214.052 76.4768H219.722V78.3547H217.835V80.2327H215.948V78.3547H214.061V76.4768H214.052ZM125.25 82.1199H119.58V80.2419H123.363V78.3639H127.147V80.2419H125.26V82.1199H125.25ZM185.709 78.3547H187.596V80.2327H185.709V78.3547ZM189.493 80.2419V78.3639H191.38V80.2419H189.493ZM227.279 78.3547H229.166V80.2327H227.279V78.3547ZM283.964 80.2419V82.1199H282.077V83.9978H280.19V82.1199H274.52V80.2419H272.633V78.3639H278.303V80.2419H283.973H283.964ZM136.591 82.1199H134.704V80.2419H136.591V82.1199ZM181.935 80.2419V82.1199H180.048V80.2419H181.935ZM183.822 80.2419H185.709V82.1199H183.822V80.2419ZM212.165 80.2419V82.1199H210.278V80.2419H212.165ZM214.052 80.2419H215.939V82.1199H214.052V80.2419ZM225.392 80.2419H227.279V82.1199H225.392V80.2419ZM251.838 82.1199V83.9978H249.951V82.1199H248.064V80.2419H253.735V82.1199H251.848H251.838ZM119.58 83.9978H117.693V82.1199H119.58V83.9978ZM176.265 82.1199V83.9978H174.378V82.1199H176.265ZM178.152 82.1199H180.039V83.9978H178.152V82.1199ZM181.935 82.1199H183.822V83.9978H181.935V82.1199ZM208.381 82.1199H210.268V85.885H206.485V84.007H208.372V82.1291L208.381 82.1199ZM212.165 82.1199H214.052V83.9978H212.165V82.1199ZM95.021 97.162H93.134V95.284H95.021V93.4061H98.8043V91.5281H102.588V89.6501H104.475V87.7722H108.258V85.8942H110.145V84.0163H117.702V85.8942H112.032V87.7722H110.145V89.6501H108.258V91.5281H104.475V93.4061H100.691V95.284H98.8043V97.162H96.9173V99.04H95.0303V97.162H95.021ZM134.695 85.8758V87.7538H132.808V83.9886H136.591V85.8666H134.704L134.695 85.8758ZM168.707 83.9978H174.378V85.8758H172.491V87.7538H170.604V85.8758H168.717V83.9978H168.707ZM176.265 83.9978H178.152V85.8758H176.265V83.9978ZM225.392 87.763H223.505V83.9978H227.289V85.8758H225.402V87.7538L225.392 87.763ZM257.509 83.9978V85.8758H251.838V83.9978H257.509ZM166.82 85.8758H168.707V87.7538H166.82V85.8758ZM204.607 85.8758H206.494V87.7538H204.607V85.8758ZM261.292 87.763V89.6409H257.509V85.8758H259.396V87.7538H261.283L261.292 87.763ZM136.591 89.6409H134.704V87.763H136.591V89.6409ZM163.037 89.6409H161.15V87.763H163.037V89.6409ZM164.924 87.763H166.811V89.6409H164.924V87.763ZM202.72 87.763H204.607V89.6409H202.72V87.763ZM223.496 89.6409H221.609V87.763H223.496V89.6409ZM134.695 95.284H132.808V89.6409H134.695V91.5189H136.582V93.3969H134.695V95.2748V95.284ZM161.15 91.5189H159.263V89.6409H161.15V91.5189ZM200.824 89.6409H202.711V91.5189H200.824V89.6409ZM240.507 91.5189H238.62V89.6409H240.507V91.5189ZM265.066 91.5189V93.3969H261.283V89.6317H263.17V91.5097H265.057L265.066 91.5189ZM155.48 93.3969H153.593V91.5189H159.263V93.3969H157.376V95.2748H155.489V93.3969H155.48ZM198.937 91.5189H200.824V93.3969H198.937V91.5189ZM223.496 93.3969H221.609V91.5189H223.496V93.3969ZM240.507 93.3969V91.5189H242.394V93.3969H240.507ZM153.593 95.284H151.706V93.4061H153.593V95.284ZM195.163 95.284H193.276V93.4061H195.163V95.284ZM221.609 93.3969V95.2748H219.722V93.3969H221.609ZM242.394 95.284V93.4061H244.281V95.284H242.394ZM266.953 93.3969V95.2748H265.066V93.3969H266.953ZM134.695 97.162V95.284H136.582V97.162H134.695ZM151.706 97.162H149.819V95.284H151.706V97.162ZM191.38 95.284H193.267V97.162H191.38V95.284ZM195.163 97.162V95.284H197.05V97.162H195.163ZM223.496 97.162H221.609V95.284H223.496V97.162ZM240.507 95.284H242.394V97.162H240.507V95.284ZM268.849 95.284V97.162H266.962V95.284H268.849ZM146.035 99.04H144.148V97.162H146.035V99.04ZM149.809 99.04H147.922V97.162H149.809V99.04ZM189.493 97.162H191.38V99.04H189.493V97.162ZM221.609 99.04H219.722V97.162H221.609V99.04ZM242.394 99.04V97.162H244.281V99.04H242.394ZM270.736 97.162V99.04H268.849V97.162H270.736ZM136.591 99.04V100.918H134.704V99.04H136.591ZM140.365 100.918H138.478V99.04H144.148V100.918H142.261V102.796H140.374V100.918H140.365ZM187.606 99.04H189.493V100.918H187.606V99.04ZM219.722 100.918H217.835V99.04H219.722V100.918ZM244.281 100.918V99.04H246.168V100.918H244.281ZM272.623 99.04V100.918H270.736V99.04H272.623ZM138.478 102.805H136.591V100.927H138.478V102.805ZM185.709 100.918H187.596V102.796H185.709V100.918ZM242.394 100.918H244.281V102.796H242.394V100.918ZM274.51 100.918V102.796H272.623V100.918H274.51ZM136.591 104.683H134.704V102.805H136.591V104.683ZM138.478 102.805H140.365V104.683H138.478V102.805ZM183.822 102.805H185.709V104.683H183.822V102.805ZM219.722 104.683H217.835V102.805H219.722V104.683ZM244.281 104.683V102.805H246.168V104.683H244.281ZM276.407 102.805V104.683H274.52V102.805H276.407ZM134.695 106.561H132.808V104.683H134.695V106.561ZM136.591 104.683H138.478V106.561H136.591V104.683ZM181.935 104.683H183.822V106.561H181.935V104.683ZM217.835 110.326H215.948V108.448H214.061V106.57H215.948V104.692H217.835V110.335V110.326ZM278.294 104.683V106.561H276.407V104.683H278.294ZM129.034 106.561V108.439H127.147V106.561H129.034ZM132.808 108.448H130.921V106.57H132.808V108.448ZM138.478 108.448V106.57H140.365V108.448H138.478ZM180.039 106.561H181.926V108.439H180.039V106.561ZM244.281 106.561H248.064V110.326H246.177V108.448H244.29V106.57L244.281 106.561ZM282.068 106.561V110.326H280.181V108.448H278.294V106.57H282.077L282.068 106.561ZM130.921 110.326H129.034V108.448H130.921V110.326ZM178.152 108.448H180.039V110.326H178.152V108.448ZM125.25 112.204H123.363V110.326H125.25V112.204ZM129.034 112.204H127.147V110.326H129.034V112.204ZM140.365 110.326V112.204H138.478V110.326H140.365ZM144.148 112.204H142.261V110.326H144.148V112.204ZM176.265 110.326H178.152V112.204H176.265V110.326ZM215.939 112.204H214.052V110.326H215.939V112.204ZM244.281 110.326H246.168V112.204H244.281V110.326ZM283.964 110.326V112.204H282.077V110.326H283.964ZM123.363 114.082H121.476V112.204H123.363V114.082ZM142.252 112.204V114.082H140.365V112.204H142.252ZM174.378 112.204H176.265V114.082H174.378V112.204ZM246.168 115.969V112.204H248.055V114.082H249.942V115.96H246.159L246.168 115.969ZM285.851 112.204V114.082H283.964V112.204H285.851ZM121.476 115.969H119.589V114.091H121.476V115.969ZM144.148 114.082V115.96H142.261V114.082H144.148ZM172.482 114.082H174.369V115.96H172.482V114.082ZM176.265 115.969V114.091H178.152V115.969H176.265ZM215.939 115.969H214.052V114.091H215.939V115.969ZM287.738 114.082V115.96H285.851V114.082H287.738ZM119.58 117.847H117.693V115.969H119.58V117.847ZM146.035 115.969V117.847H144.148V115.969H146.035ZM170.595 115.969H172.482V117.847H170.595V115.969ZM214.052 117.847H212.165V115.969H214.052V117.847ZM291.521 117.847V119.725H287.738V115.96H289.625V117.838H291.512L291.521 117.847ZM117.693 119.725H115.806V117.847H117.693V119.725ZM146.035 117.847H147.922V119.725H146.035V117.847ZM168.707 117.847H170.595V119.725H168.707V117.847ZM172.482 119.725V117.847H174.369V119.725H172.482ZM249.951 119.725H248.064V117.847H249.951V119.725ZM113.919 123.49H108.249V121.612H110.136V119.734H112.023V121.612H113.91V123.49H113.919ZM115.806 121.603H113.919V119.725H115.806V121.603ZM166.82 119.725H168.707V121.603H166.82V119.725ZM214.052 121.603H212.165V119.725H214.052V121.603ZM295.295 121.603V123.481H291.512V119.716H293.399V121.594H295.286L295.295 121.603ZM149.809 121.603H151.697V123.481H149.809V121.603ZM168.707 123.49V121.612H170.595V123.49H168.707ZM212.165 121.603V123.481H210.278V121.603H212.165ZM249.951 121.603V123.481H248.064V121.603H249.951ZM108.249 125.368H106.362V123.49H108.249V125.368ZM157.367 123.49V125.368H155.48V123.49H157.367ZM214.052 125.368H212.165V123.49H214.052V125.368ZM249.951 123.49H251.838V125.368H249.951V123.49ZM299.079 125.368V127.246H293.408V125.368H295.295V123.49H297.182V125.368H299.069H299.079ZM106.352 127.246H104.465V125.368H106.352V127.246ZM108.249 127.246V125.368H110.136V127.246H108.249ZM153.593 125.368H155.48V127.246H153.593V125.368ZM159.263 125.368V127.246H157.376V125.368H159.263ZM164.924 125.368H166.811V127.246H164.924V125.368ZM212.165 127.246H210.278V125.368H212.165V127.246ZM104.465 129.124H102.578V127.246H104.465V129.124ZM161.15 127.246V129.124H159.263V127.246H161.15ZM251.838 127.246V129.124H249.951V127.246H251.838ZM300.966 131.011V132.889H299.079V134.767H293.408V136.645H291.521V132.88H295.305V131.002H297.192V129.124H299.079V127.246H300.966V129.124H302.853V127.246H304.74V131.011H300.957H300.966ZM102.578 131.011H100.691V129.133H102.578V131.011ZM163.037 129.124V131.002H161.15V129.124H163.037ZM164.924 129.124H166.811V131.002H164.924V129.124ZM212.165 131.011H210.278V129.133H212.165V131.011ZM251.838 129.124H253.725V131.002H251.838V129.124ZM100.691 132.889H98.8043V131.011H100.691V132.889ZM163.037 131.011H164.924V132.889H163.037V131.011ZM210.278 132.889H208.391V131.011H210.278V132.889ZM249.951 131.011H251.838V132.889H249.951V131.011ZM98.7951 134.767H96.908V132.889H98.7951V134.767ZM157.367 132.889H159.254V134.767H157.367V132.889ZM168.707 132.889H170.595V134.767H168.707V132.889ZM172.482 132.889H174.369V134.767H172.482V132.889ZM208.381 132.889V134.767H206.494V132.889H208.381ZM251.838 134.767V132.889H253.725V134.767H251.838ZM304.74 132.889V136.654H302.853V134.777H300.966V132.899H304.749L304.74 132.889ZM96.908 136.645H95.021V134.767H96.908V136.645ZM210.278 136.645H208.391V134.767H210.278V136.645ZM289.625 136.645H291.512V138.523H285.842V140.401H283.955V138.523H282.068V136.645H287.738V134.767H289.625V136.645ZM95.021 138.532H93.134V136.654H95.021V138.532ZM153.593 136.645H155.48V138.523H153.593V136.645ZM176.265 136.645H178.152V138.523H176.265V136.645ZM181.935 138.532H180.048V136.654H181.935V138.532ZM208.381 138.532H206.494V136.654H208.381V138.532ZM255.622 136.645V140.41H253.735V138.532H251.848V136.654H255.631L255.622 136.645ZM314.193 146.054V149.819H312.306V147.941H310.419V146.063H308.532V142.298H306.645V140.42H304.758V136.654H306.645V138.532H308.532V140.41H310.419V142.288H312.306V146.054H314.193ZM93.134 140.41H91.247V138.532H93.134V140.41ZM187.606 138.532V140.41H185.718V138.532H187.606ZM280.181 138.532H282.068V140.41H280.181V138.532ZM91.2377 142.288H89.3507V140.41H91.2377V142.288ZM149.809 140.41H151.697V142.288H149.809V140.41ZM187.606 140.41H189.493V142.288H187.606V140.41ZM191.38 140.41H193.267V142.288H191.38V140.41ZM197.05 140.41V142.288H195.163V140.41H197.05ZM208.381 142.288H206.494V140.41H208.381V142.288ZM255.622 142.288V140.41H257.509V142.288H255.622ZM276.407 142.288H270.736V140.41H276.407V142.288ZM278.294 140.41H280.181V142.288H278.294V140.41ZM91.2377 146.054H85.5674V144.176H87.4544V142.298H89.3414V144.176H91.2285V146.054H91.2377ZM198.937 142.288V144.166H197.05V142.288H198.937ZM206.494 144.166H204.607V142.288H206.494V144.166ZM255.622 144.166H257.509V146.044H255.622V147.922H253.735V146.044H251.848V144.166H253.735V142.288H255.622V144.166ZM257.509 144.166V142.288H259.396V144.166H257.509ZM259.396 146.054V144.176H261.283V142.298H263.17V144.176H265.057V146.054H259.386H259.396ZM266.953 144.166H265.066V142.288H266.953V144.166ZM270.736 144.166H268.849V142.288H270.736V144.166ZM62.9046 144.166H64.7916V146.044H66.6786V147.922H64.7916V149.8H62.9046V144.157V144.166ZM149.809 144.166H151.697V146.044H149.809V144.166ZM198.937 144.166H200.824V146.044H198.937V144.166ZM204.607 146.054H202.72V144.176H204.607V146.054ZM206.494 146.054V144.176H208.381V146.054H206.494ZM210.278 144.166H212.165V146.044H210.278V144.166ZM215.939 144.166V146.044H214.052V144.166H215.939ZM219.722 144.166V146.044H217.835V144.166H219.722ZM223.496 146.054H221.609V144.176H223.496V146.054ZM246.168 144.166V146.044H244.281V144.166H246.168ZM249.951 144.166V146.044H248.064V144.166H249.951ZM85.5766 146.054V147.931H83.6896V146.054H85.5766ZM215.939 146.054H217.826V147.931H215.939V146.054ZM219.722 147.931V146.054H221.609V147.931H219.722ZM223.496 147.931V146.054H225.383V147.931H223.496ZM227.279 146.054H229.166V147.931H227.279V146.054ZM232.95 147.931H231.063V146.054H232.95V147.931ZM236.724 147.931H234.837V146.054H236.724V147.931ZM240.507 147.931H238.62V146.054H240.507V147.931ZM242.394 146.054H244.281V147.931H242.394V146.054ZM246.168 146.054H248.055V147.931H246.168V146.054ZM249.951 146.054H251.838V147.931H249.951V146.054ZM85.5766 149.809V147.931H87.4637V149.809H85.5766ZM204.607 147.931V149.809H202.72V147.931H204.607ZM232.95 149.809V147.931H234.837V149.809H232.95ZM255.622 149.809V147.931H257.509V149.809H255.622ZM64.7916 151.687V149.809H66.6786V162.974H64.7916V153.575H62.9046V151.697H64.7916V151.687ZM206.494 151.687H204.607V149.809H206.494V151.687ZM319.855 153.575V159.218H317.967V157.34H316.08V153.575H314.193V149.809H316.08V151.687H317.967V153.565H319.855V153.575ZM81.7933 155.453H79.9063V151.687H83.6896V153.565H81.8026V155.443L81.7933 155.453ZM146.035 151.687H147.922V153.565H146.035V151.687ZM204.607 153.575H202.72V151.697H204.607V153.575ZM257.509 151.687V153.565H255.622V151.687H257.509ZM257.509 155.453V153.575H259.396V155.453H257.509ZM79.9063 157.331H78.0193V155.453H79.9063V157.331ZM204.607 157.331H202.72V155.453H204.607V157.331ZM78.0193 159.208H76.1323V157.331H78.0193V159.208ZM259.396 157.331V159.208H257.509V157.331H259.396ZM76.123 161.096H74.236V159.218H76.123V161.096ZM138.478 159.208H140.365V161.086H138.478V159.208ZM204.607 161.096H202.72V159.218H204.607V161.096ZM261.292 161.096H259.405V159.218H261.292V161.096ZM74.236 162.974H72.349V161.096H74.236V162.974ZM200.824 161.096H202.711V162.974H200.824V161.096ZM259.396 162.974H257.509V161.096H259.396V162.974ZM66.6786 164.852V162.974H68.5657V164.852H66.6786ZM72.349 162.974V164.852H70.4619V162.974H72.349ZM259.396 164.852V162.974H261.283V164.852H259.396ZM74.236 166.73H72.349V164.852H74.236V166.73ZM68.5657 172.373H66.6786V170.495H68.5657V168.617H66.6786V166.739H72.349V168.617H70.4619V174.26H68.5749V172.382L68.5657 172.373ZM198.937 166.73H200.824V168.608H198.937V166.73ZM261.292 166.73V168.608H259.405V166.73H261.292ZM261.292 168.617H263.179V170.495H261.292V168.617ZM198.937 170.495H200.824V172.373H198.937V170.495ZM259.396 170.495H261.283V172.373H259.396V170.495ZM66.6786 178.016H64.7916V172.373H66.6786V178.016ZM261.292 178.016V172.373H263.179V178.016H261.292ZM70.4619 176.138V174.26H72.349V176.138H70.4619ZM198.937 174.251H200.824V176.129H198.937V174.251ZM421.883 176.138V181.781H423.77V183.659H421.883V185.537H423.77V187.415H421.883V189.293H419.996V179.894H418.109V174.251H419.996V176.129H421.883V176.138ZM72.349 178.016V176.138H74.236V178.016H72.349ZM64.7916 179.894H62.9046V178.016H64.7916V179.894ZM74.236 179.894V178.016H76.123V179.894H74.236ZM62.9046 185.537H61.0175V179.894H62.9046V181.772H64.7916V183.65H62.9046V185.528V185.537ZM263.179 183.659V185.537H261.292V179.894H263.179V181.772H265.066V183.65H263.179V183.659ZM76.123 181.781V183.659H74.236V181.781H76.123ZM197.05 183.659H195.163V181.781H197.05V183.659ZM78.0193 183.659V185.537H76.1323V183.659H78.0193ZM55.3472 200.579H53.4602V193.058H55.3472V189.293H57.2342V185.528H61.0175V187.406H59.1305V193.049H57.2435V194.927H55.3565V196.805H57.2435V198.683H55.3565V200.561L55.3472 200.579ZM78.0193 185.537H79.9063V187.415H78.0193V185.537ZM197.05 187.415H195.163V185.537H197.05V187.415ZM263.179 187.415V185.537H265.066V187.415H263.179ZM81.7933 189.302H83.6804V191.18H81.7933V189.302ZM195.163 189.302H197.05V191.18H195.163V189.302ZM265.066 189.302V191.18H263.179V189.302H265.066ZM421.883 191.18V189.302H423.77V191.18H421.883ZM266.953 196.823H265.066V194.945H263.179V193.067H265.066V191.189H266.953V196.832V196.823ZM85.5766 193.058H87.4637V194.936H85.5766V193.058ZM197.05 194.936H195.163V193.058H197.05V194.936ZM423.78 193.058V194.936H421.893V193.058H423.78ZM425.667 194.936V204.335H427.554V206.213H425.667V208.091H427.554V209.969H425.667V211.847H427.554V213.725H425.667V215.603H427.554V217.481H425.667V219.359H427.554V221.237H425.667V223.114H427.554V224.992H425.667V226.87H427.554V228.748H425.667V230.626H427.554V232.504H425.667V234.382H423.78V202.42H421.893V200.542H423.78V198.664H421.893V196.786H423.78V194.908H425.667V194.936ZM89.3507 196.823H91.2377V198.701H89.3507V196.823ZM265.066 196.823V198.701H263.179V196.823H265.066ZM266.953 200.579H268.84V202.457H266.953V204.335H265.066V198.692H266.953V200.57V200.579ZM49.6769 217.499H47.7899V211.856H49.6769V209.978H47.7899V208.1H49.6769V204.335H51.5639V200.57H53.4509V206.213H51.5639V215.612H49.6769V217.49V217.499ZM95.021 202.457H93.134V200.579H95.021V202.457ZM98.7951 206.222H96.908V204.344H98.7951V206.222ZM115.806 204.344H117.693V206.222H115.806V204.344ZM191.38 204.344H193.267V206.222H191.38V204.344ZM266.953 206.222V204.344H268.84V206.222H266.953ZM102.578 209.978H100.691V208.1H102.578V209.978ZM104.465 208.1H106.352V209.978H104.465V208.1ZM112.023 208.1H113.91V209.978H112.023V208.1ZM268.849 208.1V209.978H266.962V208.1H268.849ZM108.249 211.865H110.136V213.743H108.249V211.865ZM191.38 211.865H193.267V213.743H191.38V211.865ZM270.736 215.621H268.849V213.743H266.962V211.865H270.746V215.63L270.736 215.621ZM268.849 215.621V217.499H266.962V215.621H268.849ZM268.849 219.386V217.508H270.736V223.151H268.849V221.273H266.962V219.395H268.849V219.386ZM108.249 219.386H110.136V221.264H108.249V219.386ZM123.363 219.386H125.25V221.264H123.363V219.386ZM129.034 225.02H127.147V223.142H129.034V225.02ZM187.606 223.142H189.493V225.02H187.606V223.142ZM270.736 228.785V230.663H268.849V225.02H270.736V226.898H272.623V228.776H270.736V228.785ZM104.465 226.907H106.352V228.785H104.465V226.907ZM138.478 226.907H140.365V228.785H138.478V226.907ZM187.606 226.907H189.493V228.785H187.606V226.907ZM104.465 230.663H106.352V232.541H104.465V230.663ZM149.809 230.663H151.697V232.541H149.809V230.663ZM187.606 230.663H189.493V232.541H187.606V230.663ZM270.736 232.541V230.663H272.623V232.541H270.736ZM304.74 234.428H306.627V236.306H297.182V234.428H302.853V232.55H304.74V234.428ZM104.465 234.428H106.352V236.306H104.465V234.428ZM161.15 234.428H163.037V236.306H161.15V234.428ZM164.924 234.428H166.811V236.306H164.924V234.428ZM168.707 234.428H170.595V236.306H168.707V234.428ZM187.606 234.428H189.493V236.306H187.606V234.428ZM270.736 234.428H272.623V236.306H270.736V234.428ZM295.295 234.428V236.306H293.408V234.428H295.295ZM425.667 236.306V234.428H427.554V236.306H425.667ZM102.578 236.306H104.465V238.184H102.578V236.306ZM185.709 236.306H187.596V238.184H185.709V236.306ZM285.851 236.306V238.184H283.964V236.306H285.851ZM289.625 238.184H291.512V240.062H285.842V238.184H287.729V236.306H289.616V238.184H289.625ZM291.521 236.306H293.408V238.184H291.521V236.306ZM295.295 236.306H297.182V238.184H295.295V236.306ZM423.78 236.306H425.667V238.184H427.554V240.062H425.667V241.94H423.78V236.297V236.306ZM100.691 238.184H102.578V240.062H100.691V238.184ZM172.482 238.184H174.369V240.062H172.482V238.184ZM176.265 238.184H178.152V240.062H176.265V238.184ZM180.039 238.184H181.926V240.062H180.039V238.184ZM183.822 238.184H185.709V240.062H183.822V238.184ZM187.606 240.062V238.184H189.493V240.062H187.606ZM272.623 240.062H270.736V238.184H272.623V240.062ZM278.294 238.184H283.964V240.062H278.294V238.184ZM198.937 240.062V241.94H197.05V240.062H198.937ZM263.179 241.949H265.066V243.827H259.396V241.949H261.283V240.071H263.17V241.949H263.179ZM266.953 240.062V241.94H265.066V240.062H266.953ZM270.736 240.062V241.94H268.849V240.062H270.736ZM272.623 241.949V240.071H274.51V241.949H272.623ZM276.407 240.062H278.294V241.94H276.407V240.062ZM100.691 241.949H102.578V243.827H100.691V241.949ZM198.937 241.949H200.824V243.827H198.937V241.949ZM202.72 241.949H204.607V243.827H202.72V241.949ZM206.494 241.949H208.381V243.827H206.494V241.949ZM210.278 241.949H212.165V243.827H210.278V241.949ZM214.052 241.949H215.939V243.827H214.052V241.949ZM217.835 241.949H219.722V243.827H217.835V241.949ZM223.496 241.949V243.827H221.609V241.949H223.496ZM227.279 241.949V243.827H225.392V241.949H227.279ZM229.166 241.949H234.837V243.827H232.95V245.705H231.063V243.827H229.176V241.949H229.166ZM238.611 243.827H236.724V241.949H242.394V243.827H240.507V245.705H238.62V243.827H238.611ZM246.168 243.827H244.281V241.949H249.951V243.827H248.064V245.705H246.177V243.827H246.168ZM251.838 241.949H257.509V243.827H251.838V241.949ZM266.953 241.949H268.84V243.827H266.953V241.949ZM272.623 241.949V243.827H270.736V241.949H272.623ZM418.109 243.827V241.949H419.996V243.827H418.109ZM423.78 241.949V243.827H421.893V241.949H423.78ZM425.667 243.827V241.949H427.554V243.827H425.667ZM185.709 243.827H187.596V245.705H185.709V243.827ZM223.496 243.827H225.383V245.705H223.496V243.827ZM227.279 243.827H229.166V245.705H227.279V243.827ZM234.837 245.705V243.827H236.724V245.705H234.837ZM242.394 245.705V243.827H244.281V245.705H242.394ZM274.51 249.47H272.623V247.592H270.736V245.715H272.623V243.837H274.51V249.48V249.47ZM423.78 243.827H425.667V245.705H427.554V247.583H425.667V249.461H423.78V247.583H421.893V245.705H423.78V243.827ZM100.691 245.705H102.578V247.583H100.691V245.705ZM183.822 245.705H185.709V247.583H183.822V245.705ZM419.996 245.705V247.583H418.109V245.705H419.996ZM98.7951 247.592H100.682V249.47H98.7951V247.592ZM421.883 249.47H423.77V251.348H421.883V253.226H419.996V251.348H418.109V249.47H419.996V247.592H421.883V249.47ZM185.709 249.47V251.348H183.822V249.47H185.709ZM272.623 249.47V251.348H270.736V249.47H272.623ZM98.7951 251.348H100.682V253.226H98.7951V251.348ZM185.709 251.348H187.596V253.226H185.709V251.348ZM274.51 256.991H276.397V258.869H274.51V260.747H272.623V251.348H274.51V256.991ZM423.78 253.226V251.348H425.667V253.226H423.78ZM96.908 253.226H98.7951V255.104H96.908V253.226ZM183.822 253.226H185.709V255.104H183.822V253.226ZM418.109 253.226H419.996V255.104H418.109V253.226ZM421.883 253.226H423.77V255.104H421.883V253.226ZM98.7951 256.991V255.114H100.682V256.991H98.7951ZM423.78 256.991V255.114H425.667V256.991H423.78ZM96.908 256.991H98.7951V258.869H96.908V256.991ZM183.822 256.991H185.709V258.869H183.822V256.991ZM419.996 258.869H418.109V256.991H419.996V258.869ZM421.883 256.991H423.77V258.869H421.883V256.991ZM418.109 264.513H416.222V262.635H414.335V260.757H416.222V258.879H418.109V260.757H419.996V262.635H418.109V264.513ZM96.908 260.747H98.7951V262.625H96.908V260.747ZM183.822 260.747H185.709V262.625H183.822V260.747ZM274.51 262.635V260.757H276.397V262.635H274.51ZM423.78 262.635H421.893V260.757H423.78V262.635ZM95.021 262.635H96.908V268.278H95.021V262.635ZM419.996 264.513V262.635H421.883V264.513H423.77V266.391H421.883V268.268H419.996V266.391H418.109V264.513H419.996ZM183.822 264.513H185.709V266.391H183.822V264.513ZM274.51 264.513H276.397V266.391H274.51V264.513ZM414.326 268.268H412.439V264.503H416.222V266.381H414.335V268.259L414.326 268.268ZM181.935 266.391H183.822V268.268H181.935V266.391ZM93.134 268.268H95.021V270.146H93.134V268.268ZM183.822 270.156V268.278H185.709V270.156H183.822ZM274.51 268.268H276.397V270.146H274.51V268.268ZM412.439 270.156H410.552V268.278H412.439V270.156ZM419.996 270.156H418.109V268.278H419.996V270.156ZM421.883 270.156V268.278H423.77V270.156H421.883ZM95.021 272.034V270.156H96.908V275.799H95.021V273.921H93.134V272.043H95.021V272.034ZM181.935 270.156H183.822V272.034H181.935V270.156ZM410.552 273.912H406.769V272.034H408.656V270.156H410.543V273.921L410.552 273.912ZM418.109 270.156V272.034H416.222V270.156H418.109ZM419.996 270.156H421.883V275.799H419.996V273.921H418.109V272.043H419.996V270.165V270.156ZM181.935 273.912H183.822V275.79H181.935V273.912ZM406.769 279.555H404.882V277.677H402.995V275.799H404.882V273.921H406.769V279.564V279.555ZM418.109 273.912V275.79H416.222V273.912H418.109ZM93.134 275.79H95.021V277.668H93.134V275.79ZM180.039 275.79H181.926V277.668H180.039V275.79ZM418.109 275.79H419.996V277.668H418.109V275.79ZM181.935 279.555V277.677H183.822V279.555H181.935ZM416.222 277.677H418.109V279.555H416.222V277.677ZM93.134 279.555H95.021V281.433H93.134V279.555ZM180.039 279.555H181.926V281.433H180.039V279.555ZM402.995 283.311H401.108V279.545H404.891V281.423H403.004V283.301L402.995 283.311ZM416.222 279.555V281.433H414.335V279.555H416.222ZM418.109 281.433V279.555H419.996V281.433H418.109ZM181.935 283.311V281.433H183.822V283.311H181.935ZM387.88 296.475H384.097V294.597H385.984V292.719H387.871V290.841H389.758V288.963H391.645V287.085H393.532V285.207H397.315V281.442H399.202V283.32H401.089V285.198H399.202V287.076H397.315V288.954H393.532V292.719H389.748V294.597H387.861V296.475H387.88ZM416.222 281.433H418.109V287.076H416.222V285.198H414.335V283.32H416.222V281.442V281.433ZM95.021 285.198H93.134V283.32H95.021V285.198ZM180.039 283.311H181.926V285.189H180.039V283.311ZM181.935 287.076V285.198H183.822V287.076H181.935ZM180.039 287.076H181.926V288.954H180.039V287.076ZM414.326 287.076H416.213V288.954H414.326V287.076ZM181.935 290.832V288.954H183.822V290.832H181.935ZM412.439 288.954H414.326V290.832H412.439V288.954ZM180.039 290.832H181.926V292.71H180.039V290.832ZM414.326 292.719V290.841H416.213V292.719H414.326ZM181.935 294.597V292.719H183.822V294.597H181.935ZM412.439 292.719H414.326V298.362H412.439V296.484H410.552V294.606H412.439V292.728V292.719ZM180.039 294.597H181.926V296.475H180.039V294.597ZM180.039 298.353H181.926V300.231H180.039V298.353ZM410.552 298.353H412.439V300.231H410.552V298.353ZM408.665 300.24H410.552V302.118H408.665V300.24ZM180.039 302.118H181.926V303.996H180.039V302.118ZM410.552 303.996V302.118H412.439V303.996H410.552ZM408.665 303.996H410.552V305.874H408.665V303.996ZM180.039 305.874H181.926V307.752H180.039V305.874ZM406.769 305.874H408.656V307.752H406.769V305.874ZM100.691 311.517V309.639H106.362V311.517H100.691ZM181.935 311.517H180.048V309.639H181.935V311.517ZM406.769 313.395H404.882V309.63H408.665V311.508H406.778V313.386L406.769 313.395ZM106.352 313.395V311.517H112.023V313.395H113.91V315.273H108.239V313.395H106.352ZM180.039 311.517V313.395H178.152V311.517H180.039ZM181.935 315.282H180.048V313.404H181.935V315.282ZM404.882 315.282H402.995V313.404H404.882V315.282ZM113.919 317.16V315.282H115.806V317.16H113.919ZM115.806 319.038V317.16H117.693V315.282H119.58V317.16H125.25V319.038H127.137V320.916H129.024V319.038H130.911V320.916H132.799V322.794H125.241V320.916H121.458V319.038H115.788H115.806ZM180.039 319.038V320.916H178.152V315.273H180.039V317.151H181.926V319.029H180.039V319.038ZM404.882 319.038H402.995V317.16H404.882V319.038ZM402.995 320.925H401.108V319.047H402.995V320.925ZM181.935 322.803H180.048V320.925H181.935V322.803ZM401.098 322.803H399.211V320.925H401.098V322.803ZM132.808 324.681V322.803H134.695V324.681H132.808ZM138.478 322.803V324.681H136.591V322.803H138.478ZM399.211 322.803V324.681H401.098V326.559H399.211V328.437H397.324V322.794H399.211V322.803ZM149.809 326.559V328.437H144.139V326.559H138.469V324.681H147.913V326.559H149.8H149.809ZM163.037 328.446V330.324H161.15V332.202H157.367V330.324H149.809V328.446H151.697V326.568H153.584V328.446H163.028H163.037ZM395.437 328.446H397.324V330.324H395.437V328.446ZM393.541 330.324H395.428V332.202H393.541V330.324ZM391.654 332.202H393.541V334.08H391.654V332.202ZM393.541 337.845H391.654V335.967H393.541V337.845ZM391.654 339.723H389.767V337.845H391.654V339.723ZM389.767 341.601H387.88V339.723H389.767V341.601ZM387.88 343.488H385.993V341.61H387.88V343.488ZM385.984 345.366H384.097V343.488H385.984V345.366ZM384.097 351.009H382.21V349.131H380.323V347.253H382.21V345.375H384.097V351.019V351.009ZM359.538 349.122H361.425V351H363.312V352.878H361.425V356.643H357.641V354.765H359.528V349.122H359.538ZM378.426 351.009V352.887H376.539V351.009H378.426ZM382.21 352.887H380.323V351.009H382.21V352.887ZM380.323 354.765H378.436V352.887H380.323V354.765ZM374.652 356.643H372.765V354.765H378.436V356.643H376.549V358.521H374.662V356.643H374.652ZM372.765 358.53H370.878V356.652H372.765V358.53ZM357.651 366.051H355.764V364.174H353.876V362.296H355.764V358.53H359.547V360.408H357.66V366.051H357.651ZM370.869 360.408H368.982V358.53H370.869V360.408ZM372.765 358.53H374.652V360.408H372.765V358.53ZM367.095 364.164H365.208V362.286H367.095V360.408H368.982V362.286H370.869V364.164H368.982V366.042H367.095V364.164ZM370.869 360.408H372.756V362.286H370.869V360.408ZM365.208 366.051H363.321V364.174H365.208V366.051ZM355.754 367.929H353.867V366.051H355.754V367.929ZM363.312 367.929H361.425V366.051H363.312V367.929ZM365.208 366.051H367.095V367.929H365.208V366.051ZM351.98 371.685H350.093V369.807H351.98V367.929H353.867V369.807H355.754V371.685H353.867V373.563H351.98V371.685ZM355.754 369.807V367.929H357.641V369.807H355.754ZM357.651 371.685V369.807H359.538V367.929H361.425V369.807H363.312V371.685H361.425V373.563H359.538V371.685H357.651ZM363.312 367.929H365.199V369.807H363.312V367.929ZM350.093 377.328H348.206V371.685H350.093V373.563H351.98V375.441H350.093V377.319V377.328ZM353.867 375.451V373.573H355.754V375.451H353.867ZM357.651 373.573H359.538V375.451H357.651V373.573ZM342.536 384.85H340.649V377.328H344.432V375.451H346.319V377.328H348.206V379.206H346.319V381.084H344.432V379.206H342.545V381.084H344.432V382.962H342.545V384.84L342.536 384.85ZM353.867 377.328H355.754V379.206H350.084V377.328H351.971V375.451H353.858V377.328H353.867ZM355.754 375.451H357.641V377.328H355.754V375.451ZM338.753 381.094H336.865V379.216H338.753V381.094ZM348.197 379.206H350.084V381.084H348.197V379.206ZM333.082 382.972H331.195V381.094H336.865V382.972H334.978V384.85H333.091V382.972H333.082ZM346.31 381.094H348.197V382.972H346.31V381.094ZM331.195 384.85H329.308V382.972H331.195V384.85ZM344.423 382.972H346.31V384.85H344.423V382.972ZM314.193 390.493H312.306V388.615H317.977V386.737H321.76V384.859H329.317V386.737H327.43V388.615H325.543V386.737H323.656V388.615H321.769V390.493H316.099V392.371H314.212V390.493H314.193ZM340.64 384.85V386.728H338.753V388.605H336.865V384.84H340.649L340.64 384.85ZM342.536 384.85H344.423V386.728H342.536V384.85ZM340.64 388.615V386.737H342.527V388.615H340.64ZM333.082 388.615H336.865V390.493H334.978V392.371H333.091V388.605L333.082 388.615ZM283.964 398.014H282.077V396.136H287.747V394.258H297.192V392.38H306.636V390.502H312.306V392.38H310.419V394.258H300.975V396.136H295.305V398.014H285.86V399.892H283.973V398.014H283.964ZM327.412 392.371H333.082V394.249H327.412V392.371ZM325.525 394.258H327.412V396.136H325.525V394.258ZM321.751 398.014H319.864V396.136H321.751V398.014ZM323.638 396.136H325.525V398.014H323.638V396.136ZM319.855 399.892H317.967V398.014H319.855V399.892ZM317.967 401.779H312.297V399.901H317.967V401.779ZM308.523 401.779V403.657H306.636V401.779H308.523ZM312.297 403.657H310.41V401.779H312.297V403.657ZM304.74 403.657H306.627V405.535H304.74V403.657ZM308.523 405.535V403.657H310.41V405.535H308.523ZM300.966 407.413H302.853V409.291H297.182V407.413H299.069V405.535H300.957V407.413H300.966ZM302.853 405.535H304.74V407.413H302.853V405.535ZM295.295 407.413V409.291H293.408V407.413H295.295ZM289.625 411.178H291.512V413.056H285.842V411.178H287.729V409.3H289.616V411.178H289.625ZM291.521 409.3H293.408V411.178H291.521V409.3ZM295.295 409.3H297.182V411.178H295.295V409.3ZM266.953 414.934H265.066V413.056H263.179V411.178H268.849V413.056H266.962V414.934H266.953ZM280.181 414.934V413.056H278.294V411.178H283.964V413.056H282.077V414.934H280.19H280.181ZM276.407 413.056H278.294V414.934H276.407V413.056ZM265.066 414.934V416.812H263.179V418.69H261.292V416.812H259.405V414.934H265.075H265.066ZM268.849 418.699V416.821H266.962V414.943H272.633V416.821H270.746V418.699H268.859H268.849ZM274.51 414.934H276.397V416.812H274.51V414.934ZM255.622 416.821V418.699H253.735V416.821H255.622ZM257.509 416.821H259.396V418.699H257.509V416.821ZM265.066 416.821H266.953V418.699H265.066V416.821ZM227.279 422.455V420.577H225.392V418.699H231.063V420.577H229.176V422.455H227.289H227.279ZM234.837 422.455V420.577H232.95V418.699H238.62V420.577H236.733V422.455H234.846H234.837ZM240.507 420.577V418.699H242.394V420.577H240.507ZM244.281 420.577V418.699H246.168V420.577H244.281ZM248.064 420.577V418.699H249.951V420.577H248.064ZM251.838 418.699H253.725V420.577H251.838V418.699ZM255.622 418.699H257.509V420.577H255.622V418.699Z" fill="var(--fill-0, #758BF3)"/>
</g>
</svg>
