<svg width="490" height="1032" viewBox="0 0 490 1032" fill="none" xmlns="http://www.w3.org/2000/svg">
<g opacity="0.2" clip-path="url(#clip0_1127_2852)">
<path fill-rule="evenodd" clip-rule="evenodd" d="M4.47184e-05 556.376L4.51102e-05 565.339L8.95507 565.339L8.95507 556.376L4.47184e-05 556.376Z" fill="#5564ED"/>
<path fill-rule="evenodd" clip-rule="evenodd" d="M4.43254e-05 529.458L4.51102e-05 547.412L8.95507 547.412L8.95507 529.458L4.43254e-05 529.458Z" fill="#5564ED"/>
<path fill-rule="evenodd" clip-rule="evenodd" d="M4.47184e-05 511.505L4.51102e-05 520.468L8.95507 520.468L8.95507 511.505L4.47184e-05 511.505Z" fill="#5564ED"/>
<path fill-rule="evenodd" clip-rule="evenodd" d="M528.969 1014.05L528.969 1005.08L564.843 1005.08L564.843 996.12L520.014 996.12L520.014 1005.08L511.058 1005.08L511.058 987.129L502.103 987.129L502.103 996.093L493.148 996.093L493.148 987.129L484.193 987.129L484.193 996.093L475.238 996.093L475.238 987.129L466.283 987.129L466.283 996.093L457.328 996.093L457.328 987.129L421.454 987.129L421.454 978.166L385.58 978.166L385.58 969.203L358.688 969.203L358.688 960.239L340.751 960.239L340.751 951.276L313.859 951.276L313.859 942.313L295.921 942.313L295.921 915.396L286.966 915.396L286.966 933.349L278.011 933.349L278.011 915.396L269.056 915.396L269.056 924.359L260.101 924.359L260.101 915.396L269.056 915.396L269.056 906.432L260.101 906.432L260.101 888.479L251.146 888.479L251.146 915.396L242.191 915.396L242.191 888.479L233.236 888.479L233.236 897.442L224.281 897.442L224.281 888.479L215.326 888.479L215.326 879.515L206.371 879.515L206.371 870.552L197.416 870.552L197.416 861.589L188.461 861.589L188.461 843.635L170.524 843.635L170.524 834.672L188.461 834.672L188.461 825.708L152.587 825.708L152.587 816.745L143.632 816.745L143.632 807.782L152.587 807.782L152.587 816.745L188.461 816.745L188.461 807.782L161.569 807.782L161.569 798.818L152.614 798.818L152.614 789.855L143.659 789.855L143.659 798.818L134.704 798.818L134.704 789.855L125.749 789.855L125.749 780.892L134.704 780.892L134.704 771.928L116.767 771.928L116.767 762.965L134.704 762.965L134.704 754.002L107.812 754.002L107.812 745.039L98.8569 745.039L98.8569 718.121L89.9019 718.121L89.9019 709.158L80.9468 709.158L80.9468 700.195L89.9019 700.195L89.9019 691.232L80.9468 691.232L80.9468 673.278L98.8839 673.278L98.8839 664.315L80.9468 664.315L80.9468 655.351L71.9918 655.351L71.9918 646.388L63.0368 646.388L63.0368 637.425L71.9918 637.425L71.9918 646.388L80.9468 646.388L80.9468 637.425L89.9019 637.425L89.9019 628.461L63.0097 628.461L63.0097 619.498L89.9019 619.498L89.9019 610.535L63.0097 610.535L63.0097 601.571L54.0547 601.571L54.0547 592.608L63.0097 592.608L63.0097 583.645L89.9019 583.645L89.9019 574.681L63.0097 574.681L63.0097 565.718L45.0726 565.718L45.0726 556.755L63.0097 556.755L63.0097 547.791L80.9468 547.791L80.9468 538.828L54.0547 538.828L54.0547 547.791L45.0997 547.791L45.0997 529.838L80.9739 529.838L80.9739 520.874L45.0997 520.874L45.0997 502.921L54.0547 502.921L54.0547 493.957L45.0997 493.957L45.0997 476.004L54.0547 476.004L54.0547 467.04L45.0997 467.04L45.0997 449.087L54.0547 449.087L54.0547 404.216L71.9918 404.216L71.9918 395.253L63.0368 395.253L63.0368 368.336L71.9918 368.336L71.9918 350.382L80.9468 350.382L80.9468 323.465L89.9019 323.465L89.9019 305.511L98.8569 305.511L98.8569 287.557L89.9019 287.557L89.9019 278.594L98.8569 278.594L98.8569 287.557L107.812 287.557L107.812 278.594L116.767 278.594L116.767 269.631L107.812 269.631L107.812 260.667L125.749 260.667L125.749 242.714L134.704 242.714L134.704 233.75L143.659 233.75L143.659 215.797L134.704 215.797L134.704 206.833L143.659 206.833L143.659 215.797L152.614 215.797L152.614 206.833L161.569 206.833L161.569 197.87L179.506 197.87L179.506 188.907L170.551 188.907L170.551 179.943L161.596 179.943L161.596 188.907L152.641 188.907L152.641 197.87L125.749 197.87L125.749 215.824L107.812 215.824L107.812 224.787L116.767 224.787L116.767 233.75L107.812 233.75L107.812 242.714L98.8569 242.714L98.8569 233.75L89.9018 233.75L89.9018 251.704L80.9468 251.704L80.9468 278.621L71.9918 278.621L71.9918 305.538L63.0368 305.538L63.0368 332.455L54.0818 332.455L54.0818 359.372L45.1267 359.372L45.1267 377.326L36.1717 377.326L36.1717 386.289L45.1267 386.289L45.1267 395.253L36.1717 395.253L36.1717 413.206L27.2167 413.206L27.2167 440.123L18.2617 440.123L18.2617 449.087L27.2167 449.087L27.2167 458.05L18.2617 458.05L18.2617 476.004L9.30666 476.004L9.30666 484.967L18.2617 484.967L18.2617 493.93L9.30666 493.93L9.30666 511.884L18.2617 511.884L18.2617 502.921L27.2167 502.921L27.2167 511.884L18.2617 511.884L18.2617 520.847L9.30666 520.847L9.30666 529.811L18.2617 529.811L18.2617 547.764L9.30666 547.764L9.30666 556.728L18.2617 556.728L18.2617 565.691L9.30667 565.691L9.30667 592.608L18.2617 592.608L18.2617 601.571L9.30667 601.571L9.30667 610.535L18.2617 610.535L18.2617 628.488L27.2167 628.488L27.2167 673.359L45.1538 673.359L45.1538 682.322L36.1988 682.322L36.1988 691.286L45.1538 691.286L45.1538 709.239L54.1088 709.239L54.1088 718.203L45.1538 718.203L45.1538 727.166L63.0909 727.166L63.0909 736.129L54.1359 736.129L54.1359 745.093L63.0909 745.093L63.0909 763.046L72.0459 763.046L72.0459 781L81.001 781L81.001 807.917L89.956 807.917L89.956 825.871L98.911 825.871L98.911 843.825L107.866 843.825L107.866 861.778L116.821 861.778L116.821 870.742L125.776 870.742L125.776 879.705L134.731 879.705L134.731 897.659L152.668 897.659L152.668 906.622L170.605 906.622L170.605 924.576L188.542 924.576L188.542 933.539L206.479 933.539L206.479 942.502L224.417 942.502L224.417 951.466L242.354 951.466L242.354 960.429L260.291 960.429L260.291 978.383L269.246 978.383L269.246 969.419L278.201 969.419L278.201 987.373L287.156 987.373L287.156 978.41L296.111 978.41L296.111 987.373L305.066 987.373L305.066 978.41L314.021 978.41L314.021 987.373L305.066 987.373L305.066 996.336L331.958 996.336L331.958 1005.3L349.895 1005.3L349.895 996.336L340.94 996.336L340.94 987.373L349.895 987.373L349.895 996.336L358.85 996.336L358.85 1005.3L349.895 1005.3L349.895 1014.26L367.832 1014.26L367.832 1023.23L376.787 1023.23L376.787 1014.26L385.742 1014.26L385.742 1023.23L412.634 1023.23L412.634 1014.26L421.589 1014.26L421.589 1032L430.544 1032L430.544 1023.04L439.499 1023.04L439.499 1032L448.454 1032L448.454 1023.04L457.41 1023.04L457.41 1032L466.365 1032L466.365 1023.04L475.32 1023.04L475.32 1032L484.275 1032L484.275 1023.04L493.23 1023.04L493.23 1032L502.185 1032L502.185 1023.04L511.14 1023.04L511.14 1014.07L529.077 1014.07L528.969 1014.05ZM44.8292 583.293L44.8292 574.329L53.7842 574.329L53.7842 583.293L44.8292 583.293ZM286.912 969.176L286.912 960.212L295.867 960.212L295.867 969.176L286.912 969.176ZM322.76 987.129L322.76 978.166L331.715 978.166L331.715 987.129L322.76 987.129ZM367.589 1005.08L367.589 996.12L376.544 996.12L376.544 1005.08L367.589 1005.08ZM394.481 1014.05L394.481 1005.08L403.436 1005.08L403.436 1014.05L394.481 1014.05ZM439.31 1014.05L439.31 1005.08L448.265 1005.08L448.265 1014.05L439.31 1014.05ZM457.247 1014.05L457.247 1005.08L466.202 1005.08L466.202 1014.05L457.247 1014.05ZM475.184 1014.05L475.184 1005.08L484.139 1005.08L484.139 1014.05L475.184 1014.05ZM493.121 1014.05L493.121 1005.08L502.076 1005.08L502.076 1014.05L493.121 1014.05Z" fill="#5564ED"/>
<path fill-rule="evenodd" clip-rule="evenodd" d="M80.7037 511.505L80.7037 502.542L53.8116 502.542L53.8116 511.505L80.7037 511.505Z" fill="#5564ED"/>
<path fill-rule="evenodd" clip-rule="evenodd" d="M62.7666 475.624L53.8116 475.624L53.8116 493.578L71.7487 493.578L71.7487 484.615L62.7936 484.615L62.7936 475.652L62.7666 475.624Z" fill="#5564ED"/>
<path fill-rule="evenodd" clip-rule="evenodd" d="M53.7842 466.634L80.6763 466.634L80.6763 457.671L62.7393 457.671L62.7393 448.707L53.7842 448.707L53.7842 466.661L53.7842 466.634Z" fill="#5564ED"/>
<path fill-rule="evenodd" clip-rule="evenodd" d="M98.6135 601.246L98.6135 592.283L62.7393 592.283L62.7393 601.246L98.6135 601.246Z" fill="#5564ED"/>
<path fill-rule="evenodd" clip-rule="evenodd" d="M80.7037 565.366L80.7037 556.402L62.7666 556.402L62.7666 565.366L80.7037 565.366Z" fill="#5564ED"/>
<path fill-rule="evenodd" clip-rule="evenodd" d="M62.7666 448.708L71.7217 448.708L71.7217 412.8L62.7666 412.8L62.7666 448.708Z" fill="#5564ED"/>
<path fill-rule="evenodd" clip-rule="evenodd" d="M71.7217 484.588L80.6767 484.588L80.6767 475.625L71.7217 475.625L71.7217 484.588Z" fill="#5564ED"/>
<path fill-rule="evenodd" clip-rule="evenodd" d="M80.7031 412.8L80.7031 403.837L71.7481 403.837L71.7481 412.8L80.7031 412.8Z" fill="#5564ED"/>
<path fill-rule="evenodd" clip-rule="evenodd" d="M98.6138 385.883L71.7217 385.883L71.7217 394.846L98.6138 394.846L98.6138 385.883Z" fill="#5564ED"/>
<path fill-rule="evenodd" clip-rule="evenodd" d="M89.6588 376.893L89.6588 367.929L71.7217 367.929L71.7217 376.893L89.6588 376.893Z" fill="#5564ED"/>
<path fill-rule="evenodd" clip-rule="evenodd" d="M107.595 655.107L107.595 646.144L80.7032 646.144L80.7032 655.107L107.595 655.107Z" fill="#5564ED"/>
<path fill-rule="evenodd" clip-rule="evenodd" d="M89.6582 493.578L89.6582 484.615L80.7032 484.615L80.7032 493.578L89.6582 493.578Z" fill="#5564ED"/>
<path fill-rule="evenodd" clip-rule="evenodd" d="M89.6582 475.625L89.6582 466.661L80.7032 466.661L80.7032 475.625L89.6582 475.625Z" fill="#5564ED"/>
<path fill-rule="evenodd" clip-rule="evenodd" d="M89.6582 448.708L80.7032 448.708L80.7032 457.671L89.6582 457.671L89.6582 448.708Z" fill="#5564ED"/>
<path fill-rule="evenodd" clip-rule="evenodd" d="M80.7032 430.754L80.7032 439.717L89.6582 439.717L89.6582 430.754L80.7032 430.754Z" fill="#5564ED"/>
<path fill-rule="evenodd" clip-rule="evenodd" d="M89.6582 421.763L89.6582 412.8L80.7032 412.8L80.7032 421.763L89.6582 421.763Z" fill="#5564ED"/>
<path fill-rule="evenodd" clip-rule="evenodd" d="M98.6133 699.978L89.6582 699.978L89.6582 708.941L98.6133 708.941L98.6133 699.978Z" fill="#5564ED"/>
<path fill-rule="evenodd" clip-rule="evenodd" d="M89.6582 690.988L98.6133 690.988L98.6133 682.025L89.6582 682.025L89.6582 690.988Z" fill="#5564ED"/>
<path fill-rule="evenodd" clip-rule="evenodd" d="M98.6133 628.163L98.6133 619.2L89.6582 619.2L89.6582 628.163L98.6133 628.163Z" fill="#5564ED"/>
<path fill-rule="evenodd" clip-rule="evenodd" d="M98.6133 547.412L98.6133 538.449L89.6582 538.449L89.6582 547.412L98.6133 547.412Z" fill="#5564ED"/>
<path fill-rule="evenodd" clip-rule="evenodd" d="M98.6133 439.717L89.6582 439.717L89.6582 448.68L98.6133 448.68L98.6133 439.717Z" fill="#5564ED"/>
<path fill-rule="evenodd" clip-rule="evenodd" d="M98.6133 403.837L89.6582 403.837L89.6582 412.8L98.6133 412.8L98.6133 403.837Z" fill="#5564ED"/>
<path fill-rule="evenodd" clip-rule="evenodd" d="M98.6133 349.976L89.6582 349.976L89.6582 367.929L98.6133 367.929L98.6133 349.976Z" fill="#5564ED"/>
<path fill-rule="evenodd" clip-rule="evenodd" d="M89.6582 332.022L89.6582 340.985L98.6133 340.985L98.6133 332.022L89.6582 332.022Z" fill="#5564ED"/>
<path fill-rule="evenodd" clip-rule="evenodd" d="M107.596 708.941L98.6407 708.942L98.6407 717.905L107.596 717.905L107.596 708.941Z" fill="#5564ED"/>
<path fill-rule="evenodd" clip-rule="evenodd" d="M107.596 699.978L107.596 691.015L98.6407 691.015L98.6407 699.978L107.596 699.978Z" fill="#5564ED"/>
<path fill-rule="evenodd" clip-rule="evenodd" d="M116.55 682.024L116.55 673.061L98.6133 673.061L98.6133 682.024L116.55 682.024Z" fill="#5564ED"/>
<path fill-rule="evenodd" clip-rule="evenodd" d="M107.596 637.154L107.596 628.191L98.6407 628.191L98.6407 637.154L107.596 637.154Z" fill="#5564ED"/>
<path fill-rule="evenodd" clip-rule="evenodd" d="M107.596 610.237L107.596 601.274L98.6407 601.274L98.6407 610.237L107.596 610.237Z" fill="#5564ED"/>
<path fill-rule="evenodd" clip-rule="evenodd" d="M98.6133 556.376L98.6133 565.339L107.568 565.339L107.568 556.376L98.6133 556.376Z" fill="#5564ED"/>
<path fill-rule="evenodd" clip-rule="evenodd" d="M98.6133 511.505L98.6133 520.468L107.568 520.468L107.568 511.505L98.6133 511.505Z" fill="#5564ED"/>
<path fill-rule="evenodd" clip-rule="evenodd" d="M107.596 376.893L107.596 367.929L98.6407 367.929L98.6407 376.893L107.596 376.893Z" fill="#5564ED"/>
<path fill-rule="evenodd" clip-rule="evenodd" d="M107.596 341.012L98.6407 341.012L98.6407 349.976L107.596 349.976L107.596 341.012Z" fill="#5564ED"/>
<path fill-rule="evenodd" clip-rule="evenodd" d="M107.596 323.059L98.6407 323.059L98.6407 332.022L107.596 332.022L107.596 323.059Z" fill="#5564ED"/>
<path fill-rule="evenodd" clip-rule="evenodd" d="M98.6133 314.095L116.55 314.095L116.55 305.132L98.6133 305.132L98.6133 314.095Z" fill="#5564ED"/>
<path fill-rule="evenodd" clip-rule="evenodd" d="M107.596 224.354L98.6407 224.354L98.6407 233.317L107.596 233.317L107.596 224.354Z" fill="#5564ED"/>
<path fill-rule="evenodd" clip-rule="evenodd" d="M116.551 717.905L107.596 717.905L107.596 744.822L116.551 744.822L116.551 717.905Z" fill="#5564ED"/>
<path fill-rule="evenodd" clip-rule="evenodd" d="M125.506 708.941L125.506 699.978L107.568 699.978L107.568 708.941L125.506 708.941Z" fill="#5564ED"/>
<path fill-rule="evenodd" clip-rule="evenodd" d="M116.551 664.071L116.551 655.108L107.596 655.108L107.596 664.071L116.551 664.071Z" fill="#5564ED"/>
<path fill-rule="evenodd" clip-rule="evenodd" d="M116.551 619.2L107.596 619.2L107.596 628.163L116.551 628.163L116.551 619.2Z" fill="#5564ED"/>
<path fill-rule="evenodd" clip-rule="evenodd" d="M116.551 358.966L107.596 358.966L107.596 367.929L116.551 367.929L116.551 358.966Z" fill="#5564ED"/>
<path fill-rule="evenodd" clip-rule="evenodd" d="M116.551 341.012L116.551 332.049L107.596 332.049L107.596 341.012L116.551 341.012Z" fill="#5564ED"/>
<path fill-rule="evenodd" clip-rule="evenodd" d="M134.488 690.988L134.488 682.025L116.551 682.025L116.551 690.988L134.488 690.988Z" fill="#5564ED"/>
<path fill-rule="evenodd" clip-rule="evenodd" d="M125.506 646.117L116.551 646.117L116.551 655.081L125.506 655.081L125.506 646.117Z" fill="#5564ED"/>
<path fill-rule="evenodd" clip-rule="evenodd" d="M125.506 538.422L125.506 529.459L116.551 529.459L116.551 538.422L125.506 538.422Z" fill="#5564ED"/>
<path fill-rule="evenodd" clip-rule="evenodd" d="M116.551 493.578L116.551 502.542L125.506 502.542L125.506 493.578L116.551 493.578Z" fill="#5564ED"/>
<path fill-rule="evenodd" clip-rule="evenodd" d="M125.506 323.059L125.506 314.095L116.551 314.095L116.551 323.059L125.506 323.059Z" fill="#5564ED"/>
<path fill-rule="evenodd" clip-rule="evenodd" d="M116.551 305.105L125.506 305.105L125.506 287.151L116.551 287.151L116.551 305.105Z" fill="#5564ED"/>
<path fill-rule="evenodd" clip-rule="evenodd" d="M125.506 744.822L134.461 744.822L134.461 726.868L125.506 726.868L125.506 744.822Z" fill="#5564ED"/>
<path fill-rule="evenodd" clip-rule="evenodd" d="M134.487 717.905L134.487 708.941L125.532 708.942L125.532 717.905L134.487 717.905Z" fill="#5564ED"/>
<path fill-rule="evenodd" clip-rule="evenodd" d="M134.487 673.034L134.487 664.071L125.532 664.071L125.532 673.034L134.487 673.034Z" fill="#5564ED"/>
<path fill-rule="evenodd" clip-rule="evenodd" d="M125.506 475.625L125.506 484.588L134.461 484.588L134.461 475.625L125.506 475.625Z" fill="#5564ED"/>
<path fill-rule="evenodd" clip-rule="evenodd" d="M125.506 332.022L125.506 340.985L134.461 340.985L134.461 332.022L125.506 332.022Z" fill="#5564ED"/>
<path fill-rule="evenodd" clip-rule="evenodd" d="M125.506 287.178L134.461 287.178L134.461 269.225L125.506 269.225L125.506 287.178Z" fill="#5564ED"/>
<path fill-rule="evenodd" clip-rule="evenodd" d="M134.487 780.729L134.487 789.692L143.442 789.692L143.442 780.729L134.487 780.729Z" fill="#5564ED"/>
<path fill-rule="evenodd" clip-rule="evenodd" d="M143.442 762.776L134.487 762.776L134.487 771.739L143.442 771.739L143.442 762.776Z" fill="#5564ED"/>
<path fill-rule="evenodd" clip-rule="evenodd" d="M143.442 753.812L143.442 744.849L134.487 744.849L134.487 753.812L143.442 753.812Z" fill="#5564ED"/>
<path fill-rule="evenodd" clip-rule="evenodd" d="M152.424 726.895L152.424 717.932L134.487 717.932L134.487 726.895L152.424 726.895Z" fill="#5564ED"/>
<path fill-rule="evenodd" clip-rule="evenodd" d="M143.442 699.978L134.487 699.978L134.487 708.941L143.442 708.941L143.442 699.978Z" fill="#5564ED"/>
<path fill-rule="evenodd" clip-rule="evenodd" d="M134.487 628.163L134.487 637.127L143.442 637.127L143.442 628.163L134.487 628.163Z" fill="#5564ED"/>
<path fill-rule="evenodd" clip-rule="evenodd" d="M134.487 592.283L134.487 601.246L143.442 601.246L143.442 592.283L134.487 592.283Z" fill="#5564ED"/>
<path fill-rule="evenodd" clip-rule="evenodd" d="M134.487 565.366L134.487 574.329L143.442 574.329L143.442 565.366L134.487 565.366Z" fill="#5564ED"/>
<path fill-rule="evenodd" clip-rule="evenodd" d="M143.442 547.412L143.442 538.449L134.487 538.449L134.487 547.412L143.442 547.412Z" fill="#5564ED"/>
<path fill-rule="evenodd" clip-rule="evenodd" d="M143.442 520.495L143.442 511.532L134.487 511.532L134.487 520.495L143.442 520.495Z" fill="#5564ED"/>
<path fill-rule="evenodd" clip-rule="evenodd" d="M134.487 296.142L134.487 305.105L143.442 305.105L143.442 296.142L134.487 296.142Z" fill="#5564ED"/>
<path fill-rule="evenodd" clip-rule="evenodd" d="M134.487 269.225L143.442 269.225L143.442 260.261L134.487 260.261L134.487 269.225Z" fill="#5564ED"/>
<path fill-rule="evenodd" clip-rule="evenodd" d="M143.442 780.729L152.397 780.729L152.397 771.766L143.442 771.766L143.442 780.729Z" fill="#5564ED"/>
<path fill-rule="evenodd" clip-rule="evenodd" d="M152.425 762.775L152.425 753.812L143.47 753.812L143.47 762.775L152.425 762.775Z" fill="#5564ED"/>
<path fill-rule="evenodd" clip-rule="evenodd" d="M152.425 735.859L143.47 735.859L143.47 744.822L152.425 744.822L152.425 735.859Z" fill="#5564ED"/>
<path fill-rule="evenodd" clip-rule="evenodd" d="M152.425 690.988L143.47 690.988L143.47 699.951L152.425 699.951L152.425 690.988Z" fill="#5564ED"/>
<path fill-rule="evenodd" clip-rule="evenodd" d="M143.442 673.034L143.442 681.998L152.397 681.998L152.397 673.034L143.442 673.034Z" fill="#5564ED"/>
<path fill-rule="evenodd" clip-rule="evenodd" d="M143.442 278.188L143.442 287.151L152.397 287.151L152.397 278.188L143.442 278.188Z" fill="#5564ED"/>
<path fill-rule="evenodd" clip-rule="evenodd" d="M143.442 260.234L152.397 260.234L152.397 242.28L143.442 242.28L143.442 260.234Z" fill="#5564ED"/>
<path fill-rule="evenodd" clip-rule="evenodd" d="M143.442 179.483L143.442 188.446L152.397 188.446L152.397 179.483L143.442 179.483Z" fill="#5564ED"/>
<path fill-rule="evenodd" clip-rule="evenodd" d="M161.38 780.729L152.425 780.729L152.425 789.692L161.38 789.692L161.38 780.729Z" fill="#5564ED"/>
<path fill-rule="evenodd" clip-rule="evenodd" d="M152.425 771.766L161.38 771.766L161.38 762.803L152.425 762.803L152.425 771.766Z" fill="#5564ED"/>
<path fill-rule="evenodd" clip-rule="evenodd" d="M161.38 753.812L161.38 744.849L152.425 744.849L152.425 753.812L161.38 753.812Z" fill="#5564ED"/>
<path fill-rule="evenodd" clip-rule="evenodd" d="M161.38 708.941L161.38 699.978L152.425 699.978L152.425 708.941L161.38 708.941Z" fill="#5564ED"/>
<path fill-rule="evenodd" clip-rule="evenodd" d="M152.425 242.308L161.38 242.308L161.38 233.344L152.425 233.344L152.425 242.308Z" fill="#5564ED"/>
<path fill-rule="evenodd" clip-rule="evenodd" d="M152.425 224.354L161.38 224.354L161.38 215.39L152.425 215.39L152.425 224.354Z" fill="#5564ED"/>
<path fill-rule="evenodd" clip-rule="evenodd" d="M188.272 789.692L161.38 789.692L161.38 798.656L188.272 798.656L188.272 789.692Z" fill="#5564ED"/>
<path fill-rule="evenodd" clip-rule="evenodd" d="M188.272 780.729L188.272 771.766L161.38 771.766L161.38 780.729L188.272 780.729Z" fill="#5564ED"/>
<path fill-rule="evenodd" clip-rule="evenodd" d="M179.317 762.775L179.317 753.812L161.38 753.812L161.38 762.775L179.317 762.775Z" fill="#5564ED"/>
<path fill-rule="evenodd" clip-rule="evenodd" d="M170.335 735.859L161.38 735.859L161.38 744.822L170.335 744.822L170.335 735.859Z" fill="#5564ED"/>
<path fill-rule="evenodd" clip-rule="evenodd" d="M170.335 726.895L170.335 717.932L161.38 717.932L161.38 726.895L170.335 726.895Z" fill="#5564ED"/>
<path fill-rule="evenodd" clip-rule="evenodd" d="M161.38 655.108L161.38 664.071L170.335 664.071L170.335 655.108L161.38 655.108Z" fill="#5564ED"/>
<path fill-rule="evenodd" clip-rule="evenodd" d="M170.335 260.234L170.335 251.271L161.38 251.271L161.38 260.234L170.335 260.234Z" fill="#5564ED"/>
<path fill-rule="evenodd" clip-rule="evenodd" d="M170.335 233.317L170.335 224.354L161.38 224.354L161.38 233.317L170.335 233.317Z" fill="#5564ED"/>
<path fill-rule="evenodd" clip-rule="evenodd" d="M161.38 215.363L179.317 215.363L179.317 206.4L161.38 206.4L161.38 215.363Z" fill="#5564ED"/>
<path fill-rule="evenodd" clip-rule="evenodd" d="M161.38 161.529L161.38 170.493L170.335 170.493L170.335 161.529L161.38 161.529Z" fill="#5564ED"/>
<path fill-rule="evenodd" clip-rule="evenodd" d="M179.316 170.493L170.361 170.493L170.361 179.456L179.316 179.456L179.316 170.493Z" fill="#5564ED"/>
<path fill-rule="evenodd" clip-rule="evenodd" d="M188.271 744.822L179.316 744.822L179.316 753.785L188.271 753.785L188.271 744.822Z" fill="#5564ED"/>
<path fill-rule="evenodd" clip-rule="evenodd" d="M188.271 726.895L188.271 717.932L179.316 717.932L179.316 726.895L188.271 726.895Z" fill="#5564ED"/>
<path fill-rule="evenodd" clip-rule="evenodd" d="M188.271 699.978L188.271 691.015L179.316 691.015L179.316 699.978L188.271 699.978Z" fill="#5564ED"/>
<path fill-rule="evenodd" clip-rule="evenodd" d="M188.271 233.317L188.271 224.354L179.316 224.354L179.316 233.317L188.271 233.317Z" fill="#5564ED"/>
<path fill-rule="evenodd" clip-rule="evenodd" d="M188.271 206.4L188.271 197.437L179.316 197.437L179.316 206.4L188.271 206.4Z" fill="#5564ED"/>
<path fill-rule="evenodd" clip-rule="evenodd" d="M197.254 188.446L197.254 179.483L179.316 179.483L179.316 188.446L197.254 188.446Z" fill="#5564ED"/>
<path fill-rule="evenodd" clip-rule="evenodd" d="M215.164 161.529L188.271 161.529L188.271 152.566L179.316 152.566L179.316 170.52L215.191 170.52L215.191 161.556L215.164 161.529Z" fill="#5564ED"/>
<path fill-rule="evenodd" clip-rule="evenodd" d="M197.254 834.564L188.299 834.564L188.299 843.527L197.254 843.527L197.254 834.564Z" fill="#5564ED"/>
<path fill-rule="evenodd" clip-rule="evenodd" d="M197.254 816.637L188.299 816.637L188.299 825.6L197.254 825.6L197.254 816.637Z" fill="#5564ED"/>
<path fill-rule="evenodd" clip-rule="evenodd" d="M188.272 807.647L197.227 807.647L197.227 798.683L188.272 798.683L188.272 807.647Z" fill="#5564ED"/>
<path fill-rule="evenodd" clip-rule="evenodd" d="M197.254 789.692L197.254 780.729L188.299 780.729L188.299 789.692L197.254 789.692Z" fill="#5564ED"/>
<path fill-rule="evenodd" clip-rule="evenodd" d="M439.31 655.108L439.31 664.071L448.265 664.071L448.265 655.108L457.22 655.108L457.22 664.071L466.175 664.071L466.175 655.108L502.049 655.108L502.049 646.144L528.942 646.144L528.942 637.181L519.987 637.181L519.987 628.218L528.942 628.218L528.942 637.181L537.897 637.181L537.897 628.218L555.834 628.218L555.834 619.254L546.879 619.254L546.879 610.291L555.834 610.291L555.834 619.254L564.789 619.254L564.789 610.291L591.681 610.291L591.681 601.328L582.726 601.328L582.726 592.364L591.681 592.364L591.681 583.401L600.636 583.401L600.636 592.364L609.591 592.364L609.591 574.411L627.528 574.411L627.528 556.457L636.483 556.457L636.483 538.503L645.438 538.503L645.438 529.54L636.483 529.54L636.483 520.577L627.528 520.577L627.528 511.613L636.483 511.613L636.483 520.577L645.438 520.577L645.438 529.54L654.393 529.54L654.393 511.586L645.438 511.586L645.438 493.632L654.393 493.632L654.393 484.669L645.438 484.669L645.438 475.706L654.393 475.706L654.393 466.742L663.348 466.742L663.348 457.779L645.411 457.779L645.411 448.816L663.348 448.816L663.348 439.853L645.411 439.853L645.411 430.889L663.348 430.889L663.348 421.926L645.411 421.926L645.411 412.963L663.348 412.963L663.348 403.999L654.393 403.999L654.393 395.036L645.438 395.036L645.438 403.999L636.483 403.999L636.483 395.036L645.438 395.036L645.438 386.073L636.483 386.073L636.483 377.109L645.438 377.109L645.438 368.146L627.501 368.146L627.501 350.192L636.456 350.192L636.456 341.229L627.501 341.229L627.501 332.266L618.546 332.266L618.546 323.302L627.501 323.302L627.501 314.339L618.546 314.339L618.546 287.422L609.591 287.422L609.591 296.385L600.636 296.385L600.636 269.468L582.699 269.468L582.699 251.515L573.744 251.515L573.744 260.478L564.789 260.478L564.789 242.524L555.834 242.524L555.834 251.487L537.897 251.487L537.897 242.524L546.852 242.524L546.852 233.561L519.959 233.561L519.959 242.524L493.067 242.524L493.067 233.561L484.112 233.561L484.112 242.524L475.157 242.524L475.157 233.561L484.112 233.561L484.112 224.598L466.175 224.598L466.175 233.561L448.238 233.561L448.238 224.598L466.175 224.598L466.175 215.634L430.301 215.634L430.301 224.598L439.256 224.598L439.256 233.561L430.301 233.561L430.301 242.524L421.346 242.524L421.346 233.561L430.301 233.561L430.301 224.598L421.346 224.598L421.346 215.634L412.391 215.634L412.391 224.598L403.436 224.598L403.436 233.561L412.391 233.561L412.391 242.524L394.454 242.524L394.454 224.57L376.517 224.57L376.517 233.534L385.472 233.534L385.472 242.497L376.517 242.497L376.517 251.46L367.562 251.46L367.562 242.497L376.517 242.497L376.517 233.534L358.58 233.534L358.58 242.497L340.643 242.497L340.643 251.46L313.75 251.46L313.75 260.424L349.625 260.424L349.625 251.46L358.58 251.46L358.58 260.424L349.625 260.424L349.625 269.387L313.75 269.387L313.75 260.424L304.795 260.424L304.795 278.377L313.75 278.377L313.75 287.341L322.705 287.341L322.705 278.377L331.66 278.377L331.66 287.341L322.705 287.341L322.705 296.304L313.75 296.304L313.75 287.341L304.795 287.341L304.795 278.377L286.858 278.377L286.858 287.341L295.813 287.341L295.813 296.304L304.768 296.304L304.768 305.267L295.813 305.267L295.813 296.304L286.858 296.304L286.858 305.267L277.903 305.267L277.903 296.304L268.948 296.304L268.948 314.258L277.903 314.258L277.903 323.221L268.948 323.221L268.948 332.184L259.993 332.184L259.993 341.148L251.038 341.148L251.038 332.184L242.083 332.184L242.083 359.101L251.038 359.101L251.038 350.138L259.993 350.138L259.993 359.101L251.038 359.101L251.038 368.065L259.993 368.065L259.993 377.028L268.948 377.028L268.948 368.065L277.903 368.065L277.903 377.028L286.858 377.028L286.858 350.111L304.795 350.111L304.795 341.148L322.733 341.148L322.733 332.184L313.778 332.184L313.778 323.221L322.733 323.221L322.733 332.184L331.688 332.184L331.688 341.148L340.643 341.148L340.643 332.184L349.598 332.184L349.598 350.138L358.553 350.138L358.553 359.101L367.508 359.101L367.508 368.065L376.463 368.065L376.463 359.101L385.418 359.101L385.418 368.065L394.373 368.065L394.373 359.101L403.328 359.101L403.328 368.065L394.373 368.065L394.373 377.028L385.418 377.028L385.418 385.991L394.373 385.991L394.373 394.955L385.418 394.955L385.418 403.918L376.463 403.918L376.463 394.955L358.526 394.955L358.526 403.918L349.571 403.918L349.571 394.955L340.616 394.955L340.616 430.862L331.66 430.862L331.66 448.816L340.616 448.816L340.616 457.779L331.66 457.779L331.66 466.742L322.705 466.742L322.705 457.779L286.831 457.779L286.831 466.742L277.876 466.742L277.876 457.779L286.831 457.779L286.831 448.816L268.894 448.816L268.894 457.779L259.939 457.779L259.939 448.816L268.894 448.816L268.894 439.853L277.849 439.853L277.849 430.889L241.975 430.889L241.975 421.926L233.02 421.926L233.02 412.963L224.065 412.963L224.065 403.999L215.11 403.999L215.11 421.953L188.218 421.953L188.218 430.916L215.11 430.916L215.11 439.88L188.218 439.88L188.218 448.843L215.11 448.843L215.11 457.806L188.218 457.806L188.218 466.77L224.092 466.77L224.092 475.733L188.218 475.733L188.218 484.696L224.092 484.696L224.092 493.66L197.2 493.66L197.2 502.623L224.092 502.623L224.092 511.586L206.155 511.586L206.155 520.55L224.092 520.55L224.092 529.513L215.137 529.513L215.137 538.476L224.092 538.476L224.092 556.43L233.047 556.43L233.047 565.393L242.002 565.393L242.002 574.356L250.957 574.356L250.957 583.32L242.002 583.32L242.002 592.283L259.939 592.283L259.939 601.246L250.984 601.246L250.984 610.21L259.939 610.21L259.939 619.173L268.894 619.173L268.894 628.136L277.849 628.136L277.849 637.1L286.804 637.1L286.804 628.136L295.759 628.136L295.759 637.1L286.804 637.1L286.804 646.063L313.696 646.063L313.696 655.026L322.651 655.026L322.651 646.063L331.606 646.063L331.606 655.026L322.651 655.026L322.651 663.99L358.526 663.99L358.526 655.026L340.588 655.026L340.588 646.063L358.526 646.063L358.526 655.026L367.481 655.026L367.481 646.063L394.373 646.063L394.373 655.026L403.328 655.026L403.328 646.063L412.283 646.063L412.283 655.026L421.238 655.026L421.238 672.98L430.193 672.98L430.193 655.026L439.148 655.026L439.31 655.108ZM493.121 269.225L493.121 260.261L502.076 260.261L502.076 269.225L493.121 269.225ZM277.93 349.976L277.93 358.939L268.975 358.939L268.975 349.976L277.93 349.976ZM511.031 628.163L511.031 637.127L502.076 637.127L502.076 628.163L511.031 628.163ZM448.292 610.237L439.337 610.237L439.337 601.273L448.292 601.273L448.292 610.237ZM502.076 592.283L502.076 583.32L511.031 583.32L511.031 592.283L502.076 592.283ZM493.121 601.246L484.166 601.246L484.166 592.283L493.121 592.283L493.121 601.246ZM475.184 592.283L466.229 592.283L466.229 601.246L457.274 601.246L457.274 592.283L466.229 592.283L466.229 583.32L475.184 583.32L475.184 592.283ZM430.355 592.283L430.355 601.246L421.4 601.246L421.4 592.283L430.355 592.283ZM412.418 601.246L412.418 610.21L403.463 610.21L403.463 601.246L412.418 601.246ZM573.798 592.283L573.798 601.246L564.843 601.246L564.843 592.283L573.798 592.283ZM546.906 583.293L537.951 583.293L537.951 592.256L528.996 592.256L528.996 583.293L537.951 583.293L537.951 574.329L546.906 574.329L546.906 583.293ZM412.418 574.329L421.373 574.329L421.373 583.293L412.418 583.293L412.418 574.329ZM403.463 583.293L394.508 583.293L394.508 574.329L403.463 574.329L403.463 583.293ZM439.31 574.329L430.355 574.329L430.355 565.366L439.31 565.366L439.31 574.329L448.265 574.329L448.265 583.293L439.31 583.293L439.31 574.329ZM457.247 565.366L466.202 565.366L466.202 574.329L457.247 574.329L457.247 565.366ZM564.843 574.329L564.843 565.366L573.798 565.366L573.798 574.329L564.843 574.329ZM618.627 556.376L618.627 565.339L609.672 565.339L609.672 556.376L618.627 556.376ZM618.627 529.459L618.627 538.422L627.582 538.422L627.582 547.385L618.627 547.385L618.627 538.422L609.672 538.422L609.672 529.459L618.627 529.459ZM582.753 556.376L573.798 556.376L573.798 547.412L582.753 547.412L582.753 556.376ZM600.69 520.495L600.69 529.459L591.735 529.459L591.735 538.422L582.78 538.422L582.78 529.459L591.735 529.459L591.735 520.495L600.69 520.495ZM618.627 484.588L618.627 493.551L627.582 493.551L627.582 502.515L618.627 502.515L618.627 493.551L609.672 493.551L609.672 484.588L618.627 484.588ZM609.672 511.505L600.717 511.505L600.717 502.542L609.672 502.542L609.672 511.505ZM618.627 466.634L618.627 475.597L609.672 475.597L609.672 466.634L618.627 466.634ZM618.627 457.671L609.672 457.671L609.672 448.708L618.627 448.708L618.627 457.671ZM636.564 439.717L636.564 448.68L627.609 448.68L627.609 439.717L636.564 439.717ZM618.627 430.754L618.627 439.717L609.672 439.717L609.672 430.754L618.627 430.754ZM618.627 394.846L618.627 403.81L609.672 403.81L609.672 394.846L618.627 394.846ZM609.672 376.893L609.672 385.856L600.717 385.856L600.717 376.893L609.672 376.893ZM591.735 332.022L591.735 340.985L582.78 340.985L582.78 332.022L591.735 332.022ZM528.969 278.188L528.969 287.151L520.014 287.151L520.014 278.188L528.969 278.188ZM484.139 287.178L484.139 278.215L493.094 278.215L493.094 287.178L484.139 287.178ZM367.589 296.142L376.544 296.142L376.544 305.105L367.589 305.105L367.589 296.142ZM466.202 314.095L457.247 314.095L457.247 305.132L466.202 305.132L466.202 296.169L475.157 296.169L475.157 305.132L484.112 305.132L484.112 314.095L475.157 314.095L475.157 305.132L466.202 305.132L466.202 314.095ZM394.481 305.105L385.526 305.105L385.526 296.142L394.481 296.142L394.481 305.105ZM286.912 341.012L277.957 341.012L277.957 332.049L286.912 332.049L286.912 341.012ZM304.822 332.022L295.867 332.022L295.867 323.059L286.912 323.059L286.912 314.095L295.867 314.095L295.867 323.059L304.822 323.059L304.822 332.022ZM349.652 323.059L349.652 314.095L340.697 314.095L340.697 323.059L331.742 323.059L331.742 314.095L322.787 314.095L322.787 305.132L331.742 305.132L331.742 314.095L340.697 314.095L340.697 305.132L349.652 305.132L349.652 314.095L358.607 314.095L358.607 323.059L349.652 323.059ZM403.463 323.059L403.463 314.095L412.418 314.095L412.418 323.059L403.463 323.059ZM421.373 323.059L421.373 314.095L430.328 314.095L430.328 323.059L421.373 323.059ZM448.292 323.059L439.337 323.059L439.337 314.095L448.292 314.095L448.292 323.059L457.247 323.059L457.247 332.022L448.292 332.022L448.292 323.059ZM430.355 332.022L439.31 332.022L439.31 340.985L430.355 340.985L430.355 332.022ZM421.373 341.012L412.418 341.012L412.418 332.049L421.373 332.049L421.373 341.012ZM385.526 349.976L385.526 341.012L376.571 341.012L376.571 349.976L367.616 349.976L367.616 341.012L358.661 341.012L358.661 332.049L367.616 332.049L367.616 341.012L376.571 341.012L376.571 332.049L385.526 332.049L385.526 341.012L394.481 341.012L394.481 332.049L403.436 332.049L403.436 341.012L394.481 341.012L394.481 349.976L385.526 349.976ZM412.418 358.966L412.418 350.003L421.373 350.003L421.373 358.966L412.418 358.966ZM439.31 367.929L439.31 358.966L430.355 358.966L430.355 350.003L439.31 350.003L439.31 358.966L448.265 358.966L448.265 367.929L439.31 367.929ZM448.292 421.763L448.292 412.8L457.247 412.8L457.247 421.763L448.292 421.763ZM475.184 421.763L484.139 421.763L484.139 430.727L475.184 430.727L475.184 421.763ZM457.247 439.717L457.247 430.754L466.202 430.754L466.202 439.717L457.247 439.717ZM466.202 448.708L475.157 448.708L475.157 457.671L466.202 457.671L466.202 448.708ZM457.247 466.634L448.292 466.634L448.292 457.671L457.247 457.671L457.247 466.634L466.202 466.634L466.202 493.551L475.157 493.551L475.157 466.634L484.112 466.634L484.112 457.671L493.067 457.671L493.067 448.708L484.112 448.708L484.112 439.744L493.067 439.744L493.067 412.827L502.022 412.827L502.022 430.781L510.977 430.781L510.977 412.827L519.932 412.827L519.932 403.864L484.058 403.864L484.058 412.827L475.103 412.827L475.103 403.864L484.058 403.864L484.058 394.901L475.103 394.901L475.103 385.937L484.058 385.937L484.058 376.974L493.013 376.974L493.013 368.011L475.076 368.011L475.076 376.974L466.121 376.974L466.121 385.937L457.166 385.937L457.166 376.974L466.121 376.974L466.121 368.011L475.076 368.011L475.076 359.047L493.013 359.047L493.013 350.084L484.058 350.084L484.058 341.121L475.103 341.121L475.103 350.084L466.148 350.084L466.148 359.047L457.193 359.047L457.193 350.084L448.238 350.084L448.238 341.121L457.193 341.121L457.193 350.084L466.148 350.084L466.148 341.121L475.103 341.121L475.103 332.157L466.148 332.157L466.148 323.194L475.103 323.194L475.103 332.157L484.058 332.157L484.058 323.194L510.95 323.194L510.95 314.231L493.013 314.231L493.013 305.267L510.95 305.267L510.95 296.304L501.995 296.304L501.995 287.341L510.95 287.341L510.95 296.304L519.905 296.304L519.905 305.267L528.86 305.267L528.86 296.304L537.815 296.304L537.815 287.341L555.752 287.341L555.752 296.304L537.815 296.304L537.815 305.267L528.86 305.267L528.86 314.231L546.797 314.231L546.797 305.267L564.735 305.267L564.735 314.231L573.69 314.231L573.69 323.194L564.735 323.194L564.735 314.231L546.797 314.231L546.797 323.194L555.752 323.194L555.752 332.157L564.708 332.157L564.708 341.121L555.752 341.121L555.752 350.084L573.69 350.084L573.69 359.047L582.645 359.047L582.645 368.011L591.6 368.011L591.6 376.974L582.645 376.974L582.645 368.011L573.69 368.011L573.69 385.964L591.627 385.964L591.627 394.928L600.582 394.928L600.582 412.881L609.537 412.881L609.537 421.845L600.582 421.845L600.582 412.881L591.627 412.881L591.627 421.845L582.672 421.845L582.672 430.808L600.609 430.808L600.609 439.771L591.654 439.771L591.654 448.735L600.609 448.735L600.609 457.698L591.654 457.698L591.654 466.661L600.609 466.661L600.609 475.625L582.672 475.625L582.672 484.588L600.609 484.588L600.609 493.551L573.717 493.551L573.717 502.515L591.654 502.515L591.654 511.478L573.717 511.478L573.717 520.441L555.78 520.441L555.78 529.404L573.717 529.404L573.717 538.368L555.78 538.368L555.78 547.331L564.735 547.331L564.735 556.294L555.78 556.294L555.78 565.258L546.824 565.258L546.824 556.294L537.869 556.294L537.869 565.258L519.932 565.258L519.932 574.221L510.977 574.221L510.977 565.258L502.022 565.258L502.022 574.221L493.067 574.221L493.067 565.258L484.112 565.258L484.112 574.221L475.157 574.221L475.157 565.258L484.112 565.258L484.112 556.294L475.157 556.294L475.157 547.331L466.202 547.331L466.202 556.294L457.247 556.294L457.247 547.331L439.31 547.331L439.31 538.368L457.247 538.368L457.247 547.331L466.202 547.331L466.202 538.368L475.157 538.368L475.157 529.404L484.112 529.404L484.112 538.368L493.067 538.368L493.067 520.414L466.175 520.414L466.175 529.377L457.22 529.377L457.22 520.414L466.175 520.414L466.175 511.451L448.238 511.451L448.238 529.404L439.283 529.404L439.283 520.441L430.328 520.441L430.328 529.404L421.373 529.404L421.373 538.368L412.418 538.368L412.418 529.404L421.373 529.404L421.373 520.441L412.418 520.441L412.418 511.478L421.373 511.478L421.373 520.441L430.328 520.441L430.328 502.487L439.283 502.487L439.283 493.524L430.328 493.524L430.328 484.561L439.283 484.561L439.283 493.524L448.238 493.524L448.238 484.561L457.193 484.561L457.193 466.607L457.247 466.634ZM403.463 556.376L412.418 556.376L412.418 565.339L403.463 565.339L403.463 556.376L394.508 556.376L394.508 547.412L403.463 547.412L403.463 556.376ZM421.373 547.412L430.328 547.412L430.328 556.376L421.373 556.376L421.373 547.412ZM403.463 538.422L394.508 538.422L394.508 529.459L403.463 529.459L403.463 538.422ZM268.975 484.588L268.975 475.625L277.93 475.625L277.93 484.588L268.975 484.588ZM295.867 493.578L295.867 484.615L286.912 484.615L286.912 475.652L295.867 475.652L295.867 484.615L304.822 484.615L304.822 493.578L295.867 493.578ZM322.76 493.578L331.715 493.578L331.715 502.542L322.76 502.542L322.76 493.578ZM313.805 511.505L304.85 511.505L304.85 502.542L313.805 502.542L313.805 511.505ZM277.93 520.495L277.93 511.532L286.885 511.532L286.885 502.569L295.84 502.569L295.84 511.532L286.885 511.532L286.885 520.495L277.93 520.495ZM295.867 538.422L295.867 529.459L304.822 529.459L304.822 520.495L313.778 520.495L313.778 529.459L304.822 529.459L304.822 538.422L295.867 538.422ZM295.867 556.376L295.867 547.412L304.822 547.412L304.822 556.376L295.867 556.376ZM313.805 565.366L313.805 556.403L322.76 556.403L322.76 565.366L313.805 565.366ZM277.93 610.237L277.93 601.274L286.885 601.274L286.885 610.237L277.93 610.237ZM295.867 619.2L295.867 610.237L304.822 610.237L304.822 619.2L295.867 619.2ZM367.589 619.2L367.589 610.237L376.544 610.237L376.544 601.273L358.607 601.273L358.607 610.237L349.652 610.237L349.652 601.273L358.607 601.273L358.607 592.31L340.67 592.31L340.67 583.347L331.715 583.347L331.715 565.393L340.67 565.393L340.67 556.43L331.715 556.43L331.715 538.476L322.76 538.476L322.76 529.513L331.715 529.513L331.715 520.549L322.76 520.549L322.76 511.586L331.715 511.586L331.715 520.549L340.67 520.549L340.67 502.596L349.625 502.596L349.625 520.549L358.58 520.549L358.58 502.596L367.535 502.596L367.535 520.549L385.472 520.549L385.472 529.513L367.535 529.513L367.535 538.476L385.472 538.476L385.472 547.439L367.535 547.439L367.535 538.476L358.58 538.476L358.58 556.43L385.472 556.43L385.472 565.393L358.58 565.393L358.58 574.356L385.472 574.356L385.472 583.32L358.58 583.32L358.58 592.283L376.517 592.283L376.517 601.246L385.472 601.246L385.472 610.21L376.517 610.21L376.517 619.173L367.562 619.173L367.589 619.2ZM484.139 619.2L493.094 619.2L493.094 628.163L484.139 628.163L484.139 619.2ZM313.805 637.154L313.805 628.191L322.76 628.191L322.76 637.154L313.805 637.154ZM331.715 637.154L331.715 628.191L340.67 628.191L340.67 637.154L331.715 637.154ZM394.481 637.154L394.481 628.191L403.436 628.191L403.436 637.154L394.481 637.154ZM466.202 646.117L466.202 637.154L475.157 637.154L475.157 646.117L466.202 646.117ZM484.139 646.117L484.139 637.154L493.094 637.154L493.094 646.117L484.139 646.117Z" fill="#5564ED"/>
<path fill-rule="evenodd" clip-rule="evenodd" d="M188.272 412.8L206.209 412.8L206.209 403.837L188.272 403.837L188.272 412.8Z" fill="#5564ED"/>
<path fill-rule="evenodd" clip-rule="evenodd" d="M188.272 394.846L197.227 394.846L197.227 385.883L188.272 385.883L188.272 394.846Z" fill="#5564ED"/>
<path fill-rule="evenodd" clip-rule="evenodd" d="M215.164 143.576L224.119 143.576L224.119 134.612L233.074 134.612L233.074 125.649L242.029 125.649L242.029 134.612L250.984 134.612L250.984 116.659L242.029 116.659L242.029 98.7048L233.074 98.7048L233.074 116.659L224.119 116.659L224.119 125.622L215.164 125.622L215.164 134.585L206.209 134.585L206.209 143.548L188.272 143.548L188.272 152.512L215.164 152.512L215.164 143.548L215.164 143.576Z" fill="#5564ED"/>
<path fill-rule="evenodd" clip-rule="evenodd" d="M206.209 843.554L197.254 843.554L197.254 861.507L206.209 861.507L206.209 843.554Z" fill="#5564ED"/>
<path fill-rule="evenodd" clip-rule="evenodd" d="M206.209 834.564L206.209 825.6L197.254 825.6L197.254 834.564L206.209 834.564Z" fill="#5564ED"/>
<path fill-rule="evenodd" clip-rule="evenodd" d="M206.209 816.637L206.209 807.673L197.254 807.673L197.254 816.637L206.209 816.637Z" fill="#5564ED"/>
<path fill-rule="evenodd" clip-rule="evenodd" d="M206.209 798.683L206.209 789.72L197.254 789.72L197.254 798.683L206.209 798.683Z" fill="#5564ED"/>
<path fill-rule="evenodd" clip-rule="evenodd" d="M206.209 771.766L206.209 762.803L197.254 762.803L197.254 771.766L206.209 771.766Z" fill="#5564ED"/>
<path fill-rule="evenodd" clip-rule="evenodd" d="M197.254 735.859L197.254 744.822L206.209 744.822L206.209 735.859L197.254 735.859Z" fill="#5564ED"/>
<path fill-rule="evenodd" clip-rule="evenodd" d="M206.209 376.893L197.254 376.893L197.254 385.856L206.209 385.856L206.209 376.893Z" fill="#5564ED"/>
<path fill-rule="evenodd" clip-rule="evenodd" d="M206.209 287.178L206.209 278.215L197.254 278.215L197.254 287.178L206.209 287.178Z" fill="#5564ED"/>
<path fill-rule="evenodd" clip-rule="evenodd" d="M206.209 206.4L206.209 197.437L197.254 197.437L197.254 206.4L206.209 206.4Z" fill="#5564ED"/>
<path fill-rule="evenodd" clip-rule="evenodd" d="M215.164 861.507L206.209 861.507L206.209 870.471L215.164 870.471L215.164 861.507Z" fill="#5564ED"/>
<path fill-rule="evenodd" clip-rule="evenodd" d="M224.146 843.554L224.146 834.59L206.209 834.59L206.209 843.554L224.146 843.554Z" fill="#5564ED"/>
<path fill-rule="evenodd" clip-rule="evenodd" d="M224.146 825.6L224.146 816.637L206.209 816.637L206.209 825.6L224.146 825.6Z" fill="#5564ED"/>
<path fill-rule="evenodd" clip-rule="evenodd" d="M215.164 780.729L206.209 780.729L206.209 789.692L215.164 789.692L215.164 780.729Z" fill="#5564ED"/>
<path fill-rule="evenodd" clip-rule="evenodd" d="M206.209 394.846L206.209 403.81L215.164 403.81L215.164 394.846L206.209 394.846Z" fill="#5564ED"/>
<path fill-rule="evenodd" clip-rule="evenodd" d="M215.164 251.271L215.164 242.307L206.209 242.307L206.209 251.271L215.164 251.271Z" fill="#5564ED"/>
<path fill-rule="evenodd" clip-rule="evenodd" d="M215.164 188.446L215.164 179.483L206.209 179.483L206.209 188.446L215.164 188.446Z" fill="#5564ED"/>
<path fill-rule="evenodd" clip-rule="evenodd" d="M206.209 116.659L206.209 125.622L215.164 125.622L215.164 116.659L206.209 116.659Z" fill="#5564ED"/>
<path fill-rule="evenodd" clip-rule="evenodd" d="M224.146 870.471L215.191 870.471L215.191 879.434L224.146 879.434L224.146 870.471Z" fill="#5564ED"/>
<path fill-rule="evenodd" clip-rule="evenodd" d="M224.146 852.517L215.191 852.517L215.191 861.481L224.146 861.481L224.146 852.517Z" fill="#5564ED"/>
<path fill-rule="evenodd" clip-rule="evenodd" d="M233.101 807.647L233.101 798.683L215.164 798.683L215.164 807.647L233.101 807.647Z" fill="#5564ED"/>
<path fill-rule="evenodd" clip-rule="evenodd" d="M224.146 771.766L215.191 771.766L215.191 780.729L224.146 780.729L224.146 771.766Z" fill="#5564ED"/>
<path fill-rule="evenodd" clip-rule="evenodd" d="M224.146 753.812L224.146 744.849L215.191 744.849L215.191 753.812L224.146 753.812Z" fill="#5564ED"/>
<path fill-rule="evenodd" clip-rule="evenodd" d="M224.146 215.363L224.146 206.4L215.191 206.4L215.191 215.363L224.146 215.363Z" fill="#5564ED"/>
<path fill-rule="evenodd" clip-rule="evenodd" d="M224.147 879.434L224.147 888.398L233.102 888.398L233.102 879.434L224.147 879.434Z" fill="#5564ED"/>
<path fill-rule="evenodd" clip-rule="evenodd" d="M233.102 861.507L224.147 861.507L224.147 870.471L233.102 870.471L233.102 861.507Z" fill="#5564ED"/>
<path fill-rule="evenodd" clip-rule="evenodd" d="M233.102 852.517L233.102 843.554L224.147 843.554L224.147 852.517L233.102 852.517Z" fill="#5564ED"/>
<path fill-rule="evenodd" clip-rule="evenodd" d="M233.102 834.564L233.102 825.6L224.147 825.6L224.147 834.564L233.102 834.564Z" fill="#5564ED"/>
<path fill-rule="evenodd" clip-rule="evenodd" d="M233.102 188.446L233.102 179.483L224.147 179.483L224.147 188.446L233.102 188.446Z" fill="#5564ED"/>
<path fill-rule="evenodd" clip-rule="evenodd" d="M233.102 170.493L233.102 161.529L224.147 161.529L224.147 170.493L233.102 170.493Z" fill="#5564ED"/>
<path fill-rule="evenodd" clip-rule="evenodd" d="M224.147 152.566L233.102 152.566L233.102 143.603L224.147 143.603L224.147 152.566Z" fill="#5564ED"/>
<path fill-rule="evenodd" clip-rule="evenodd" d="M233.102 969.175L242.057 969.175L242.057 960.212L233.102 960.212L233.102 969.175Z" fill="#5564ED"/>
<path fill-rule="evenodd" clip-rule="evenodd" d="M233.102 870.471L233.102 879.434L242.057 879.434L242.057 870.471L233.102 870.471Z" fill="#5564ED"/>
<path fill-rule="evenodd" clip-rule="evenodd" d="M242.083 861.507L242.083 852.544L233.128 852.544L233.128 861.507L242.083 861.507Z" fill="#5564ED"/>
<path fill-rule="evenodd" clip-rule="evenodd" d="M242.083 843.554L242.083 834.59L233.128 834.59L233.128 843.554L242.083 843.554Z" fill="#5564ED"/>
<path fill-rule="evenodd" clip-rule="evenodd" d="M242.083 816.637L233.128 816.637L233.128 825.6L242.083 825.6L242.083 816.637Z" fill="#5564ED"/>
<path fill-rule="evenodd" clip-rule="evenodd" d="M242.083 789.692L242.083 780.729L233.128 780.729L233.128 789.692L242.083 789.692Z" fill="#5564ED"/>
<path fill-rule="evenodd" clip-rule="evenodd" d="M242.083 762.775L242.083 753.812L233.128 753.812L233.128 762.775L242.083 762.775Z" fill="#5564ED"/>
<path fill-rule="evenodd" clip-rule="evenodd" d="M233.102 574.329L233.102 583.293L242.057 583.293L242.057 574.329L233.102 574.329Z" fill="#5564ED"/>
<path fill-rule="evenodd" clip-rule="evenodd" d="M242.083 260.234L242.083 251.271L233.128 251.271L233.128 260.234L242.083 260.234Z" fill="#5564ED"/>
<path fill-rule="evenodd" clip-rule="evenodd" d="M233.102 143.576L242.057 143.576L242.057 134.612L233.102 134.612L233.102 143.576Z" fill="#5564ED"/>
<path fill-rule="evenodd" clip-rule="evenodd" d="M242.083 879.434L242.083 888.398L251.038 888.398L251.038 879.434L242.083 879.434Z" fill="#5564ED"/>
<path fill-rule="evenodd" clip-rule="evenodd" d="M251.038 870.471L251.038 861.507L242.083 861.507L242.083 870.471L251.038 870.471Z" fill="#5564ED"/>
<path fill-rule="evenodd" clip-rule="evenodd" d="M251.038 852.517L251.038 843.554L242.083 843.554L242.083 852.517L251.038 852.517Z" fill="#5564ED"/>
<path fill-rule="evenodd" clip-rule="evenodd" d="M259.993 807.646L242.056 807.646L242.056 816.609L259.993 816.609L259.993 807.646Z" fill="#5564ED"/>
<path fill-rule="evenodd" clip-rule="evenodd" d="M251.038 798.683L251.038 789.72L242.083 789.72L242.083 798.683L251.038 798.683Z" fill="#5564ED"/>
<path fill-rule="evenodd" clip-rule="evenodd" d="M251.038 233.317L251.038 224.354L242.083 224.354L242.083 233.317L251.038 233.317Z" fill="#5564ED"/>
<path fill-rule="evenodd" clip-rule="evenodd" d="M251.038 179.483L251.038 170.52L242.083 170.52L242.083 179.483L251.038 179.483Z" fill="#5564ED"/>
<path fill-rule="evenodd" clip-rule="evenodd" d="M251.038 161.529L251.038 152.566L242.083 152.566L242.083 161.529L251.038 161.529Z" fill="#5564ED"/>
<path fill-rule="evenodd" clip-rule="evenodd" d="M251.038 870.471L251.038 879.434L259.993 879.434L259.993 870.471L251.038 870.471Z" fill="#5564ED"/>
<path fill-rule="evenodd" clip-rule="evenodd" d="M259.993 861.507L259.993 852.544L251.038 852.544L251.038 861.507L259.993 861.507Z" fill="#5564ED"/>
<path fill-rule="evenodd" clip-rule="evenodd" d="M251.038 825.6L251.038 834.564L259.993 834.564L259.993 825.6L251.038 825.6Z" fill="#5564ED"/>
<path fill-rule="evenodd" clip-rule="evenodd" d="M259.993 323.059L268.948 323.059L268.948 314.095L251.011 314.095L251.011 332.049L259.966 332.049L259.966 323.086L259.993 323.059Z" fill="#5564ED"/>
<path fill-rule="evenodd" clip-rule="evenodd" d="M259.993 206.4L259.993 197.437L251.038 197.437L251.038 206.4L259.993 206.4Z" fill="#5564ED"/>
<path fill-rule="evenodd" clip-rule="evenodd" d="M251.038 143.576L268.975 143.576L268.975 134.612L251.038 134.612L251.038 143.576Z" fill="#5564ED"/>
<path fill-rule="evenodd" clip-rule="evenodd" d="M259.994 125.622L268.949 125.622L268.949 107.668L259.994 107.668L259.994 98.7051L268.949 98.7051L268.949 107.668L277.904 107.668L277.904 98.7051L322.733 98.7051L322.733 89.7418L304.796 89.7418L304.796 80.7785L322.733 80.7785L322.733 89.7418L331.688 89.7418L331.688 71.788L358.58 71.788L358.58 62.8247L367.535 62.8247L367.535 71.788L376.49 71.788L376.49 53.8343L403.382 53.8343L403.382 62.7976L412.337 62.7976L412.337 44.8439L421.292 44.8439L421.292 53.8072L430.247 53.8072L430.247 44.8439L448.184 44.8439L448.184 35.8806L591.627 35.8806L591.627 44.8439L636.456 44.8439L636.456 53.8072L645.411 53.8072L645.411 44.8439L654.366 44.8439L654.366 53.8072L672.303 53.8072L672.303 44.8439L663.348 44.8439L663.348 35.8806L636.456 35.8806L636.456 26.9173L627.501 26.9173L627.501 35.8806L618.546 35.8806L618.546 26.9173L600.609 26.9173L600.609 17.954L582.672 17.954L582.672 8.99065L573.717 8.99065L573.717 17.954L564.762 17.954L564.762 8.99065L555.807 8.99065L555.807 17.954L546.852 17.954L546.852 0.000235208L537.897 0.000235599L537.897 8.96355L466.175 8.96355L466.175 17.9269L412.391 17.9269L412.391 26.8902L376.517 26.8902L376.517 35.8536L340.643 35.8536L340.643 44.8169L322.706 44.8169L322.706 53.7802L295.814 53.7802L295.814 71.7339L286.859 71.7339L286.859 80.6972L268.922 80.6972L268.922 89.6605L250.984 89.6605L250.984 116.578L259.939 116.578L259.939 125.541L259.994 125.622Z" fill="#5564ED"/>
<path fill-rule="evenodd" clip-rule="evenodd" d="M268.976 879.434L260.021 879.434L260.021 888.398L268.976 888.398L268.976 879.434Z" fill="#5564ED"/>
<path fill-rule="evenodd" clip-rule="evenodd" d="M268.976 870.471L268.976 861.507L260.021 861.507L260.021 870.471L268.976 870.471Z" fill="#5564ED"/>
<path fill-rule="evenodd" clip-rule="evenodd" d="M268.976 843.554L260.021 843.554L260.021 852.517L268.976 852.517L268.976 843.554Z" fill="#5564ED"/>
<path fill-rule="evenodd" clip-rule="evenodd" d="M268.976 798.683L268.976 789.72L260.021 789.72L260.021 798.683L268.976 798.683Z" fill="#5564ED"/>
<path fill-rule="evenodd" clip-rule="evenodd" d="M268.976 771.766L268.976 762.803L260.021 762.803L260.021 771.766L268.976 771.766Z" fill="#5564ED"/>
<path fill-rule="evenodd" clip-rule="evenodd" d="M259.993 170.493L259.993 179.456L268.948 179.456L268.948 170.493L259.993 170.493Z" fill="#5564ED"/>
<path fill-rule="evenodd" clip-rule="evenodd" d="M259.993 152.566L259.993 161.529L268.948 161.529L268.948 152.566L259.993 152.566Z" fill="#5564ED"/>
<path fill-rule="evenodd" clip-rule="evenodd" d="M259.993 71.7877L259.993 80.751L268.948 80.751L268.948 71.7877L259.993 71.7877Z" fill="#5564ED"/>
<path fill-rule="evenodd" clip-rule="evenodd" d="M277.931 888.424L268.976 888.424L268.976 906.378L277.931 906.378L277.931 888.424Z" fill="#5564ED"/>
<path fill-rule="evenodd" clip-rule="evenodd" d="M277.931 879.434L277.931 870.471L268.976 870.471L268.976 879.434L277.931 879.434Z" fill="#5564ED"/>
<path fill-rule="evenodd" clip-rule="evenodd" d="M277.931 861.507L277.931 852.544L268.976 852.544L268.976 861.507L277.931 861.507Z" fill="#5564ED"/>
<path fill-rule="evenodd" clip-rule="evenodd" d="M286.913 834.564L286.913 825.6L268.976 825.6L268.976 834.564L286.913 834.564Z" fill="#5564ED"/>
<path fill-rule="evenodd" clip-rule="evenodd" d="M277.931 816.637L277.931 807.673L268.976 807.673L268.976 816.637L277.931 816.637Z" fill="#5564ED"/>
<path fill-rule="evenodd" clip-rule="evenodd" d="M268.976 646.117L277.931 646.117L277.931 637.154L268.976 637.154L268.976 646.117Z" fill="#5564ED"/>
<path fill-rule="evenodd" clip-rule="evenodd" d="M268.976 134.612L277.931 134.612L277.931 125.649L268.976 125.649L268.976 134.612Z" fill="#5564ED"/>
<path fill-rule="evenodd" clip-rule="evenodd" d="M277.931 906.378L277.931 915.341L286.886 915.341L286.886 906.378L277.931 906.378Z" fill="#5564ED"/>
<path fill-rule="evenodd" clip-rule="evenodd" d="M286.912 888.424L286.912 879.461L277.957 879.461L277.957 888.424L286.912 888.424Z" fill="#5564ED"/>
<path fill-rule="evenodd" clip-rule="evenodd" d="M286.912 843.554L277.957 843.554L277.957 852.517L286.912 852.517L286.912 843.554Z" fill="#5564ED"/>
<path fill-rule="evenodd" clip-rule="evenodd" d="M277.931 780.729L277.931 789.692L286.886 789.692L286.886 780.729L277.931 780.729Z" fill="#5564ED"/>
<path fill-rule="evenodd" clip-rule="evenodd" d="M286.912 394.846L286.912 385.883L277.957 385.883L277.957 394.846L286.912 394.846Z" fill="#5564ED"/>
<path fill-rule="evenodd" clip-rule="evenodd" d="M286.912 287.178L277.957 287.178L277.957 296.142L286.912 296.142L286.912 287.178Z" fill="#5564ED"/>
<path fill-rule="evenodd" clip-rule="evenodd" d="M286.912 224.354L286.912 215.39L277.957 215.39L277.957 224.354L286.912 224.354Z" fill="#5564ED"/>
<path fill-rule="evenodd" clip-rule="evenodd" d="M286.912 197.437L286.912 188.473L277.957 188.473L277.957 197.437L286.912 197.437Z" fill="#5564ED"/>
<path fill-rule="evenodd" clip-rule="evenodd" d="M286.912 161.529L286.912 152.566L277.957 152.566L277.957 161.529L286.912 161.529Z" fill="#5564ED"/>
<path fill-rule="evenodd" clip-rule="evenodd" d="M286.912 143.576L286.912 134.612L277.957 134.612L277.957 143.576L286.912 143.576Z" fill="#5564ED"/>
<path fill-rule="evenodd" clip-rule="evenodd" d="M286.912 125.622L286.912 116.659L304.849 116.659L304.849 107.695L277.957 107.695L277.957 125.649L286.912 125.649L286.912 125.622Z" fill="#5564ED"/>
<path fill-rule="evenodd" clip-rule="evenodd" d="M277.931 62.8243L277.931 71.7876L286.886 71.7876L286.886 62.8243L277.931 62.8243Z" fill="#5564ED"/>
<path fill-rule="evenodd" clip-rule="evenodd" d="M295.867 906.378L295.867 888.424L286.912 888.424L286.912 906.378L295.867 906.378Z" fill="#5564ED"/>
<path fill-rule="evenodd" clip-rule="evenodd" d="M286.912 879.434L295.867 879.434L295.867 870.471L286.912 870.471L286.912 879.434Z" fill="#5564ED"/>
<path fill-rule="evenodd" clip-rule="evenodd" d="M295.867 861.507L295.867 852.544L286.912 852.544L286.912 861.507L295.867 861.507Z" fill="#5564ED"/>
<path fill-rule="evenodd" clip-rule="evenodd" d="M295.867 816.637L286.912 816.637L286.912 825.6L295.867 825.6L295.867 816.637Z" fill="#5564ED"/>
<path fill-rule="evenodd" clip-rule="evenodd" d="M295.867 807.647L295.867 798.683L286.912 798.683L286.912 807.647L295.867 807.647Z" fill="#5564ED"/>
<path fill-rule="evenodd" clip-rule="evenodd" d="M295.867 664.071L295.867 655.108L286.912 655.108L286.912 664.071L295.867 664.071Z" fill="#5564ED"/>
<path fill-rule="evenodd" clip-rule="evenodd" d="M295.867 179.483L295.867 170.52L286.912 170.52L286.912 179.483L295.867 179.483Z" fill="#5564ED"/>
<path fill-rule="evenodd" clip-rule="evenodd" d="M304.822 906.378L295.867 906.378L295.867 915.341L304.822 915.341L304.822 906.378Z" fill="#5564ED"/>
<path fill-rule="evenodd" clip-rule="evenodd" d="M313.804 888.424L313.804 879.461L295.867 879.461L295.867 888.424L313.804 888.424Z" fill="#5564ED"/>
<path fill-rule="evenodd" clip-rule="evenodd" d="M304.822 870.471L304.822 861.507L295.867 861.507L295.867 870.471L304.822 870.471Z" fill="#5564ED"/>
<path fill-rule="evenodd" clip-rule="evenodd" d="M295.867 843.554L304.822 843.554L304.822 834.59L295.867 834.59L295.867 843.554Z" fill="#5564ED"/>
<path fill-rule="evenodd" clip-rule="evenodd" d="M304.822 152.566L304.822 143.603L295.867 143.603L295.867 152.566L304.822 152.566Z" fill="#5564ED"/>
<path fill-rule="evenodd" clip-rule="evenodd" d="M304.822 134.612L304.822 125.649L295.867 125.649L295.867 134.612L304.822 134.612Z" fill="#5564ED"/>
<path fill-rule="evenodd" clip-rule="evenodd" d="M304.822 933.295L313.777 933.295L313.777 915.342L304.822 915.342L304.822 933.295Z" fill="#5564ED"/>
<path fill-rule="evenodd" clip-rule="evenodd" d="M313.805 897.388L304.85 897.388L304.85 906.351L313.805 906.351L313.805 897.388Z" fill="#5564ED"/>
<path fill-rule="evenodd" clip-rule="evenodd" d="M313.805 852.517L304.85 852.517L304.85 861.481L313.805 861.481L313.805 852.517Z" fill="#5564ED"/>
<path fill-rule="evenodd" clip-rule="evenodd" d="M304.822 825.6L304.822 834.564L313.777 834.564L313.777 825.6L304.822 825.6Z" fill="#5564ED"/>
<path fill-rule="evenodd" clip-rule="evenodd" d="M313.805 816.637L313.805 807.673L304.85 807.673L304.85 816.637L313.805 816.637Z" fill="#5564ED"/>
<path fill-rule="evenodd" clip-rule="evenodd" d="M304.822 780.729L304.822 789.692L313.777 789.692L313.777 780.729L304.822 780.729Z" fill="#5564ED"/>
<path fill-rule="evenodd" clip-rule="evenodd" d="M304.822 655.108L304.822 664.071L313.777 664.071L313.777 655.108L304.822 655.108Z" fill="#5564ED"/>
<path fill-rule="evenodd" clip-rule="evenodd" d="M313.805 170.493L313.805 161.529L304.85 161.529L304.85 170.493L313.805 170.493Z" fill="#5564ED"/>
<path fill-rule="evenodd" clip-rule="evenodd" d="M331.714 942.258L331.714 933.295L313.777 933.295L313.777 942.258L331.714 942.258Z" fill="#5564ED"/>
<path fill-rule="evenodd" clip-rule="evenodd" d="M313.805 906.378L313.805 915.341L322.76 915.341L322.76 906.378L313.805 906.378Z" fill="#5564ED"/>
<path fill-rule="evenodd" clip-rule="evenodd" d="M322.76 897.388L322.76 888.424L313.805 888.424L313.805 897.388L322.76 897.388Z" fill="#5564ED"/>
<path fill-rule="evenodd" clip-rule="evenodd" d="M322.76 870.471L322.76 861.507L313.805 861.507L313.805 870.471L322.76 870.471Z" fill="#5564ED"/>
<path fill-rule="evenodd" clip-rule="evenodd" d="M313.805 843.554L322.76 843.554L322.76 834.59L313.805 834.59L313.805 843.554Z" fill="#5564ED"/>
<path fill-rule="evenodd" clip-rule="evenodd" d="M313.805 673.034L322.76 673.034L322.76 664.071L313.805 664.071L313.805 673.034Z" fill="#5564ED"/>
<path fill-rule="evenodd" clip-rule="evenodd" d="M313.805 358.966L322.76 358.966L322.76 350.003L313.805 350.003L313.805 358.966Z" fill="#5564ED"/>
<path fill-rule="evenodd" clip-rule="evenodd" d="M322.76 188.446L322.76 179.483L313.805 179.483L313.805 188.446L322.76 188.446Z" fill="#5564ED"/>
<path fill-rule="evenodd" clip-rule="evenodd" d="M322.76 134.612L322.76 125.649L313.805 125.649L313.805 134.612L322.76 134.612Z" fill="#5564ED"/>
<path fill-rule="evenodd" clip-rule="evenodd" d="M313.805 107.695L313.805 116.659L322.76 116.659L322.76 107.695L313.805 107.695Z" fill="#5564ED"/>
<path fill-rule="evenodd" clip-rule="evenodd" d="M322.76 924.305L349.652 924.305L349.652 915.341L322.76 915.341L322.76 924.305Z" fill="#5564ED"/>
<path fill-rule="evenodd" clip-rule="evenodd" d="M349.652 906.378L349.652 897.415L322.76 897.415L322.76 906.378L349.652 906.378Z" fill="#5564ED"/>
<path fill-rule="evenodd" clip-rule="evenodd" d="M331.715 879.434L322.76 879.434L322.76 888.398L331.715 888.398L331.715 879.434Z" fill="#5564ED"/>
<path fill-rule="evenodd" clip-rule="evenodd" d="M331.715 852.517L322.76 852.517L322.76 861.481L331.715 861.481L331.715 852.517Z" fill="#5564ED"/>
<path fill-rule="evenodd" clip-rule="evenodd" d="M322.76 825.6L322.76 834.564L331.715 834.564L331.715 825.6L322.76 825.6Z" fill="#5564ED"/>
<path fill-rule="evenodd" clip-rule="evenodd" d="M331.715 807.647L331.715 798.683L322.76 798.683L322.76 807.647L331.715 807.647Z" fill="#5564ED"/>
<path fill-rule="evenodd" clip-rule="evenodd" d="M331.715 448.708L322.76 448.708L322.76 457.671L331.715 457.671L331.715 448.708Z" fill="#5564ED"/>
<path fill-rule="evenodd" clip-rule="evenodd" d="M322.76 341.012L322.76 349.976L331.715 349.976L331.715 341.012L322.76 341.012Z" fill="#5564ED"/>
<path fill-rule="evenodd" clip-rule="evenodd" d="M331.715 242.308L331.715 233.344L322.76 233.344L322.76 242.308L331.715 242.308Z" fill="#5564ED"/>
<path fill-rule="evenodd" clip-rule="evenodd" d="M331.715 161.529L331.715 152.566L322.76 152.566L322.76 161.529L331.715 161.529Z" fill="#5564ED"/>
<path fill-rule="evenodd" clip-rule="evenodd" d="M340.696 870.471L331.741 870.471L331.741 879.434L340.696 879.434L340.696 870.471Z" fill="#5564ED"/>
<path fill-rule="evenodd" clip-rule="evenodd" d="M331.715 843.554L340.67 843.554L340.67 834.59L331.715 834.59L331.715 843.554Z" fill="#5564ED"/>
<path fill-rule="evenodd" clip-rule="evenodd" d="M340.696 529.459L331.741 529.459L331.741 538.422L340.696 538.422L340.696 529.459Z" fill="#5564ED"/>
<path fill-rule="evenodd" clip-rule="evenodd" d="M331.715 358.966L349.652 358.966L349.652 350.003L331.715 350.003L331.715 358.966Z" fill="#5564ED"/>
<path fill-rule="evenodd" clip-rule="evenodd" d="M340.696 134.612L340.696 125.649L331.741 125.649L331.741 134.612L340.696 134.612Z" fill="#5564ED"/>
<path fill-rule="evenodd" clip-rule="evenodd" d="M340.696 116.659L340.696 107.695L331.741 107.695L331.741 116.659L340.696 116.659Z" fill="#5564ED"/>
<path fill-rule="evenodd" clip-rule="evenodd" d="M340.696 933.295L340.696 942.258L349.651 942.258L349.651 933.295L340.696 933.295Z" fill="#5564ED"/>
<path fill-rule="evenodd" clip-rule="evenodd" d="M358.633 888.424L358.633 879.461L340.696 879.461L340.696 888.424L358.633 888.424Z" fill="#5564ED"/>
<path fill-rule="evenodd" clip-rule="evenodd" d="M349.651 861.507L349.651 852.544L340.696 852.544L340.696 861.507L349.651 861.507Z" fill="#5564ED"/>
<path fill-rule="evenodd" clip-rule="evenodd" d="M349.651 825.6L340.696 825.6L340.696 834.564L349.651 834.564L349.651 825.6Z" fill="#5564ED"/>
<path fill-rule="evenodd" clip-rule="evenodd" d="M349.651 816.637L349.651 807.673L340.696 807.673L340.696 816.637L349.651 816.637Z" fill="#5564ED"/>
<path fill-rule="evenodd" clip-rule="evenodd" d="M349.651 682.024L349.651 673.061L340.696 673.061L340.696 682.024L349.651 682.024Z" fill="#5564ED"/>
<path fill-rule="evenodd" clip-rule="evenodd" d="M358.634 574.329L349.679 574.329L349.679 565.366L340.724 565.366L340.724 583.32L358.661 583.32L358.661 574.357L358.634 574.329Z" fill="#5564ED"/>
<path fill-rule="evenodd" clip-rule="evenodd" d="M349.651 538.422L340.696 538.422L340.696 556.376L349.651 556.376L349.651 538.422Z" fill="#5564ED"/>
<path fill-rule="evenodd" clip-rule="evenodd" d="M349.651 529.459L349.651 520.495L340.696 520.495L340.696 529.459L349.651 529.459Z" fill="#5564ED"/>
<path fill-rule="evenodd" clip-rule="evenodd" d="M349.651 233.317L349.651 224.354L340.696 224.354L340.696 233.317L349.651 233.317Z" fill="#5564ED"/>
<path fill-rule="evenodd" clip-rule="evenodd" d="M349.651 179.483L349.651 170.52L340.696 170.52L340.696 179.483L349.651 179.483Z" fill="#5564ED"/>
<path fill-rule="evenodd" clip-rule="evenodd" d="M340.696 143.576L340.696 152.539L349.651 152.539L349.651 143.576L340.696 143.576Z" fill="#5564ED"/>
<path fill-rule="evenodd" clip-rule="evenodd" d="M349.651 98.7047L340.696 98.7047L340.696 107.668L349.651 107.668L349.651 98.7047Z" fill="#5564ED"/>
<path fill-rule="evenodd" clip-rule="evenodd" d="M349.651 89.7413L349.651 80.7779L340.696 80.7779L340.696 89.7413L349.651 89.7413Z" fill="#5564ED"/>
<path fill-rule="evenodd" clip-rule="evenodd" d="M349.651 942.258L349.651 951.222L358.606 951.222L358.606 942.258L349.651 942.258Z" fill="#5564ED"/>
<path fill-rule="evenodd" clip-rule="evenodd" d="M385.526 915.341L385.526 906.378L349.651 906.378L349.651 915.341L385.526 915.341Z" fill="#5564ED"/>
<path fill-rule="evenodd" clip-rule="evenodd" d="M358.634 870.471L358.634 861.507L349.679 861.507L349.679 870.471L358.634 870.471Z" fill="#5564ED"/>
<path fill-rule="evenodd" clip-rule="evenodd" d="M358.634 843.554L358.634 834.59L349.679 834.59L349.679 843.554L358.634 843.554Z" fill="#5564ED"/>
<path fill-rule="evenodd" clip-rule="evenodd" d="M349.651 565.366L358.606 565.366L358.606 556.402L349.651 556.402L349.651 565.366Z" fill="#5564ED"/>
<path fill-rule="evenodd" clip-rule="evenodd" d="M349.651 529.459L349.651 538.422L358.606 538.422L358.606 529.459L349.651 529.459Z" fill="#5564ED"/>
<path fill-rule="evenodd" clip-rule="evenodd" d="M358.634 385.883L349.679 385.883L349.679 394.846L358.634 394.846L358.634 385.883Z" fill="#5564ED"/>
<path fill-rule="evenodd" clip-rule="evenodd" d="M349.651 367.929L349.651 376.893L358.606 376.893L358.606 367.929L349.651 367.929Z" fill="#5564ED"/>
<path fill-rule="evenodd" clip-rule="evenodd" d="M358.634 161.529L358.634 152.566L349.679 152.566L349.679 161.529L358.634 161.529Z" fill="#5564ED"/>
<path fill-rule="evenodd" clip-rule="evenodd" d="M358.634 924.305L358.634 933.268L367.589 933.268L367.589 924.305L358.634 924.305Z" fill="#5564ED"/>
<path fill-rule="evenodd" clip-rule="evenodd" d="M367.589 897.388L367.589 888.424L358.634 888.424L358.634 897.388L367.589 897.388Z" fill="#5564ED"/>
<path fill-rule="evenodd" clip-rule="evenodd" d="M367.589 852.517L367.589 843.554L358.634 843.554L358.634 852.517L367.589 852.517Z" fill="#5564ED"/>
<path fill-rule="evenodd" clip-rule="evenodd" d="M367.589 807.647L367.589 798.683L358.634 798.683L358.634 807.647L367.589 807.647Z" fill="#5564ED"/>
<path fill-rule="evenodd" clip-rule="evenodd" d="M367.589 529.459L367.589 520.495L358.634 520.495L358.634 529.459L367.589 529.459Z" fill="#5564ED"/>
<path fill-rule="evenodd" clip-rule="evenodd" d="M376.544 376.893L358.606 376.893L358.606 385.856L376.544 385.856L376.544 376.893Z" fill="#5564ED"/>
<path fill-rule="evenodd" clip-rule="evenodd" d="M367.589 143.576L367.589 134.612L358.634 134.612L358.634 143.576L367.589 143.576Z" fill="#5564ED"/>
<path fill-rule="evenodd" clip-rule="evenodd" d="M367.589 116.659L367.589 107.695L358.634 107.695L358.634 116.659L367.589 116.659Z" fill="#5564ED"/>
<path fill-rule="evenodd" clip-rule="evenodd" d="M367.589 89.7413L367.589 80.7779L358.634 80.7779L358.634 89.7413L367.589 89.7413Z" fill="#5564ED"/>
<path fill-rule="evenodd" clip-rule="evenodd" d="M376.544 960.212L376.544 951.249L367.589 951.249L367.589 960.212L376.544 960.212Z" fill="#5564ED"/>
<path fill-rule="evenodd" clip-rule="evenodd" d="M367.589 942.258L376.544 942.258L376.544 933.295L367.589 933.295L367.589 942.258Z" fill="#5564ED"/>
<path fill-rule="evenodd" clip-rule="evenodd" d="M385.526 879.434L385.526 870.471L367.589 870.471L367.589 879.434L385.526 879.434Z" fill="#5564ED"/>
<path fill-rule="evenodd" clip-rule="evenodd" d="M376.544 861.507L376.544 852.544L367.589 852.544L367.589 861.507L376.544 861.507Z" fill="#5564ED"/>
<path fill-rule="evenodd" clip-rule="evenodd" d="M367.589 834.564L376.544 834.564L376.544 825.6L367.589 825.6L367.589 834.564Z" fill="#5564ED"/>
<path fill-rule="evenodd" clip-rule="evenodd" d="M403.463 664.071L394.508 664.071L394.508 655.107L367.616 655.107L367.616 673.061L376.571 673.061L376.571 664.098L385.526 664.098L385.526 673.061L412.418 673.061L412.418 655.107L403.463 655.107L403.463 664.071Z" fill="#5564ED"/>
<path fill-rule="evenodd" clip-rule="evenodd" d="M367.589 215.363L367.589 224.327L376.544 224.327L376.544 215.363L367.589 215.363Z" fill="#5564ED"/>
<path fill-rule="evenodd" clip-rule="evenodd" d="M376.544 170.493L376.544 161.529L367.589 161.529L367.589 170.493L376.544 170.493Z" fill="#5564ED"/>
<path fill-rule="evenodd" clip-rule="evenodd" d="M376.544 125.622L376.544 116.659L367.589 116.659L367.589 125.622L376.544 125.622Z" fill="#5564ED"/>
<path fill-rule="evenodd" clip-rule="evenodd" d="M376.544 933.295L385.499 933.295L385.499 924.332L376.544 924.332L376.544 933.295Z" fill="#5564ED"/>
<path fill-rule="evenodd" clip-rule="evenodd" d="M394.481 897.388L394.481 888.424L376.544 888.424L376.544 897.388L394.481 897.388Z" fill="#5564ED"/>
<path fill-rule="evenodd" clip-rule="evenodd" d="M385.526 843.554L376.571 843.554L376.571 852.517L385.526 852.517L385.526 843.554Z" fill="#5564ED"/>
<path fill-rule="evenodd" clip-rule="evenodd" d="M385.526 816.637L376.571 816.637L376.571 825.6L385.526 825.6L385.526 816.637Z" fill="#5564ED"/>
<path fill-rule="evenodd" clip-rule="evenodd" d="M376.544 394.846L385.499 394.846L385.499 385.883L376.544 385.883L376.544 394.846Z" fill="#5564ED"/>
<path fill-rule="evenodd" clip-rule="evenodd" d="M385.526 367.929L376.571 367.929L376.571 376.893L385.526 376.893L385.526 367.929Z" fill="#5564ED"/>
<path fill-rule="evenodd" clip-rule="evenodd" d="M376.544 134.612L376.544 143.576L385.499 143.576L385.499 134.612L376.544 134.612Z" fill="#5564ED"/>
<path fill-rule="evenodd" clip-rule="evenodd" d="M376.544 89.7418L376.544 98.7051L385.499 98.7051L385.499 89.7418L376.544 89.7418Z" fill="#5564ED"/>
<path fill-rule="evenodd" clip-rule="evenodd" d="M394.48 960.212L385.525 960.212L385.525 969.175L394.48 969.175L394.48 960.212Z" fill="#5564ED"/>
<path fill-rule="evenodd" clip-rule="evenodd" d="M394.48 951.222L394.48 942.258L385.525 942.258L385.525 951.222L394.48 951.222Z" fill="#5564ED"/>
<path fill-rule="evenodd" clip-rule="evenodd" d="M403.463 924.305L403.463 915.341L385.525 915.341L385.525 924.305L403.463 924.305Z" fill="#5564ED"/>
<path fill-rule="evenodd" clip-rule="evenodd" d="M394.48 861.507L394.48 852.544L385.525 852.544L385.525 861.507L394.48 861.507Z" fill="#5564ED"/>
<path fill-rule="evenodd" clip-rule="evenodd" d="M394.48 834.564L394.48 825.6L385.525 825.6L385.525 834.564L394.48 834.564Z" fill="#5564ED"/>
<path fill-rule="evenodd" clip-rule="evenodd" d="M385.525 170.493L394.48 170.493L394.48 161.529L385.525 161.529L385.525 170.493Z" fill="#5564ED"/>
<path fill-rule="evenodd" clip-rule="evenodd" d="M385.525 116.659L385.525 125.622L394.48 125.622L394.48 116.659L385.525 116.659Z" fill="#5564ED"/>
<path fill-rule="evenodd" clip-rule="evenodd" d="M412.418 906.378L412.418 897.415L394.481 897.415L394.481 906.378L412.418 906.378Z" fill="#5564ED"/>
<path fill-rule="evenodd" clip-rule="evenodd" d="M403.463 879.434L403.463 870.471L394.508 870.471L394.508 879.434L403.463 879.434Z" fill="#5564ED"/>
<path fill-rule="evenodd" clip-rule="evenodd" d="M403.463 843.554L394.508 843.554L394.508 852.517L403.463 852.517L403.463 843.554Z" fill="#5564ED"/>
<path fill-rule="evenodd" clip-rule="evenodd" d="M403.463 215.363L394.508 215.363L394.508 224.327L403.463 224.327L403.463 215.363Z" fill="#5564ED"/>
<path fill-rule="evenodd" clip-rule="evenodd" d="M403.463 161.529L403.463 152.566L394.508 152.566L394.508 161.529L403.463 161.529Z" fill="#5564ED"/>
<path fill-rule="evenodd" clip-rule="evenodd" d="M394.481 134.612L394.481 143.576L403.436 143.576L403.436 134.612L394.481 134.612Z" fill="#5564ED"/>
<path fill-rule="evenodd" clip-rule="evenodd" d="M394.481 98.7047L394.481 107.668L403.436 107.668L403.436 98.7047L394.481 98.7047Z" fill="#5564ED"/>
<path fill-rule="evenodd" clip-rule="evenodd" d="M403.463 80.7784L403.463 71.8151L394.508 71.8151L394.508 80.7784L403.463 80.7784Z" fill="#5564ED"/>
<path fill-rule="evenodd" clip-rule="evenodd" d="M412.418 969.175L412.418 960.212L403.463 960.212L403.463 969.175L412.418 969.175Z" fill="#5564ED"/>
<path fill-rule="evenodd" clip-rule="evenodd" d="M403.463 942.258L403.463 951.222L412.418 951.222L412.418 942.258L403.463 942.258Z" fill="#5564ED"/>
<path fill-rule="evenodd" clip-rule="evenodd" d="M412.418 933.295L412.418 924.332L403.463 924.332L403.463 933.295L412.418 933.295Z" fill="#5564ED"/>
<path fill-rule="evenodd" clip-rule="evenodd" d="M412.418 888.424L412.418 879.461L403.463 879.461L403.463 888.424L412.418 888.424Z" fill="#5564ED"/>
<path fill-rule="evenodd" clip-rule="evenodd" d="M412.418 861.507L412.418 852.544L403.463 852.544L403.463 861.507L412.418 861.507Z" fill="#5564ED"/>
<path fill-rule="evenodd" clip-rule="evenodd" d="M412.418 834.564L412.418 825.6L403.463 825.6L403.463 834.564L412.418 834.564Z" fill="#5564ED"/>
<path fill-rule="evenodd" clip-rule="evenodd" d="M403.463 798.683L403.463 807.647L412.418 807.647L412.418 798.683L403.463 798.683Z" fill="#5564ED"/>
<path fill-rule="evenodd" clip-rule="evenodd" d="M412.418 125.622L412.418 116.659L403.463 116.659L403.463 125.622L412.418 125.622Z" fill="#5564ED"/>
<path fill-rule="evenodd" clip-rule="evenodd" d="M421.373 915.341L421.373 906.378L412.418 906.378L412.418 915.341L421.373 915.341Z" fill="#5564ED"/>
<path fill-rule="evenodd" clip-rule="evenodd" d="M421.373 870.471L412.418 870.471L412.418 879.434L421.373 879.434L421.373 870.471Z" fill="#5564ED"/>
<path fill-rule="evenodd" clip-rule="evenodd" d="M421.373 843.554L412.418 843.554L412.418 852.517L421.373 852.517L421.373 843.554Z" fill="#5564ED"/>
<path fill-rule="evenodd" clip-rule="evenodd" d="M421.373 690.988L421.373 682.025L412.418 682.025L412.418 690.988L421.373 690.988Z" fill="#5564ED"/>
<path fill-rule="evenodd" clip-rule="evenodd" d="M421.373 161.529L421.373 152.566L412.418 152.566L412.418 161.529L421.373 161.529Z" fill="#5564ED"/>
<path fill-rule="evenodd" clip-rule="evenodd" d="M421.373 107.695L412.418 107.695L412.418 116.659L421.373 116.659L421.373 107.695Z" fill="#5564ED"/>
<path fill-rule="evenodd" clip-rule="evenodd" d="M412.418 89.7418L412.418 98.7051L421.373 98.7051L421.373 89.7418L412.418 89.7418Z" fill="#5564ED"/>
<path fill-rule="evenodd" clip-rule="evenodd" d="M430.355 960.212L430.355 951.249L421.4 951.249L421.4 960.212L430.355 960.212Z" fill="#5564ED"/>
<path fill-rule="evenodd" clip-rule="evenodd" d="M421.373 933.295L421.373 942.258L430.328 942.258L430.328 933.295L421.373 933.295Z" fill="#5564ED"/>
<path fill-rule="evenodd" clip-rule="evenodd" d="M448.293 924.305L448.293 915.341L421.4 915.341L421.4 924.305L448.293 924.305Z" fill="#5564ED"/>
<path fill-rule="evenodd" clip-rule="evenodd" d="M421.373 888.424L421.373 897.388L430.328 897.388L430.328 888.424L421.373 888.424Z" fill="#5564ED"/>
<path fill-rule="evenodd" clip-rule="evenodd" d="M430.355 861.507L430.355 852.544L421.4 852.544L421.4 861.507L430.355 861.507Z" fill="#5564ED"/>
<path fill-rule="evenodd" clip-rule="evenodd" d="M430.355 834.564L430.355 825.6L421.4 825.6L421.4 834.564L430.355 834.564Z" fill="#5564ED"/>
<path fill-rule="evenodd" clip-rule="evenodd" d="M421.373 134.612L421.373 143.576L430.328 143.576L430.328 134.612L421.373 134.612Z" fill="#5564ED"/>
<path fill-rule="evenodd" clip-rule="evenodd" d="M430.356 969.175L430.356 978.139L439.311 978.139L439.311 969.175L430.356 969.175Z" fill="#5564ED"/>
<path fill-rule="evenodd" clip-rule="evenodd" d="M430.356 906.378L439.311 906.378L439.311 897.415L430.356 897.415L430.356 906.378Z" fill="#5564ED"/>
<path fill-rule="evenodd" clip-rule="evenodd" d="M430.356 870.471L430.356 879.434L448.293 879.434L448.293 870.471L430.356 870.471Z" fill="#5564ED"/>
<path fill-rule="evenodd" clip-rule="evenodd" d="M439.311 843.554L430.356 843.554L430.356 852.517L439.311 852.517L439.311 843.554Z" fill="#5564ED"/>
<path fill-rule="evenodd" clip-rule="evenodd" d="M439.311 816.637L430.356 816.637L430.356 825.6L439.311 825.6L439.311 816.637Z" fill="#5564ED"/>
<path fill-rule="evenodd" clip-rule="evenodd" d="M439.311 682.024L439.311 673.061L430.356 673.061L430.356 682.024L439.311 682.024Z" fill="#5564ED"/>
<path fill-rule="evenodd" clip-rule="evenodd" d="M430.356 161.529L430.356 170.493L439.311 170.493L439.311 161.529L430.356 161.529Z" fill="#5564ED"/>
<path fill-rule="evenodd" clip-rule="evenodd" d="M439.311 125.622L439.311 116.659L430.356 116.659L430.356 125.622L439.311 125.622Z" fill="#5564ED"/>
<path fill-rule="evenodd" clip-rule="evenodd" d="M439.311 107.695L439.311 98.732L430.356 98.732L430.356 107.695L439.311 107.695Z" fill="#5564ED"/>
<path fill-rule="evenodd" clip-rule="evenodd" d="M430.356 71.7877L430.356 80.751L439.311 80.751L439.311 71.7877L430.356 71.7877Z" fill="#5564ED"/>
<path fill-rule="evenodd" clip-rule="evenodd" d="M439.311 951.222L439.311 960.185L448.266 960.185L448.266 951.222L439.311 951.222Z" fill="#5564ED"/>
<path fill-rule="evenodd" clip-rule="evenodd" d="M439.311 933.295L439.311 942.258L448.266 942.258L448.266 933.295L439.311 933.295Z" fill="#5564ED"/>
<path fill-rule="evenodd" clip-rule="evenodd" d="M439.311 888.424L439.311 897.388L448.266 897.388L448.266 888.424L439.311 888.424Z" fill="#5564ED"/>
<path fill-rule="evenodd" clip-rule="evenodd" d="M448.292 861.507L448.292 852.544L439.337 852.544L439.337 861.507L448.292 861.507Z" fill="#5564ED"/>
<path fill-rule="evenodd" clip-rule="evenodd" d="M439.311 502.542L439.311 511.505L448.266 511.505L448.266 502.542L439.311 502.542Z" fill="#5564ED"/>
<path fill-rule="evenodd" clip-rule="evenodd" d="M439.311 134.612L439.311 143.576L448.266 143.576L448.266 134.612L439.311 134.612Z" fill="#5564ED"/>
<path fill-rule="evenodd" clip-rule="evenodd" d="M448.292 897.388L448.292 906.351L457.247 906.351L457.247 897.388L448.292 897.388Z" fill="#5564ED"/>
<path fill-rule="evenodd" clip-rule="evenodd" d="M457.247 843.554L448.292 843.554L448.292 852.517L457.247 852.517L457.247 843.554Z" fill="#5564ED"/>
<path fill-rule="evenodd" clip-rule="evenodd" d="M457.247 834.564L457.247 825.6L448.292 825.6L448.292 834.564L457.247 834.564Z" fill="#5564ED"/>
<path fill-rule="evenodd" clip-rule="evenodd" d="M448.292 664.071L448.292 673.034L457.247 673.034L457.247 664.071L448.292 664.071Z" fill="#5564ED"/>
<path fill-rule="evenodd" clip-rule="evenodd" d="M448.292 107.695L448.292 116.659L457.247 116.659L457.247 107.695L448.292 107.695Z" fill="#5564ED"/>
<path fill-rule="evenodd" clip-rule="evenodd" d="M448.292 89.7418L448.292 98.7051L457.247 98.7051L457.247 89.7418L448.292 89.7418Z" fill="#5564ED"/>
<path fill-rule="evenodd" clip-rule="evenodd" d="M457.247 53.834L457.247 44.8707L448.292 44.8707L448.292 53.834L457.247 53.834Z" fill="#5564ED"/>
<path fill-rule="evenodd" clip-rule="evenodd" d="M466.202 978.166L466.202 969.203L457.247 969.203L457.247 978.166L466.202 978.166Z" fill="#5564ED"/>
<path fill-rule="evenodd" clip-rule="evenodd" d="M457.247 951.222L457.247 960.185L466.202 960.185L466.202 951.222L457.247 951.222Z" fill="#5564ED"/>
<path fill-rule="evenodd" clip-rule="evenodd" d="M457.247 942.258L466.202 942.258L466.202 933.295L457.247 933.295L457.247 942.258Z" fill="#5564ED"/>
<path fill-rule="evenodd" clip-rule="evenodd" d="M457.247 906.378L457.247 924.332L466.202 924.332L466.202 906.378L457.247 906.378Z" fill="#5564ED"/>
<path fill-rule="evenodd" clip-rule="evenodd" d="M457.247 879.434L457.247 888.398L466.202 888.398L466.202 879.434L457.247 879.434Z" fill="#5564ED"/>
<path fill-rule="evenodd" clip-rule="evenodd" d="M475.184 870.471L475.184 861.507L457.247 861.507L457.247 870.471L475.184 870.471Z" fill="#5564ED"/>
<path fill-rule="evenodd" clip-rule="evenodd" d="M466.202 816.637L466.202 807.673L457.247 807.673L457.247 816.637L466.202 816.637Z" fill="#5564ED"/>
<path fill-rule="evenodd" clip-rule="evenodd" d="M457.247 682.024L466.202 682.024L466.202 673.061L457.247 673.061L457.247 682.024Z" fill="#5564ED"/>
<path fill-rule="evenodd" clip-rule="evenodd" d="M457.247 502.542L466.202 502.542L466.202 493.578L457.247 493.578L457.247 502.542Z" fill="#5564ED"/>
<path fill-rule="evenodd" clip-rule="evenodd" d="M457.247 152.566L457.247 161.529L466.202 161.529L466.202 152.566L457.247 152.566Z" fill="#5564ED"/>
<path fill-rule="evenodd" clip-rule="evenodd" d="M466.202 134.612L466.202 125.649L457.247 125.649L457.247 134.612L466.202 134.612Z" fill="#5564ED"/>
<path fill-rule="evenodd" clip-rule="evenodd" d="M466.202 62.8243L466.202 53.861L457.247 53.861L457.247 62.8243L466.202 62.8243Z" fill="#5564ED"/>
<path fill-rule="evenodd" clip-rule="evenodd" d="M466.202 933.295L475.157 933.295L475.157 924.332L466.202 924.332L466.202 933.295Z" fill="#5564ED"/>
<path fill-rule="evenodd" clip-rule="evenodd" d="M466.202 888.424L466.202 897.388L475.157 897.388L475.157 888.424L466.202 888.424Z" fill="#5564ED"/>
<path fill-rule="evenodd" clip-rule="evenodd" d="M484.139 852.517L484.139 843.554L466.202 843.554L466.202 852.517L484.139 852.517Z" fill="#5564ED"/>
<path fill-rule="evenodd" clip-rule="evenodd" d="M475.185 834.564L475.185 825.6L466.23 825.6L466.23 834.564L475.185 834.564Z" fill="#5564ED"/>
<path fill-rule="evenodd" clip-rule="evenodd" d="M475.185 673.034L475.185 664.071L466.23 664.071L466.23 673.034L475.185 673.034Z" fill="#5564ED"/>
<path fill-rule="evenodd" clip-rule="evenodd" d="M466.202 502.542L466.202 511.505L493.094 511.505L493.094 502.542L484.139 502.542L484.139 493.578L475.184 493.578L475.184 502.542L466.229 502.542L466.202 502.542Z" fill="#5564ED"/>
<path fill-rule="evenodd" clip-rule="evenodd" d="M466.202 107.695L466.202 116.659L475.157 116.659L475.157 107.695L466.202 107.695Z" fill="#5564ED"/>
<path fill-rule="evenodd" clip-rule="evenodd" d="M466.202 89.7418L466.202 98.7051L475.157 98.7051L475.157 89.7418L466.202 89.7418Z" fill="#5564ED"/>
<path fill-rule="evenodd" clip-rule="evenodd" d="M484.14 978.166L484.14 969.203L475.185 969.203L475.185 978.166L484.14 978.166Z" fill="#5564ED"/>
<path fill-rule="evenodd" clip-rule="evenodd" d="M475.185 951.222L484.14 951.222L484.14 942.258L475.185 942.258L475.185 951.222Z" fill="#5564ED"/>
<path fill-rule="evenodd" clip-rule="evenodd" d="M475.185 924.305L484.14 924.305L484.14 915.341L475.185 915.341L475.185 924.305Z" fill="#5564ED"/>
<path fill-rule="evenodd" clip-rule="evenodd" d="M475.185 897.388L475.185 906.351L484.14 906.351L484.14 897.388L475.185 897.388Z" fill="#5564ED"/>
<path fill-rule="evenodd" clip-rule="evenodd" d="M484.14 879.434L484.14 870.471L475.185 870.471L475.185 879.434L484.14 879.434Z" fill="#5564ED"/>
<path fill-rule="evenodd" clip-rule="evenodd" d="M484.14 538.422L475.185 538.422L475.185 547.385L484.14 547.385L484.14 538.422Z" fill="#5564ED"/>
<path fill-rule="evenodd" clip-rule="evenodd" d="M484.14 152.566L484.14 143.603L475.185 143.603L475.185 152.566L484.14 152.566Z" fill="#5564ED"/>
<path fill-rule="evenodd" clip-rule="evenodd" d="M475.185 44.8707L475.185 53.834L484.14 53.834L484.14 44.8707L475.185 44.8707Z" fill="#5564ED"/>
<path fill-rule="evenodd" clip-rule="evenodd" d="M493.121 933.295L484.166 933.295L484.166 942.258L493.121 942.258L493.121 933.295Z" fill="#5564ED"/>
<path fill-rule="evenodd" clip-rule="evenodd" d="M484.14 906.378L484.14 915.341L493.095 915.341L493.095 906.378L484.14 906.378Z" fill="#5564ED"/>
<path fill-rule="evenodd" clip-rule="evenodd" d="M493.121 888.424L484.166 888.424L484.166 897.388L493.121 897.388L493.121 888.424Z" fill="#5564ED"/>
<path fill-rule="evenodd" clip-rule="evenodd" d="M493.121 861.507L484.166 861.507L484.166 870.471L493.121 870.471L493.121 861.507Z" fill="#5564ED"/>
<path fill-rule="evenodd" clip-rule="evenodd" d="M493.121 834.564L493.121 825.6L484.166 825.6L484.166 834.564L493.121 834.564Z" fill="#5564ED"/>
<path fill-rule="evenodd" clip-rule="evenodd" d="M484.14 807.646L484.14 816.609L493.095 816.609L493.095 807.646L484.14 807.646Z" fill="#5564ED"/>
<path fill-rule="evenodd" clip-rule="evenodd" d="M484.14 664.071L484.14 673.034L493.095 673.034L493.095 664.071L484.14 664.071Z" fill="#5564ED"/>
<path fill-rule="evenodd" clip-rule="evenodd" d="M493.121 547.412L484.166 547.412L484.166 556.376L493.121 556.376L493.121 547.412Z" fill="#5564ED"/>
<path fill-rule="evenodd" clip-rule="evenodd" d="M493.121 484.588L484.166 484.588L484.166 493.551L493.121 493.551L493.121 484.588Z" fill="#5564ED"/>
<path fill-rule="evenodd" clip-rule="evenodd" d="M493.121 475.625L493.121 466.661L484.166 466.661L484.166 475.625L493.121 475.625Z" fill="#5564ED"/>
<path fill-rule="evenodd" clip-rule="evenodd" d="M537.923 394.846L528.968 394.846L528.968 385.883L502.076 385.883L502.076 376.92L493.121 376.92L493.121 385.883L484.166 385.883L484.166 394.846L520.04 394.846L520.04 403.81L537.977 403.81L537.977 394.846L537.923 394.846Z" fill="#5564ED"/>
<path fill-rule="evenodd" clip-rule="evenodd" d="M502.077 341.012L511.032 341.012L511.032 332.049L484.14 332.049L484.14 341.012L493.095 341.012L493.095 349.976L502.05 349.976L502.05 341.012L502.077 341.012Z" fill="#5564ED"/>
<path fill-rule="evenodd" clip-rule="evenodd" d="M493.121 215.363L484.166 215.363L484.166 224.327L493.121 224.327L493.121 215.363Z" fill="#5564ED"/>
<path fill-rule="evenodd" clip-rule="evenodd" d="M493.121 134.612L493.121 125.649L484.166 125.649L484.166 134.612L493.121 134.612Z" fill="#5564ED"/>
<path fill-rule="evenodd" clip-rule="evenodd" d="M493.121 116.659L493.121 107.695L484.166 107.695L484.166 116.659L493.121 116.659Z" fill="#5564ED"/>
<path fill-rule="evenodd" clip-rule="evenodd" d="M484.14 89.7418L484.14 98.7051L493.095 98.7051L493.095 89.7418L484.14 89.7418Z" fill="#5564ED"/>
</g>
<defs>
<clipPath id="clip0_1127_2852">
<rect width="1032" height="1040" fill="white" transform="translate(4.51102e-05 1032) rotate(-90)"/>
</clipPath>
</defs>
</svg>
