<svg width="201" height="586" viewBox="0 0 201 586" fill="none" xmlns="http://www.w3.org/2000/svg">
<g clip-path="url(#clip0_826_6612)">
<path d="M-0.000228882 0H3.28976V585.61H-0.000228882V0Z" fill="#758BF3"/>
<path fill-rule="evenodd" clip-rule="evenodd" d="M-95.6154 127.337H-93.7283V125.459H-89.945V123.581H-86.1617V121.703H-80.4914V119.825H-74.8211V117.947H-72.9341V119.825H-74.8211V121.703H-69.1508V119.825H-67.2637V117.947H-61.5934V116.069H-55.9231V114.191H-57.8101V112.313H-59.6971V110.436H-57.8101V112.313H-52.1398V110.436H-48.3565V108.558H-40.7991V106.68H-31.3548V104.802H-25.6844V102.924H-18.1271V104.802H-16.2401V106.68H-14.353V108.558H-10.5697V104.792H-14.353V102.914H-8.68271V101.036H-6.79567V102.914H-4.90865V101.036H12.0931V102.914H13.9801V101.036H15.8671V102.914H23.4245V104.792H21.5375V106.67H19.6504V108.548H17.7634V110.426H15.8764V112.304H13.9894V116.069H12.1023V119.835H8.31903V121.712H10.2061V123.59H12.0931V121.712H13.9801V117.947H15.8671V114.182H17.7542V112.304H19.6412V110.426H21.5282V108.548H23.4152V106.67H25.3023V104.792H29.0856V102.914H32.8689V104.792H38.5392V106.67H47.9836V108.548H55.5409V110.426H59.3242V112.304H63.1075V116.069H46.1058V117.947H40.4355V119.825H30.9911V121.703H29.1041V123.581H34.7744V121.703H44.2188V119.825H53.6631V117.947H74.4482V119.825H76.3352V121.703H80.1185V123.581H82.0055V125.459H85.7888V129.224H89.5721V132.989H91.4591V136.755H95.2424V140.52H93.3554V138.642H87.6851V136.764H78.2407V134.886H68.7964V133.008H55.5686V131.13H53.6816V133.008H51.7946V131.13H15.8949V133.008H17.7819V134.886H19.6689V133.008H21.556V134.886H23.443V133.008H25.33V134.886H27.217V133.008H29.1041V134.886H30.9911V133.008H36.6614V134.886H38.5484V133.008H40.4355V134.886H42.3225V133.008H44.2095V134.886H46.0965V133.008H47.9836V134.886H57.4279V136.764H74.4297V138.642H83.874V140.52H89.5444V142.398H95.2147V144.276H98.998V151.797H100.885V153.675H98.998V155.553H100.885V157.431H98.998V159.309H100.885V161.187H98.998V168.708H95.2147V166.83H93.3277V164.952H89.5444V163.074H85.7611V161.196H81.9778V159.318H78.1945V157.44H76.3074V155.562H70.6371V153.684H68.7501V151.806H63.0798V149.928H57.4094V148.05H55.5224V151.815H61.1927V153.693H64.976V155.571H68.7593V157.449H72.5426V159.327H76.3259V161.205H78.213V163.083H81.9962V164.961H85.7796V166.839H89.5629V168.717H91.4499V170.595H95.2332V176.238H93.3462V178.116H91.4591V179.994H89.5721V183.759H87.6851V185.637H85.7981V187.515H82.0148V189.393H78.2314V195.036H80.1185V193.158H82.0055V191.28H83.8925V189.402H87.6758V187.524H89.5629V185.646H91.4499V181.881H95.2332V178.116H97.1202V176.238H99.0073V174.36H100.894V176.238H102.781V178.116H106.565V179.994H108.452V181.872H112.235V183.75H114.122V185.628H116.009V187.506H117.896V189.384H121.679V193.149H125.463V195.027H127.35V196.905H129.237V198.783H131.124V200.661H133.011V202.539H134.898V204.417H136.785V206.295H138.672V208.172H140.559V210.05H142.446V211.928H144.333V215.694H146.22V217.572H148.107V219.449H149.994V221.327H151.881V223.205H153.768V225.083H155.655V221.318H153.768V219.44H151.881V215.675H149.994V213.797H148.107V211.919H146.22V210.041H144.333V208.163H142.446V206.285H140.559V204.407H138.672V202.529H136.785V200.651H134.898V198.773H133.011V195.008H129.227V193.13H127.34V191.252H125.453V189.374H123.566V187.496H121.679V185.619H119.792V183.741H116.009V181.863H114.122V179.985H112.235V178.107H108.452V176.229H106.565V174.351H104.678V172.473H100.894V168.708H102.781V146.144H106.565V148.022H108.452V149.9H114.122V151.778H119.792V153.656H121.679V155.534H125.463V157.412H129.246V159.29H131.133V161.168H133.02V163.046H136.803V164.924H140.587V166.802H142.474V168.68H144.361V170.558H146.248V172.436H148.135V174.314H150.022V176.192H151.909V178.07H155.692V181.835H159.475V185.6H161.362V187.478H163.249V189.356H165.136V194.999H167.023V198.764H168.91V228.849H167.023V232.614H165.136V234.492H163.249V230.726H161.362V228.849H159.475V225.083H155.692V228.849H157.579V230.726H159.466V234.492H161.353V236.37H163.24V242.013H161.353V243.891H159.466V247.656H157.579V249.534H155.692V253.299H153.805V255.177H151.918V257.055H150.031V258.933H148.144V260.811H146.257V262.689H144.37V264.567H142.483V266.445H140.596V268.323H138.709V270.201H134.925V272.079H133.038V273.956H129.255V275.834H127.368V277.712H119.811V273.947H117.924V270.182H116.037V264.539H114.15V260.774H112.263V257.009H110.376V253.244H108.489V249.479H106.602V245.713H104.715V241.948H102.828V238.183H100.941V236.305H99.0535V232.54H97.1665V228.775H95.2794V225.01H91.4962V228.775H93.3831V232.54H95.2702V234.418H97.1572V238.183H99.0442V241.948H100.931V245.713H102.818V249.479H104.705V251.356H106.592V257H108.479V260.765H110.366V264.53H112.253V268.295H114.14V272.06H116.027V277.703H117.915V281.468H116.027V283.346H114.14V285.224H108.47V287.102H106.583V288.98H100.913V290.858H95.2424V292.736H91.4591V294.614H85.7888V296.492H80.1185V298.37H78.2314V300.248H83.9018V298.37H89.5721V296.492H95.2424V294.614H100.913V292.736H102.8V290.858H108.47V288.98H114.14V287.102H116.027V285.224H119.811V287.102H121.698V294.623H123.585V298.388H125.472V305.91H127.359V309.675H129.246V319.074H131.133V324.717H133.02V336.003H134.907V352.923H136.794V371.73H134.907V373.608H133.02V375.486H129.237V377.364H123.566V379.242H121.679V381.12H116.009V382.998H112.226V384.876H106.555V386.754H102.772V388.632H95.2147V390.51H87.6573V392.388H81.987V394.266H72.5426V396.144H66.8723V398.022H53.6446V399.9H51.7576V371.693H49.8706V369.815H51.7576V367.938H49.8706V366.06H51.7576V364.182H49.8706V337.853H46.0873V343.496H47.9743V345.374H46.0873V351.017H47.9743V352.895H46.0873V354.773H47.9743V356.651H46.0873V358.529H47.9743V360.407H46.0873V362.285H47.9743V394.247H49.8613V396.125H47.9743V399.891H44.191V401.769H42.304V399.891H40.417V401.769H12.0746V403.646H10.1876V401.769H8.30052V403.646H6.4135V401.769H4.52647V403.646H2.63945V401.769H0.752426V403.646H-1.1346V401.769H-3.02162V403.646H-4.90865V401.769H-37.0251V399.891H-46.4695V398.013H-48.3565V396.135H-46.4695V394.257H-48.3565V392.379H-46.4695V390.501H-48.3565V388.623H-50.2435V398.022H-59.6879V396.144H-65.3582V398.022H-63.4712V399.9H-54.0268V401.778H-50.2435V424.341H-48.3565V426.219H-50.2435V428.097H-48.3565V448.782H-46.4695V456.303H-44.5824V461.946H-52.1398V460.068H-61.5842V458.19H-71.0285V456.312H-74.8118V454.434H-82.3692V452.556H-86.1525V450.678H-91.8228V448.8H-95.6061V446.923H-101.276V445.045H-105.06V443.167H-108.843V441.289H-110.73V439.411H-114.513V437.533H-116.4V435.655H-118.287V431.89H-120.174V430.012H-122.061V426.246H-123.948V420.603H-125.836V418.725H-127.723V411.204H-129.61V405.561H-131.497V396.162H-133.384V382.998H-135.271V381.12H-133.384V379.242H-135.271V373.599H-131.487V375.477H-127.704V371.712H-131.487V369.834H-135.271V362.313H-133.384V360.435H-135.271V358.557H-133.384V356.679H-135.271V354.801H-133.384V352.923H-135.271V351.045H-137.158V367.965H-139.045V366.087H-140.932V369.852H-137.148V390.538H-135.261V403.702H-133.374V409.345H-131.487V418.744H-129.6V420.622H-127.713V426.265H-125.826V428.143H-123.939V431.908H-127.723V430.03H-129.61V428.152H-131.497V426.274H-133.384V424.396H-137.167V420.631H-140.95V418.753H-142.837V416.875H-144.724V413.11H-146.611V411.232H-148.498V409.354H-150.385V405.589H-152.272V403.711H-154.159V401.833H-156.046V398.068H-157.933V396.19H-159.82V394.312H-161.708V390.547H-163.595V386.782H-165.482V383.017H-167.369V379.251H-169.256V375.486H-171.143V371.721H-173.03V367.956H-174.917V364.191H-176.804V369.834H-174.917V375.477H-173.03V377.355H-171.143V382.998H-169.256V384.876H-167.369V390.519H-165.482V392.397H-163.595V396.162H-161.708V399.927H-159.82V401.805H-157.933V403.683H-156.046V407.448H-154.159V409.326H-152.272V411.204H-150.385V414.97H-148.498V416.847H-146.611V418.725H-144.724V420.603H-142.837V422.481H-140.95V424.359H-139.063V426.237H-137.176V428.115H-135.289V431.88H-131.506V433.758H-129.619V435.636H-127.732V437.514H-125.845V439.392H-123.958V441.27H-122.071V443.148H-120.184V445.026H-118.297V446.904H-114.513V448.782H-110.73V450.66H-108.843V452.538H-106.956V454.416H-105.069V456.294H-101.286V458.172H-97.5024V460.05H-93.7191V461.928H-91.8321V463.806H-88.0488V465.684H-84.2655V467.562H-80.4822V469.44H-78.5951V471.318H-71.0378V473.196H-67.2545V475.074H-61.5842V476.952H-55.9138V478.829H-50.2435V480.707H-42.6862V482.585H-35.1288V484.463H-21.9011V486.341H-4.8994V484.463H-14.3438V482.585H-16.2308V484.463H-18.1178V482.585H-23.7881V480.707H-25.6752V482.585H-27.5622V480.707H-31.3455V478.829H-33.2325V476.952H-35.1196V473.186H-37.0066V469.421H-38.8936V467.543H-27.5529V469.421H-25.6659V467.543H-23.7789V469.421H-2.99387V471.299H-1.10686V469.421H0.780182V471.299H2.66721V469.421H4.55423V471.299H6.44125V469.421H8.32828V471.299H10.2153V469.421H31.0003V467.543H40.4447V473.186H38.5577V475.064H42.341V471.299H44.228V467.534H48.0113V465.656H53.6816V463.778H46.1243V456.257H48.0113V446.858H49.8983V429.938H51.7854V428.06H49.8983V426.182H51.7854V401.741H65.0131V399.863H70.6834V397.985H80.1277V396.107H85.7981V394.229H95.2424V392.351H99.0258V390.473H106.583V388.595H112.253V386.717H114.14V384.839H119.811V382.961H123.594V381.083H129.264V379.205H131.151V377.327H134.935V375.449H136.822V392.369H134.935V405.534H133.048V414.933H134.935V409.29H136.822V403.646H138.709V386.726H140.596V373.562H142.483V371.684H146.266V369.806H148.153V367.928H151.936V366.05H153.823V364.172H155.711V362.294H151.927V364.172H148.144V366.05H146.257V367.928H142.474V369.806H140.587V358.52H138.7V337.835H136.812V332.192H134.925V319.028H133.038V311.507H131.151V307.741H129.264V298.342H127.377V294.577H125.49V288.934H123.603V285.169H121.716V283.291H123.603V281.413H125.49V279.535H129.274V277.657H133.057V275.779H134.944V273.901H136.831V272.023H140.614V270.145H142.501V268.267H146.285V264.502H148.172V262.624H151.955V258.859H155.738V255.094H157.625V253.216H159.512V249.451H161.399V247.573H163.286V245.695H165.173V243.817H167.06V245.695H168.947V251.338H170.834V253.216H172.721V256.981H174.608V260.746H176.496V266.389H178.383V272.032H180.27V275.798H182.157V283.319H184.044V288.962H185.931V294.605H187.818V296.483H185.931V298.361H187.818V307.76H189.705V305.882H191.592V304.004H189.705V302.126H191.592V300.248H189.705V290.849H187.818V285.206H185.931V277.685H184.044V272.042H182.157V266.399H180.27V262.633H178.383V256.99H176.496V253.225H174.608V251.347H172.721V247.582H170.834V243.817H168.947V240.052H167.06V238.174H168.947V230.653H170.834V226.888H172.721V202.447H174.608V206.212H176.496V209.977H178.383V215.62H180.27V217.498H182.157V223.141H184.044V228.784H185.931V234.427H187.818V238.192H191.601V236.314H189.714V228.793H187.827V225.028H185.94V219.385H184.053V215.62H182.166V209.977H180.279V206.212H178.392V202.447H176.505V198.681H174.618V194.916H172.731V193.038H170.844V189.273H168.957V187.395H167.07V183.63H165.183V179.865H163.296V177.987H161.409V176.109H159.522V172.344H155.738V174.222H153.851V172.344H151.964V170.466H150.077V168.588H146.294V164.823H142.511V162.945H138.727V161.067H136.84V159.189H134.953V157.311H131.17V155.433H127.387V153.555H125.5V151.677H121.716V149.799H116.046V147.921H114.159V146.043H108.489V144.165H104.705V142.287H99.035V136.644H97.148V134.766H95.2609V132.888H93.3739V131.01H91.4869V127.245H89.5999V125.367H87.7128V123.489H85.8258V121.611H82.0425V119.733H85.8258V121.611H91.4962V123.489H95.2794V125.367H100.95V127.245H102.837V129.123H106.62V131.001H108.507V132.879H112.29V134.757H114.177V136.635H116.064V138.513H119.848V140.391H121.735V142.269H125.518V144.147H127.405V146.025H129.292V147.903H131.179V149.781H133.066V151.659H134.953V153.537H136.84V155.415H138.727V157.293H140.614V159.171H142.501V161.048H144.388V162.926H146.275V164.804H148.162V166.682H150.049V168.56H151.936V170.438H153.823V172.316H155.711V168.551H153.823V164.786H151.936V162.908H148.153V159.143H146.266V157.265H144.379V155.387H142.492V153.509H140.605V151.631H138.718V149.753H134.935V145.988H131.151V144.11H129.264V142.232H127.377V140.354H125.49V138.476H121.707V136.598H119.82V134.72H117.933V132.842H114.15V130.964H112.263V129.086H108.479V127.208H106.592V125.33H102.809V123.452H99.0258V121.574H97.1387V119.696H91.4684V117.818H89.5814V115.941H83.911V114.063H82.024V112.185H76.3537V110.307H72.5704V108.429H65.0131V106.551H59.3427V104.673H53.6724V102.795H44.228V100.917H34.7836V99.0388H21.556V97.2529H-10.5605V99.1309H-12.4475V97.2529H-14.3345V99.1309H-27.5622V101.009H-37.0066V102.887H-46.4509V104.765H-52.1213V106.643H-57.7916V108.521H-63.4619V110.399H-69.1323V112.277H-74.8026V114.155H-76.6896V116.033H-82.3599V117.911H-84.247V119.788H-89.9173V121.666H-93.7006V123.544H-95.5876V125.422H-99.3709V127.3H-101.258V129.178H-95.5876V127.3L-95.6154 127.337ZM-37.0436 477.08V478.958H-35.1566V480.836H-37.0436V478.958H-44.6009V477.08H-52.1583V475.202H-57.8286V473.324H-63.4989V471.447H-69.1693V469.569H-71.0563V467.691H-76.7266V465.813H-80.5099V463.935H-84.2932V462.057H-88.0765V460.179H-91.8598V458.301H-95.6431V456.423H-97.5301V454.545H-101.313V452.667H-103.2V450.789H-105.087V448.911H-106.975V447.033H-108.862V445.155H-106.975V447.033H-103.191V448.911H-99.4079V450.789H-93.7376V452.667H-91.8506V454.545H-86.1802V456.423H-80.5099V458.301H-74.8396V460.179H-65.3952V462.057H-59.7249V463.935H-50.2805V465.813H-44.6102V467.691H-42.7231V469.569H-40.8361V475.212H-38.9491V477.09H-37.0621L-37.0436 477.08ZM47.9836 431.954H46.0965V433.832H47.9836V435.71H46.0965V452.63H44.2095V458.273H42.3225V463.916H40.4355V465.794H38.5484V463.916H36.6614V465.794H23.4337V467.672H21.5467V465.794H19.6597V467.672H-12.4567V465.794H-14.3438V467.672H-16.2308V465.794H-29.4585V463.916H-40.7991V458.273H-42.6862V450.752H-44.5732V433.832H-46.4602V413.147H-48.3472V411.269H-46.4602V409.391H-48.3472V407.513H-46.4602V405.635H-48.3472V403.757H-46.4602V401.879H-40.7899V403.757H-20.0049V405.635H-18.1178V403.757H-16.2308V405.635H23.443V403.757H25.33V405.635H27.217V403.757H48.0021V431.963L47.9836 431.954ZM70.6556 112.295H72.5426V114.173H76.3259V116.051H72.5426V114.173H70.6556V112.295ZM64.9853 114.173H66.8723V116.051H64.9853V114.173ZM-65.386 112.295H-63.4989V114.173H-65.386V112.295ZM-10.5882 112.295V108.53H-6.80493V112.295H-4.91789V116.06H-3.03088V119.825H-1.14384V121.703H-4.92714V117.938H-6.81418V114.173H-8.70119V112.295H-10.5882ZM-52.1583 116.06H-54.0453V114.182H-48.375V116.06H-50.262V117.938H-52.149V116.06H-52.1583ZM-48.3842 117.938V116.06H-46.4972V114.182H-44.6102V116.06H-35.1658V117.938H-37.0528V119.816H-38.9398V117.938H-48.3842ZM-55.9416 117.938V116.06H-54.0546V117.938H-55.9416ZM-35.1566 119.816V117.938H-33.2695V119.816H-35.1566ZM-21.9289 119.816V123.581H-23.8159V121.703H-31.3733V117.938H-29.4862V119.816H-21.9289ZM-74.8303 125.459H-78.6136V121.694H-74.8303V125.459ZM-18.1456 121.694V123.572H-20.0326V121.694H-18.1456ZM27.1985 123.581H29.0856V125.459H23.4152V127.337H21.5282V123.572H25.3115V121.694H27.1985V123.572V123.581ZM-21.9289 123.581H-20.0419V125.459H-21.9289V123.581ZM-12.4845 123.581V125.459H-18.1548V123.581H-12.4845ZM21.5282 129.215V127.337H19.6412V125.459H17.7542V127.337H12.0838V129.215H10.1968V131.093H8.30978V125.45H6.42274V131.093H2.63945V127.328H0.752426V123.563H-3.03088V125.441H-1.14384V129.206H0.743179V131.084H-1.14384V129.206H-3.03088V127.328H-10.5882V129.206H-4.91789V131.084H-3.03088V132.962H-8.70119V131.084H-10.5882V132.962H-12.4753V134.84H-10.5882V136.718H-12.4753V138.596H-6.80493V140.474H-4.91789V138.596H-3.03088V140.474H-1.14384V138.596H0.743179V140.474H-1.14384V142.352H0.743179V144.23H2.6302V140.465H4.51723V142.342H6.40427V146.108H8.29128V151.751H10.1783V153.629H12.0653V149.864H10.1783V144.22H8.29128V140.455H6.40427V138.577H8.29128V140.455H10.1783V138.577H12.0653V140.455H13.9523V142.333H15.8394V144.211H17.7264V146.089H19.6134V142.324H17.7264V138.559H15.8394V136.681H17.7264V134.803H15.8394V132.925H13.9523V131.047H15.8394V129.169H21.5097L21.5282 129.215ZM-6.81418 136.736H-8.70119V134.858H-6.81418V136.736ZM8.30052 123.581H10.1876V125.459H8.30052V123.581ZM-82.3877 132.98H-86.171V131.102H-84.284V127.337H-80.5007V125.459H-78.6136V129.224H-82.3969V132.989L-82.3877 132.98ZM-10.5882 125.459V127.337H-12.4753V125.459H-10.5882ZM-110.73 138.623H-114.513V136.745H-112.626V134.867H-110.739V132.989H-106.956V131.112H-105.069V129.234H-101.286V132.999H-105.069V134.877H-106.956V136.755H-110.739V138.633L-110.73 138.623ZM-54.0453 132.98H-55.9323V131.102H-54.0453V132.98ZM-50.2713 132.98H-52.1583V131.102H-50.2713V132.98ZM-42.7139 132.98H-48.3842V131.102H-42.7139V132.98ZM-35.1566 132.98H-40.8269V131.102H-35.1566V132.98ZM-27.5992 132.98H-33.2695V131.102H-27.5992V132.98ZM-20.0419 132.98H-25.7122V131.102H-20.0419V132.98ZM-12.4845 131.102V132.98H-18.1548V131.102H-12.4845ZM-99.3894 144.257H-101.276V142.379H-95.6061V140.501H-93.7191V142.379H-91.8321V136.736H-89.945V134.858H-88.058V132.98H-86.171V136.745H-88.058V138.623H-84.2747V136.745H-82.3877V138.623H-80.5007V140.501H-89.945V144.266H-97.5024V146.144H-99.3894V144.266V144.257ZM-61.6027 136.736H-74.8303V134.858H-69.16V132.98H-67.273V134.858H-65.386V132.98H-63.4989V134.858H-61.6119V136.736H-61.6027ZM-59.7156 134.858H-61.6027V132.98H-59.7156V134.858ZM-55.9416 134.858H-57.8286V132.98H-55.9416V134.858ZM-54.0453 134.858V132.98H-52.1583V134.858H-54.0453ZM-50.2713 134.858V132.98H-48.3842V134.858H-50.2713ZM-59.7156 136.736V134.858H-57.8286V136.736H-59.7156ZM-78.6136 138.623H-80.5007V136.745H-78.6136V138.623ZM-74.8303 138.623H-76.7174V136.745H-74.8303V138.623ZM-14.3715 138.623H-16.2585V136.745H-14.3715V138.623ZM19.6412 138.623H17.7542V136.745H23.4245V138.623H25.3115V140.501H19.6412V138.623ZM-190.087 326.65H-188.2V339.814H-186.313V343.579H-184.426V351.1H-182.539V356.743H-180.652V362.387H-178.765V364.264H-176.878V354.865H-178.765V351.1H-180.652V341.701H-182.539V330.415H-184.426V328.537H-180.643V332.302H-178.755V334.18H-176.868V337.945H-174.981V341.71H-171.198V345.476H-169.311V347.354H-167.424V349.232H-165.537V351.11H-163.65V352.987H-161.763V354.865H-157.98V358.631H-154.196V360.509H-152.309V362.387H-148.526V364.264H-146.639V366.142H-144.752V368.02H-142.865V366.142H-140.978V364.264H-144.761V362.387H-146.648V360.509H-150.432V358.631H-152.319V356.753H-154.206V354.875H-156.093V352.997H-157.98V351.119H-159.867V349.241H-161.754V347.363H-163.641V345.485H-165.528V343.607H-167.415V341.729H-169.302V339.851H-171.189V337.973H-173.076V336.095H-174.963V332.33H-176.85V328.565H-178.737V326.687H-180.624V322.922H-182.511V319.157H-184.398V309.757H-182.511V307.88H-184.398V306.002H-182.511V296.603H-180.624V287.203H-178.737V285.326H-180.624V283.448H-182.511V289.091H-184.398V300.377H-186.285V307.898H-188.172V298.499H-190.059V285.335H-188.172V283.457H-190.059V281.579H-188.172V264.659H-186.285V262.781H-188.172V260.903H-186.285V253.382H-184.398V245.861H-182.511V238.34H-180.624V230.819H-178.737V228.941H-176.85V223.297H-174.963V217.654H-173.076V212.011H-171.189V208.246H-169.302V204.481H-167.415V202.603H-165.528V198.838H-163.641V202.603H-165.528V204.481H-163.641V206.359H-165.528V208.237H-163.641V210.115H-161.754V196.951H-159.867V193.186H-157.98V189.42H-156.093V185.655H-154.206V181.89H-150.422V178.125H-148.535V176.247H-146.648V174.369H-144.761V172.491H-146.648V170.613H-144.761V172.491H-142.874V170.613H-140.987V168.735H-142.874V166.857H-140.987V168.735H-137.204V166.857H-135.317V163.092H-137.204V164.97H-140.987V163.092H-137.204V159.327H-133.421V155.562H-129.637V151.797H-125.854V149.919H-123.967V148.041H-122.08V146.163H-120.193V144.285H-118.306V142.407H-116.419V140.529H-114.532V138.651H-118.315V140.529H-120.202V142.407H-123.985V146.172H-127.769V148.05H-129.656V149.928H-131.543V151.806H-133.43V153.684H-135.317V155.562H-137.204V157.44H-139.091V159.318H-140.978V161.196H-142.865V163.074H-144.752V164.952H-146.639V166.83H-148.526V170.595H-150.413V172.473H-152.3V176.238H-154.187V178.116H-156.074V179.994H-157.961V183.759H-159.848V185.637H-161.735V189.402H-163.622V193.167H-165.509V195.045H-167.396V198.81H-169.283V202.575H-171.17V206.341H-173.057V208.219H-174.944V213.862H-176.831V219.505H-178.718V223.27H-180.606V228.913H-182.493V232.678H-184.38V240.199H-186.267V247.72H-188.154V257.119H-190.041V266.518H-191.974V317.288H-190.087V326.687V326.65ZM-188.191 321.016H-186.304V322.894H-188.191V321.016ZM-23.8159 140.501H-25.7029V138.623H-23.8159V140.501ZM-20.0419 140.501H-21.9289V138.623H-20.0419V140.501ZM-16.2585 140.501H-18.1456V138.623H-16.2585V140.501ZM32.8689 138.623V140.501H30.9818V142.379H29.0948V140.501H27.2078V138.623H32.8781H32.8689ZM-29.4862 142.379H-31.3733V140.501H-29.4862V142.379ZM-25.7029 142.379H-27.59V140.501H-25.7029V142.379ZM-23.8159 142.379V140.501H-21.9289V142.379H-23.8159ZM-8.70119 140.501H-6.81418V142.379H-8.70119V140.501ZM34.7559 140.501V142.379H32.8689V140.501H34.7559ZM44.2003 142.379V144.257H42.3132V146.135H40.4262V144.257H34.7559V142.379H36.6429V140.501H38.5299V142.379H44.2003ZM-38.9306 144.257H-40.8176V142.379H-38.9306V144.257ZM-31.3733 144.257H-37.0436V142.379H-31.3733V144.257ZM-29.4862 144.257V142.379H-27.5992V144.257H-29.4862ZM-14.3715 142.379H-8.70119V144.257H-10.5882V146.135H-12.4753V144.257H-14.3623V142.379H-14.3715ZM-103.173 148.022H-108.843V146.144H-105.06V144.266H-101.276V146.144H-103.163V148.022H-103.173ZM-42.7139 144.257H-40.8269V146.135H-42.7139V144.257ZM-38.9306 146.144V144.266H-37.0436V146.144H-38.9306ZM-1.14384 144.257H0.743179V146.135H-1.14384V144.257ZM55.5409 146.144V148.022H53.6539V149.9H51.7669V148.022H46.0965V146.144H44.2095V144.266H49.8798V146.144H55.5502H55.5409ZM-91.8321 148.022H-93.7191V146.144H-91.8321V148.022ZM-46.488 146.144V148.022H-48.375V146.144H-46.488ZM-44.6009 146.144H-42.7139V148.022H-44.6009V146.144ZM-16.2585 146.144V148.022H-18.1456V146.144H-16.2585ZM-14.3715 146.144H-12.4845V148.022H-14.3715V146.144ZM-3.03088 146.144H-1.14384V148.022H-3.03088V146.144ZM23.4152 148.022V149.9H21.5282V148.022H19.6412V146.144H25.3115V148.022H23.4245H23.4152ZM-108.843 149.9H-110.73V148.022H-108.843V149.9ZM-52.1583 148.022V149.9H-54.0453V148.022H-52.1583ZM-50.2713 148.022H-48.3842V149.9H-50.2713V148.022ZM-46.488 148.022H-44.6009V149.9H-46.488V148.022ZM-20.0419 148.022H-18.1548V151.788H-21.9381V149.91H-20.0511V148.032L-20.0419 148.022ZM-16.2585 148.022H-14.3715V149.9H-16.2585V148.022ZM-133.402 163.065H-135.289V161.187H-133.402V159.309H-129.619V157.431H-125.836V155.553H-123.948V153.675H-120.165V151.797H-118.278V149.919H-110.721V151.797H-116.391V153.675H-118.278V155.553H-120.165V157.431H-123.948V159.309H-127.732V161.187H-129.619V163.065H-131.506V164.942H-133.393V163.065H-133.402ZM-93.7283 151.778V153.656H-95.6154V149.891H-91.8321V151.769H-93.7191L-93.7283 151.778ZM-59.7156 149.9H-54.0453V151.778H-55.9323V153.656H-57.8194V151.778H-59.7064V149.9H-59.7156ZM-52.1583 149.9H-50.2713V151.778H-52.1583V149.9ZM-3.03088 153.666H-4.91789V149.9H-1.1346V151.778H-3.02162V153.656L-3.03088 153.666ZM29.0856 149.9V151.778H23.4152V149.9H29.0856ZM-61.6027 151.778H-59.7156V153.656H-61.6027V151.778ZM-23.8159 151.778H-21.9289V153.656H-23.8159V151.778ZM32.8689 153.666V155.543H29.0856V151.778H30.9726V153.656H32.8596L32.8689 153.666ZM-91.8321 155.543H-93.7191V153.666H-91.8321V155.543ZM-65.386 155.543H-67.273V153.666H-65.386V155.543ZM-63.4989 153.666H-61.6119V155.543H-63.4989V153.666ZM-25.7029 153.666H-23.8159V155.543H-25.7029V153.666ZM-4.92714 155.543H-6.81418V153.666H-4.92714V155.543ZM-93.7283 161.187H-95.6154V155.543H-93.7283V157.421H-91.8413V159.299H-93.7283V161.177V161.187ZM-67.273 157.421H-69.16V155.543H-67.273V157.421ZM-27.5992 155.543H-25.7122V157.421H-27.5992V155.543ZM12.0838 157.421H10.1968V155.543H12.0838V157.421ZM36.6429 157.421V159.299H32.8596V155.534H34.7466V157.412H36.6337L36.6429 157.421ZM-72.9433 159.299H-74.8303V157.421H-69.16V159.299H-71.047V161.177H-72.9341V159.299H-72.9433ZM-29.4862 157.421H-27.5992V159.299H-29.4862V157.421ZM-4.92714 159.299H-6.81418V157.421H-4.92714V159.299ZM12.0838 159.299V157.421H13.9709V159.299H12.0838ZM-74.8303 161.187H-76.7174V159.309H-74.8303V161.187ZM-33.2603 161.187H-35.1473V159.309H-33.2603V161.187ZM-6.81418 159.299V161.177H-8.70119V159.299H-6.81418ZM13.9709 161.187V159.309H15.8579V161.187H13.9709ZM38.5299 159.299V161.177H36.6429V159.299H38.5299ZM-93.7283 163.065V161.187H-91.8413V163.065H-93.7283ZM-76.7174 163.065H-78.6044V161.187H-76.7174V163.065ZM-37.0436 161.187H-35.1566V163.065H-37.0436V161.187ZM-33.2603 163.065V161.187H-31.3733V163.065H-33.2603ZM-4.92714 163.065H-6.81418V161.187H-4.92714V163.065ZM12.0838 161.187H13.9709V163.065H12.0838V161.187ZM40.4262 161.187V163.065H38.5392V161.187H40.4262ZM-82.3877 164.942H-84.2747V163.065H-82.3877V164.942ZM-78.6136 164.942H-80.5007V163.065H-78.6136V164.942ZM-38.9306 163.065H-37.0436V164.942H-38.9306V163.065ZM-6.81418 164.942H-8.70119V163.065H-6.81418V164.942ZM13.9709 164.942V163.065H15.8579V164.942H13.9709ZM42.3132 163.065V164.942H40.4262V163.065H42.3132ZM-91.8321 164.942V166.82H-93.7191V164.942H-91.8321ZM-88.058 166.82H-89.945V164.942H-84.2747V166.82H-86.1617V168.698H-88.0488V166.82H-88.058ZM-40.8176 164.942H-38.9306V166.82H-40.8176V164.942ZM-8.70119 166.82H-10.5882V164.942H-8.70119V166.82ZM15.8579 166.82V164.942H17.7449V166.82H15.8579ZM44.2003 164.942V166.82H42.3132V164.942H44.2003ZM-89.945 168.708H-91.8321V166.83H-89.945V168.708ZM-42.7139 166.82H-40.8269V168.698H-42.7139V166.82ZM13.9709 166.82H15.8579V168.698H13.9709V166.82ZM46.0873 166.82V168.698H44.2003V166.82H46.0873ZM-91.8321 170.586H-93.7191V168.708H-91.8321V170.586ZM-89.945 168.708H-88.058V170.586H-89.945V168.708ZM-44.6009 168.708H-42.7139V170.586H-44.6009V168.708ZM-8.70119 170.586H-10.5882V168.708H-8.70119V170.586ZM15.8579 170.586V168.708H17.7449V170.586H15.8579ZM47.9836 168.708V170.586H46.0965V168.708H47.9836ZM-93.7283 172.464H-95.6154V170.586H-93.7283V172.464ZM-91.8321 170.586H-89.945V172.464H-91.8321V170.586ZM-46.488 170.586H-44.6009V172.464H-46.488V170.586ZM-10.5882 176.229H-12.4753V174.351H-14.3623V172.473H-12.4753V170.595H-10.5882V176.238V176.229ZM49.8706 170.586V172.464H47.9836V170.586H49.8706ZM-99.3894 172.464V174.342H-101.276V172.464H-99.3894ZM-95.6154 174.351H-97.5024V172.473H-95.6154V174.351ZM-89.945 174.351V172.473H-88.058V174.351H-89.945ZM-48.3842 172.464H-46.4972V174.342H-48.3842V172.464ZM15.8579 172.464H19.6412V176.229H17.7542V174.351H15.8671V172.473L15.8579 172.464ZM53.6446 172.464V176.229H51.7576V174.351H49.8706V172.473H53.6539L53.6446 172.464ZM-97.5024 176.229H-99.3894V174.351H-97.5024V176.229ZM-50.2713 174.351H-48.3842V176.229H-50.2713V174.351ZM-103.173 178.107H-105.06V176.229H-103.173V178.107ZM-99.3894 178.107H-101.276V176.229H-99.3894V178.107ZM-88.058 176.229V178.107H-89.945V176.229H-88.058ZM-84.2747 178.107H-86.1617V176.229H-84.2747V178.107ZM-52.1583 176.229H-50.2713V178.107H-52.1583V176.229ZM-12.4845 178.107H-14.3715V176.229H-12.4845V178.107ZM15.8579 176.229H17.7449V178.107H15.8579V176.229ZM55.5409 176.229V178.107H53.6539V176.229H55.5409ZM-105.06 179.985H-106.947V178.107H-105.06V179.985ZM-86.171 178.107V179.985H-88.058V178.107H-86.171ZM-54.0453 178.107H-52.1583V179.985H-54.0453V178.107ZM17.7449 181.872V178.107H19.6319V179.985H21.519V181.863H17.7357L17.7449 181.872ZM57.4279 178.107V179.985H55.5409V178.107H57.4279ZM-106.947 181.872H-108.834V179.994H-106.947V181.872ZM-84.2747 179.985V181.863H-86.1617V179.985H-84.2747ZM-55.9416 179.985H-54.0546V181.863H-55.9416V179.985ZM-52.1583 181.872V179.994H-50.2713V181.872H-52.1583ZM-12.4845 181.872H-14.3715V179.994H-12.4845V181.872ZM59.315 179.985V181.863H57.4279V179.985H59.315ZM-108.843 183.75H-110.73V181.872H-108.843V183.75ZM-82.3877 181.872V183.75H-84.2747V181.872H-82.3877ZM-57.8286 181.872H-55.9416V183.75H-57.8286V181.872ZM-14.3715 183.75H-16.2585V181.872H-14.3715V183.75ZM63.0983 183.75V185.628H59.315V181.863H61.202V183.741H63.089L63.0983 183.75ZM-110.73 185.628H-112.617V183.75H-110.73V185.628ZM-82.3877 183.75H-80.5007V185.628H-82.3877V183.75ZM-59.7156 183.75H-57.8286V185.628H-59.7156V183.75ZM-55.9416 185.628V183.75H-54.0546V185.628H-55.9416ZM21.5282 185.628H19.6412V183.75H21.5282V185.628ZM-114.504 189.393H-120.174V187.515H-118.287V185.637H-116.4V187.515H-114.513V189.393H-114.504ZM-112.617 187.506H-114.504V185.628H-112.617V187.506ZM-61.6027 185.628H-59.7156V187.506H-61.6027V185.628ZM-14.3715 187.506H-16.2585V185.628H-14.3715V187.506ZM66.8723 187.506V189.384H63.089V185.619H64.976V187.496H66.8631L66.8723 187.506ZM-78.6136 187.506H-76.7266V189.384H-78.6136V187.506ZM-59.7156 189.393V187.515H-57.8286V189.393H-59.7156ZM-16.2585 187.506V189.384H-18.1456V187.506H-16.2585ZM21.5282 187.506V189.384H19.6412V187.506H21.5282ZM-120.174 191.271H-122.061V189.393H-120.174V191.271ZM-71.0563 189.393V191.271H-72.9433V189.393H-71.0563ZM-14.3715 191.271H-16.2585V189.393H-14.3715V191.271ZM21.5282 189.393H23.4152V191.271H21.5282V189.393ZM70.6556 191.271V193.149H64.9853V191.271H66.8723V189.393H68.7593V191.271H70.6464H70.6556ZM-122.071 193.149H-123.958V191.271H-122.071V193.149ZM-120.174 193.149V191.271H-118.287V193.149H-120.174ZM-74.8303 191.271H-72.9433V193.149H-74.8303V191.271ZM-69.16 191.271V193.149H-71.047V191.271H-69.16ZM-63.4989 191.271H-61.6119V193.149H-63.4989V191.271ZM-16.2585 193.149H-18.1456V191.271H-16.2585V193.149ZM-123.958 195.027H-125.845V193.149H-123.958V195.027ZM-67.273 193.149V195.027H-69.16V193.149H-67.273ZM23.4152 193.149V195.027H21.5282V193.149H23.4152ZM72.5426 196.914V198.792H70.6556V200.67H64.9853V202.548H63.0983V198.783H66.8816V196.905H68.7686V195.027H70.6556V193.149H72.5426V195.027H74.4297V193.149H76.3167V196.914H72.5334H72.5426ZM-125.845 196.914H-127.732V195.036H-125.845V196.914ZM-65.386 195.027V196.905H-67.273V195.027H-65.386ZM-63.4989 195.027H-61.6119V196.905H-63.4989V195.027ZM-16.2585 196.914H-18.1456V195.036H-16.2585V196.914ZM23.4152 195.027H25.3023V196.905H23.4152V195.027ZM-127.732 198.792H-129.619V196.914H-127.732V198.792ZM-65.386 196.914H-63.4989V198.792H-65.386V196.914ZM-18.1456 198.792H-20.0326V196.914H-18.1456V198.792ZM21.5282 196.914H23.4152V198.792H21.5282V196.914ZM-129.628 200.67H-131.515V198.792H-129.628V200.67ZM-71.0563 198.792H-69.1693V200.67H-71.0563V198.792ZM-59.7156 198.792H-57.8286V200.67H-59.7156V198.792ZM-55.9416 198.792H-54.0546V200.67H-55.9416V198.792ZM-20.0419 198.792V200.67H-21.9289V198.792H-20.0419ZM23.4152 200.67V198.792H25.3023V200.67H23.4152ZM76.3167 198.792V202.557H74.4297V200.679H72.5426V198.801H76.3259L76.3167 198.792ZM-131.515 202.548H-133.402V200.67H-131.515V202.548ZM-18.1456 202.548H-20.0326V200.67H-18.1456V202.548ZM61.202 202.548H63.089V204.426H57.4187V206.304H55.5317V204.426H53.6446V202.548H59.315V200.67H61.202V202.548ZM-133.402 204.435H-135.289V202.557H-133.402V204.435ZM-74.8303 202.548H-72.9433V204.426H-74.8303V202.548ZM-52.1583 202.548H-50.2713V204.426H-52.1583V202.548ZM-46.488 204.435H-48.375V202.557H-46.488V204.435ZM-20.0419 204.435H-21.9289V202.557H-20.0419V204.435ZM27.1985 202.548V206.313H25.3115V204.435H23.4245V202.557H27.2078L27.1985 202.548ZM85.7703 211.956V215.721H83.8833V213.843H81.9962V211.965H80.1093V208.2H78.2222V206.322H76.3352V202.557H78.2222V204.435H80.1093V206.313H81.9962V208.191H83.8833V211.956H85.7703ZM-135.289 206.313H-137.176V204.435H-135.289V206.313ZM-40.8176 204.435V206.313H-42.7047V204.435H-40.8176ZM51.7576 204.435H53.6446V206.313H51.7576V204.435ZM-137.185 208.191H-139.072V206.313H-137.185V208.191ZM-78.6136 206.313H-76.7266V208.191H-78.6136V206.313ZM-40.8176 206.313H-38.9306V208.191H-40.8176V206.313ZM-37.0436 206.313H-35.1566V208.191H-37.0436V206.313ZM-31.3733 206.313V208.191H-33.2603V206.313H-31.3733ZM-20.0419 208.191H-21.9289V206.313H-20.0419V208.191ZM27.1985 208.191V206.313H29.0856V208.191H27.1985ZM47.9836 208.191H42.3132V206.313H47.9836V208.191ZM49.8706 206.313H51.7576V208.191H49.8706V206.313ZM-137.185 211.956H-142.856V210.078H-140.969V208.2H-139.082V210.078H-137.195V211.956H-137.185ZM-29.4862 208.191V210.069H-31.3733V208.191H-29.4862ZM-21.9289 210.069H-23.8159V208.191H-21.9289V210.069ZM27.1985 210.069H29.0856V211.947H27.1985V213.825H25.3115V211.947H23.4245V210.069H25.3115V208.191H27.1985V210.069ZM29.0856 210.069V208.191H30.9726V210.069H29.0856ZM30.9726 211.956V210.078H32.8596V208.2H34.7466V210.078H36.6337V211.956H30.9633H30.9726ZM38.5299 210.069H36.6429V208.191H38.5299V210.069ZM42.3132 210.069H40.4262V208.191H42.3132V210.069ZM-165.519 210.069H-163.632V211.947H-161.745V213.825H-163.632V215.703H-165.519V210.06V210.069ZM-78.6136 210.069H-76.7266V211.947H-78.6136V210.069ZM-29.4862 210.069H-27.5992V211.947H-29.4862V210.069ZM-23.8159 211.956H-25.7029V210.078H-23.8159V211.956ZM-21.9289 211.956V210.078H-20.0419V211.956H-21.9289ZM-18.1456 210.069H-16.2585V211.947H-18.1456V210.069ZM-12.4845 210.069V211.947H-14.3715V210.069H-12.4845ZM-8.70119 210.069V211.947H-10.5882V210.069H-8.70119ZM-4.92714 211.956H-6.81418V210.078H-4.92714V211.956ZM17.7449 210.069V211.947H15.8579V210.069H17.7449ZM21.5282 210.069V211.947H19.6412V210.069H21.5282ZM-142.846 211.956V213.834H-144.734V211.956H-142.846ZM-12.4845 211.956H-10.5975V213.834H-12.4845V211.956ZM-8.70119 213.834V211.956H-6.81418V213.834H-8.70119ZM-4.92714 213.834V211.956H-3.04012V213.834H-4.92714ZM-1.14384 211.956H0.743179V213.834H-1.14384V211.956ZM4.52647 213.834H2.63945V211.956H4.52647V213.834ZM8.30052 213.834H6.4135V211.956H8.30052V213.834ZM12.0838 213.834H10.1968V211.956H12.0838V213.834ZM13.9709 211.956H15.8579V213.834H13.9709V211.956ZM17.7449 211.956H19.6319V213.834H17.7449V211.956ZM21.5282 211.956H23.4152V213.834H21.5282V211.956ZM-142.846 215.712V213.834H-140.959V215.712H-142.846ZM-23.8159 213.834V215.712H-25.7029V213.834H-23.8159ZM4.52647 215.712V213.834H6.4135V215.712H4.52647ZM27.1985 215.712V213.834H29.0856V215.712H27.1985ZM-163.632 217.59V215.712H-161.745V228.876H-163.632V219.477H-165.519V217.599H-163.632V217.59ZM-21.9289 217.59H-23.8159V215.712H-21.9289V217.59ZM91.4314 219.477V225.12H89.5444V223.242H87.6573V219.477H85.7703V215.712H87.6573V217.59H89.5444V219.468H91.4314V219.477ZM-146.63 221.355H-148.517V217.59H-144.734V219.468H-146.621V221.346L-146.63 221.355ZM-82.3877 217.59H-80.5007V219.468H-82.3877V217.59ZM-23.8159 219.477H-25.7029V217.599H-23.8159V219.477ZM29.0856 217.59V219.468H27.1985V217.59H29.0856ZM29.0856 221.355V219.477H30.9726V221.355H29.0856ZM-148.517 223.233H-150.404V221.355H-148.517V223.233ZM-23.8159 223.233H-25.7029V221.355H-23.8159V223.233ZM-150.404 225.111H-152.291V223.233H-150.404V225.111ZM30.9726 223.233V225.111H29.0856V223.233H30.9726ZM-152.3 226.998H-154.187V225.12H-152.3V226.998ZM-89.945 225.111H-88.058V226.989H-89.945V225.111ZM-23.8159 226.998H-25.7029V225.12H-23.8159V226.998ZM32.8689 226.998H30.9818V225.12H32.8689V226.998ZM-154.187 228.876H-156.074V226.998H-154.187V228.876ZM-27.5992 226.998H-25.7122V228.876H-27.5992V226.998ZM30.9726 228.876H29.0856V226.998H30.9726V228.876ZM-161.745 230.754V228.876H-159.857V230.754H-161.745ZM-156.074 228.876V230.754H-157.961V228.876H-156.074ZM30.9726 230.754V228.876H32.8596V230.754H30.9726ZM-154.187 232.632H-156.074V230.754H-154.187V232.632ZM-159.857 238.275H-161.745V236.397H-159.857V234.519H-161.745V232.641H-156.074V234.519H-157.961V240.162H-159.848V238.284L-159.857 238.275ZM-29.4862 232.632H-27.5992V234.51H-29.4862V232.632ZM32.8689 232.632V234.51H30.9818V232.632H32.8689ZM32.8689 234.519H34.7559V236.397H32.8689V234.519ZM-29.4862 236.397H-27.5992V238.275H-29.4862V236.397ZM30.9726 236.397H32.8596V238.275H30.9726V236.397ZM-161.745 243.918H-163.632V238.275H-161.745V243.918ZM32.8689 243.918V238.275H34.7559V243.918H32.8689ZM-157.961 242.04V240.162H-156.074V242.04H-157.961ZM-29.4862 240.153H-27.5992V242.031H-29.4862V240.153ZM193.46 242.04V247.683H195.347V249.561H193.46V251.439H195.347V253.317H193.46V255.195H191.573V245.796H189.686V240.153H191.573V242.031H193.46V242.04ZM-156.074 243.918V242.04H-154.187V243.918H-156.074ZM-163.632 245.796H-165.519V243.918H-163.632V245.796ZM-154.187 245.796V243.918H-152.3V245.796H-154.187ZM-165.519 251.439H-167.406V245.796H-165.519V247.674H-163.632V249.552H-165.519V251.43V251.439ZM34.7559 249.561V251.439H32.8689V245.796H34.7559V247.674H36.6429V249.552H34.7559V249.561ZM-152.3 247.683V249.561H-154.187V247.683H-152.3ZM-31.3733 249.561H-33.2603V247.683H-31.3733V249.561ZM-150.404 249.561V251.439H-152.291V249.561H-150.404ZM-173.076 266.481H-174.963V258.96H-173.076V255.195H-171.189V251.43H-167.406V253.308H-169.293V258.951H-171.18V260.829H-173.067V262.707H-171.18V264.585H-173.067V266.463L-173.076 266.481ZM-150.404 251.439H-148.517V253.317H-150.404V251.439ZM-31.3733 253.317H-33.2603V251.439H-31.3733V253.317ZM34.7559 253.317V251.439H36.6429V253.317H34.7559ZM-146.63 255.204H-144.743V257.082H-146.63V255.204ZM-33.2603 255.204H-31.3733V257.082H-33.2603V255.204ZM36.6429 255.204V257.082H34.7559V255.204H36.6429ZM193.46 257.082V255.204H195.347V257.082H193.46ZM38.5299 262.726H36.6429V260.848H34.7559V258.97H36.6429V257.092H38.5299V262.735V262.726ZM-142.846 258.96H-140.959V260.838H-142.846V258.96ZM-31.3733 260.838H-33.2603V258.96H-31.3733V260.838ZM195.357 258.96V260.838H193.47V258.96H195.357ZM197.244 260.838V270.237H199.131V272.115H197.244V273.993H199.131V275.871H197.244V277.749H199.131V279.627H197.244V281.505H199.131V283.383H197.244V285.261H199.131V287.139H197.244V289.017H199.131V290.895H197.244V292.773H199.131V294.651H197.244V296.529H199.131V298.407H197.244V300.285H195.357V268.323H193.47V266.445H195.357V264.567H193.47V262.689H195.357V260.811H197.244V260.838ZM-139.072 262.726H-137.185V264.603H-139.072V262.726ZM36.6429 262.726V264.603H34.7559V262.726H36.6429ZM38.5299 266.481H40.417V268.359H38.5299V270.237H36.6429V264.594H38.5299V266.472V266.481ZM-178.746 283.402H-180.633V277.758H-178.746V275.88H-180.633V274.003H-178.746V270.237H-176.859V266.472H-174.972V272.115H-176.859V281.514H-178.746V283.392V283.402ZM-133.402 268.359H-135.289V266.481H-133.402V268.359ZM-129.628 272.125H-131.515V270.247H-129.628V272.125ZM-112.617 270.247H-110.73V272.125H-112.617V270.247ZM-37.0436 270.247H-35.1566V272.125H-37.0436V270.247ZM38.5299 272.125V270.247H40.417V272.125H38.5299ZM-125.845 275.88H-127.732V274.003H-125.845V275.88ZM-123.958 274.003H-122.071V275.88H-123.958V274.003ZM-116.4 274.003H-114.513V275.88H-116.4V274.003ZM40.4262 274.003V275.88H38.5392V274.003H40.4262ZM-120.174 277.768H-118.287V279.646H-120.174V277.768ZM-37.0436 277.768H-35.1566V279.646H-37.0436V277.768ZM42.3132 281.524H40.4262V279.646H38.5392V277.768H42.3225V281.533L42.3132 281.524ZM40.4262 281.524V283.402H38.5392V281.524H40.4262ZM40.4262 285.289V283.411H42.3132V289.054H40.4262V287.176H38.5392V285.298H40.4262V285.289ZM-120.174 285.289H-118.287V287.167H-120.174V285.289ZM-105.06 285.289H-103.173V287.167H-105.06V285.289ZM-99.3894 290.923H-101.276V289.045H-99.3894V290.923ZM-40.8176 289.045H-38.9306V290.923H-40.8176V289.045ZM42.3132 294.688V296.566H40.4262V290.923H42.3132V292.801H44.2003V294.679H42.3132V294.688ZM-123.958 292.81H-122.071V294.688H-123.958V292.81ZM-89.945 292.81H-88.058V294.688H-89.945V292.81ZM-40.8176 292.81H-38.9306V294.688H-40.8176V292.81ZM-123.958 296.566H-122.071V298.444H-123.958V296.566ZM-78.6136 296.566H-76.7266V298.444H-78.6136V296.566ZM-40.8176 296.566H-38.9306V298.444H-40.8176V296.566ZM42.3132 298.444V296.566H44.2003V298.444H42.3132ZM76.3167 300.331H78.2037V302.209H68.7593V300.331H74.4297V298.453H76.3167V300.331ZM-123.958 300.331H-122.071V302.209H-123.958V300.331ZM-67.273 300.331H-65.386V302.209H-67.273V300.331ZM-63.4989 300.331H-61.6119V302.209H-63.4989V300.331ZM-59.7156 300.331H-57.8286V302.209H-59.7156V300.331ZM-40.8176 300.331H-38.9306V302.209H-40.8176V300.331ZM42.3132 300.331H44.2003V302.209H42.3132V300.331ZM66.8723 300.331V302.209H64.9853V300.331H66.8723ZM197.244 302.209V300.331H199.131V302.209H197.244ZM-125.845 302.209H-123.958V304.087H-125.845V302.209ZM-42.7139 302.209H-40.8269V304.087H-42.7139V302.209ZM57.4279 302.209V304.087H55.5409V302.209H57.4279ZM61.202 304.087H63.089V305.965H57.4187V304.087H59.3057V302.209H61.1927V304.087H61.202ZM63.0983 302.209H64.9853V304.087H63.0983V302.209ZM66.8723 302.209H68.7593V304.087H66.8723V302.209ZM195.357 302.209H197.244V304.087H199.131V305.965H197.244V307.843H195.357V302.2V302.209ZM-127.732 304.087H-125.845V305.965H-127.732V304.087ZM-55.9416 304.087H-54.0546V305.965H-55.9416V304.087ZM-52.1583 304.087H-50.2713V305.965H-52.1583V304.087ZM-48.3842 304.087H-46.4972V305.965H-48.3842V304.087ZM-44.6009 304.087H-42.7139V305.965H-44.6009V304.087ZM-40.8176 305.965V304.087H-38.9306V305.965H-40.8176ZM44.2003 305.965H42.3132V304.087H44.2003V305.965ZM49.8706 304.087H55.5409V305.965H49.8706V304.087ZM-29.4862 305.965V307.843H-31.3733V305.965H-29.4862ZM34.7559 307.852H36.6429V309.73H30.9726V307.852H32.8596V305.974H34.7466V307.852H34.7559ZM38.5299 305.965V307.843H36.6429V305.965H38.5299ZM42.3132 305.965V307.843H40.4262V305.965H42.3132ZM44.2003 307.852V305.974H46.0873V307.852H44.2003ZM47.9836 305.965H49.8706V307.843H47.9836V305.965ZM-127.732 307.852H-125.845V309.73H-127.732V307.852ZM-29.4862 307.852H-27.5992V309.73H-29.4862V307.852ZM-25.7029 307.852H-23.8159V309.73H-25.7029V307.852ZM-21.9289 307.852H-20.0419V309.73H-21.9289V307.852ZM-18.1456 307.852H-16.2585V309.73H-18.1456V307.852ZM-14.3715 307.852H-12.4845V309.73H-14.3715V307.852ZM-10.5882 307.852H-8.70119V309.73H-10.5882V307.852ZM-4.92714 307.852V309.73H-6.81418V307.852H-4.92714ZM-1.14384 307.852V309.73H-3.03088V307.852H-1.14384ZM0.743179 307.852H6.4135V309.73H4.52647V311.608H2.63945V309.73H0.752426V307.852H0.743179ZM10.1876 309.73H8.30052V307.852H13.9709V309.73H12.0838V311.608H10.1968V309.73H10.1876ZM17.7449 309.73H15.8579V307.852H21.5282V309.73H19.6412V311.608H17.7542V309.73H17.7449ZM23.4152 307.852H29.0856V309.73H23.4152V307.852ZM38.5299 307.852H40.417V309.73H38.5299V307.852ZM44.2003 307.852V309.73H42.3132V307.852H44.2003ZM189.686 309.73V307.852H191.573V309.73H189.686ZM195.357 307.852V309.73H193.47V307.852H195.357ZM197.244 309.73V307.852H199.131V309.73H197.244ZM-42.7139 309.73H-40.8269V311.608H-42.7139V309.73ZM-4.92714 309.73H-3.04012V311.608H-4.92714V309.73ZM-1.14384 309.73H0.743179V311.608H-1.14384V309.73ZM6.4135 311.608V309.73H8.30052V311.608H6.4135ZM13.9709 311.608V309.73H15.8579V311.608H13.9709ZM46.0873 315.373H44.2003V313.495H42.3132V311.617H44.2003V309.739H46.0873V315.382V315.373ZM195.357 309.73H197.244V311.608H199.131V313.486H197.244V315.364H195.357V313.486H193.47V311.608H195.357V309.73ZM-127.732 311.608H-125.845V313.486H-127.732V311.608ZM-44.6009 311.608H-42.7139V313.486H-44.6009V311.608ZM191.573 311.608V313.486H189.686V311.608H191.573ZM-129.628 313.495H-127.741V315.373H-129.628V313.495ZM193.46 315.373H195.347V317.251H193.46V319.129H191.573V317.251H189.686V315.373H191.573V313.495H193.46V315.373ZM-42.7139 315.373V317.251H-44.6009V315.373H-42.7139ZM44.2003 315.373V317.251H42.3132V315.373H44.2003ZM-129.628 317.251H-127.741V319.129H-129.628V317.251ZM-42.7139 317.251H-40.8269V319.129H-42.7139V317.251ZM46.0873 322.894H47.9743V324.772H46.0873V326.65H44.2003V317.251H46.0873V322.894ZM195.357 319.129V317.251H197.244V319.129H195.357ZM-131.515 319.129H-129.628V321.007H-131.515V319.129ZM-44.6009 319.129H-42.7139V321.007H-44.6009V319.129ZM189.686 319.129H191.573V321.007H189.686V319.129ZM193.46 319.129H195.347V321.007H193.46V319.129ZM-129.628 322.894V321.016H-127.741V322.894H-129.628ZM195.357 322.894V321.016H197.244V322.894H195.357ZM-131.515 322.894H-129.628V324.772H-131.515V322.894ZM-44.6009 322.894H-42.7139V324.772H-44.6009V322.894ZM191.573 324.772H189.686V322.894H191.573V324.772ZM193.46 322.894H195.347V324.772H193.46V322.894ZM189.686 330.415H187.799V328.537H185.912V326.659H187.799V324.781H189.686V326.659H191.573V328.537H189.686V330.415ZM-131.515 326.65H-129.628V328.528H-131.515V326.65ZM-44.6009 326.65H-42.7139V328.528H-44.6009V326.65ZM46.0873 328.537V326.659H47.9743V328.537H46.0873ZM195.357 328.537H193.47V326.659H195.357V328.537ZM-133.402 328.537H-131.515V334.18H-133.402V328.537ZM191.573 330.415V328.537H193.46V330.415H195.347V332.293H193.46V334.171H191.573V332.293H189.686V330.415H191.573ZM-44.6009 330.415H-42.7139V332.293H-44.6009V330.415ZM46.0873 330.415H47.9743V332.293H46.0873V330.415ZM185.903 334.171H184.016V330.406H187.799V332.284H185.912V334.162L185.903 334.171ZM-46.488 332.293H-44.6009V334.171H-46.488V332.293ZM-135.289 334.171H-133.402V336.049H-135.289V334.171ZM-44.6009 336.058V334.18H-42.7139V336.058H-44.6009ZM46.0873 334.171H47.9743V336.049H46.0873V334.171ZM184.016 336.058H182.129V334.18H184.016V336.058ZM191.573 336.058H189.686V334.18H191.573V336.058ZM193.46 336.058V334.18H195.347V336.058H193.46ZM-133.402 337.936V336.058H-131.515V341.701H-133.402V339.823H-135.289V337.945H-133.402V337.936ZM-46.488 336.058H-44.6009V337.936H-46.488V336.058ZM182.129 339.814H178.346V337.936H180.233V336.058H182.12V339.823L182.129 339.814ZM189.686 336.058V337.936H187.799V336.058H189.686ZM191.573 336.058H193.46V341.701H191.573V339.823H189.686V337.945H191.573V336.067V336.058ZM-46.488 339.814H-44.6009V341.692H-46.488V339.814ZM178.346 345.457H176.459V343.579H174.572V341.701H176.459V339.823H178.346V345.466V345.457ZM189.686 339.814V341.692H187.799V339.814H189.686ZM-135.289 341.692H-133.402V343.57H-135.289V341.692ZM-48.3842 341.692H-46.4972V343.57H-48.3842V341.692ZM189.686 341.692H191.573V343.57H189.686V341.692ZM-46.488 345.457V343.579H-44.6009V345.457H-46.488ZM187.799 343.579H189.686V345.457H187.799V343.579ZM-135.289 345.457H-133.402V347.335H-135.289V345.457ZM-48.3842 345.457H-46.4972V347.335H-48.3842V345.457ZM174.572 349.213H172.684V345.448H176.468V347.326H174.581V349.204L174.572 349.213ZM187.799 345.457V347.335H185.912V345.457H187.799ZM189.686 347.335V345.457H191.573V347.335H189.686ZM-46.488 349.213V347.335H-44.6009V349.213H-46.488ZM159.457 362.377H155.673V360.499H157.561V358.621H159.448V356.743H161.335V354.865H163.222V352.987H165.109V351.11H168.892V347.344H170.779V349.222H172.666V351.1H170.779V352.978H168.892V354.856H165.109V358.621H161.325V360.499H159.438V362.377H159.457ZM187.799 347.335H189.686V352.978H187.799V351.1H185.912V349.222H187.799V347.344V347.335ZM-133.402 351.1H-135.289V349.222H-133.402V351.1ZM-48.3842 349.213H-46.4972V351.091H-48.3842V349.213ZM-46.488 352.978V351.1H-44.6009V352.978H-46.488ZM-48.3842 352.978H-46.4972V354.856H-48.3842V352.978ZM185.903 352.978H187.79V354.856H185.903V352.978ZM-46.488 356.734V354.856H-44.6009V356.734H-46.488ZM184.016 354.856H185.903V356.734H184.016V354.856ZM-48.3842 356.734H-46.4972V358.612H-48.3842V356.734ZM185.903 358.621V356.743H187.79V358.621H185.903ZM-46.488 360.499V358.621H-44.6009V360.499H-46.488ZM184.016 358.621H185.903V364.264H184.016V362.387H182.129V360.509H184.016V358.631V358.621ZM-48.3842 360.499H-46.4972V362.377H-48.3842V360.499ZM-48.3842 364.255H-46.4972V366.133H-48.3842V364.255ZM182.129 364.255H184.016V366.133H182.129V364.255ZM180.242 366.142H182.129V368.02H180.242V366.142ZM-48.3842 368.02H-46.4972V369.898H-48.3842V368.02ZM182.129 369.898V368.02H184.016V369.898H182.129ZM180.242 369.898H182.129V371.776H180.242V369.898ZM-48.3842 371.776H-46.4972V373.654H-48.3842V371.776ZM178.346 371.776H180.233V373.654H178.346V371.776ZM-127.732 377.419V375.541H-122.061V377.419H-127.732ZM-46.488 377.419H-48.375V375.541H-46.488V377.419ZM178.346 379.297H176.459V375.532H180.242V377.41H178.355V379.288L178.346 379.297ZM-122.071 379.297V377.419H-116.4V379.297H-114.513V381.175H-120.184V379.297H-122.071ZM-48.3842 377.419V379.297H-50.2713V377.419H-48.3842ZM-46.488 381.185H-48.375V379.307H-46.488V381.185ZM176.459 381.185H174.572V379.307H176.459V381.185ZM-114.504 383.063V381.185H-112.617V383.063H-114.504ZM-112.617 384.94V383.063H-110.73V381.185H-108.843V383.063H-103.173V384.94H-101.286V386.818H-99.3987V384.94H-97.5116V386.818H-95.6246V388.696H-103.182V386.818H-106.965V384.94H-112.636H-112.617ZM-48.3842 384.94V386.818H-50.2713V381.175H-48.3842V383.053H-46.4972V384.931H-48.3842V384.94ZM176.459 384.94H174.572V383.063H176.459V384.94ZM174.572 386.828H172.684V384.95H174.572V386.828ZM-46.488 388.706H-48.375V386.828H-46.488V388.706ZM172.675 388.706H170.788V386.828H172.675V388.706ZM-95.6154 390.584V388.706H-93.7283V390.584H-95.6154ZM-89.945 388.706V390.584H-91.8321V388.706H-89.945ZM170.788 388.706V390.584H172.675V392.462H170.788V394.34H168.901V388.696H170.788V388.706ZM-78.6136 392.462V394.34H-84.284V392.462H-89.9543V390.584H-80.5099V392.462H-78.6229H-78.6136ZM-65.386 394.349V396.227H-67.273V398.105H-71.0563V396.227H-78.6136V394.349H-76.7266V392.471H-74.8396V394.349H-65.3952H-65.386ZM167.014 394.349H168.901V396.227H167.014V394.349ZM165.118 396.227H167.005V398.105H165.118V396.227ZM163.231 398.105H165.118V399.983H163.231V398.105ZM165.118 403.748H163.231V401.87H165.118V403.748ZM163.231 405.626H161.344V403.748H163.231V405.626ZM161.344 407.504H159.457V405.626H161.344V407.504ZM159.457 409.391H157.57V407.513H159.457V409.391ZM157.561 411.269H155.673V409.391H157.561V411.269ZM155.673 416.912H153.786V415.034H151.899V413.156H153.786V411.278H155.673V416.921V416.912ZM131.114 415.025H133.001V416.903H134.888V418.781H133.001V422.546H129.218V420.668H131.105V415.025H131.114ZM150.003 416.912V418.79H148.116V416.912H150.003ZM153.786 418.79H151.899V416.912H153.786V418.79ZM151.899 420.668H150.012V418.79H151.899V420.668ZM146.229 422.546H144.342V420.668H150.012V422.546H148.125V424.424H146.238V422.546H146.229ZM144.342 424.433H142.455V422.555H144.342V424.433ZM129.227 431.954H127.34V430.076H125.453V428.198H127.34V424.433H131.124V426.311H129.237V431.954H129.227ZM142.446 426.311H140.559V424.433H142.446V426.311ZM144.342 424.433H146.229V426.311H144.342V424.433ZM138.672 430.067H136.785V428.189H138.672V426.311H140.559V428.189H142.446V430.067H140.559V431.945H138.672V430.067ZM142.446 426.311H144.333V428.189H142.446V426.311ZM136.785 431.954H134.898V430.076H136.785V431.954ZM127.331 433.832H125.444V431.954H127.331V433.832ZM134.888 433.832H133.001V431.954H134.888V433.832ZM136.785 431.954H138.672V433.832H136.785V431.954ZM123.557 437.588H121.67V435.71H123.557V433.832H125.444V435.71H127.331V437.588H125.444V439.466H123.557V437.588ZM127.331 435.71V433.832H129.218V435.71H127.331ZM129.227 437.588V435.71H131.114V433.832H133.001V435.71H134.888V437.588H133.001V439.466H131.114V437.588H129.227ZM134.888 433.832H136.775V435.71H134.888V433.832ZM121.67 443.231H119.783V437.588H121.67V439.466H123.557V441.344H121.67V443.222V443.231ZM125.444 441.353V439.475H127.331V441.353H125.444ZM129.227 439.475H131.114V441.353H129.227V439.475ZM114.113 450.752H112.226V443.231H116.009V441.353H117.896V443.231H119.783V445.109H117.896V446.987H116.009V445.109H114.122V446.987H116.009V448.865H114.122V450.743L114.113 450.752ZM125.444 443.231H127.331V445.109H121.661V443.231H123.548V441.353H125.435V443.231H125.444ZM127.331 441.353H129.218V443.231H127.331V441.353ZM110.329 446.996H108.442V445.118H110.329V446.996ZM119.774 445.109H121.661V446.987H119.774V445.109ZM104.659 448.874H102.772V446.996H108.442V448.874H106.555V450.752H104.668V448.874H104.659ZM117.887 446.996H119.774V448.874H117.887V446.996ZM102.772 450.752H100.885V448.874H102.772V450.752ZM116 448.874H117.887V450.752H116V448.874ZM85.7703 456.395H83.8833V454.517H89.5536V452.639H93.3369V450.761H100.894V452.639H99.0073V454.517H97.1202V452.639H95.2332V454.517H93.3462V456.395H87.6758V458.273H85.7888V456.395H85.7703ZM112.216 450.752V452.63H110.329V454.508H108.442V450.743H112.226L112.216 450.752ZM114.113 450.752H116V452.63H114.113V450.752ZM112.216 454.517V452.639H114.103V454.517H112.216ZM104.659 454.517H108.442V456.395H106.555V458.273H104.668V454.508L104.659 454.517ZM55.5409 463.916H53.6539V462.038H59.3242V460.16H68.7686V458.282H78.213V456.404H83.8833V458.282H81.9962V460.16H72.5519V462.038H66.8816V463.916H57.4372V465.794H55.5502V463.916H55.5409ZM98.9887 458.273H104.659V460.151H98.9887V458.273ZM97.1017 460.16H98.9887V462.038H97.1017V460.16ZM93.3277 463.916H91.4406V462.038H93.3277V463.916ZM95.2147 462.038H97.1017V463.916H95.2147V462.038ZM91.4314 465.794H89.5444V463.916H91.4314V465.794ZM89.5444 467.681H83.874V465.803H89.5444V467.681ZM80.1 467.681V469.559H78.213V467.681H80.1ZM83.874 469.559H81.987V467.681H83.874V469.559ZM76.3167 469.559H78.2037V471.437H76.3167V469.559ZM80.1 471.437V469.559H81.987V471.437H80.1ZM72.5426 473.315H74.4297V475.193H68.7593V473.315H70.6464V471.437H72.5334V473.315H72.5426ZM74.4297 471.437H76.3167V473.315H74.4297V471.437ZM66.8723 473.315V475.193H64.9853V473.315H66.8723ZM61.202 477.08H63.089V478.958H57.4187V477.08H59.3057V475.202H61.1927V477.08H61.202ZM63.0983 475.202H64.9853V477.08H63.0983V475.202ZM66.8723 475.202H68.7593V477.08H66.8723V475.202ZM38.5299 480.836H36.6429V478.958H34.7559V477.08H40.4262V478.958H38.5392V480.836H38.5299ZM51.7576 480.836V478.958H49.8706V477.08H55.5409V478.958H53.6539V480.836H51.7669H51.7576ZM47.9836 478.958H49.8706V480.836H47.9836V478.958ZM36.6429 480.836V482.714H34.7559V484.592H32.8689V482.714H30.9818V480.836H36.6522H36.6429ZM40.4262 484.601V482.724H38.5392V480.846H44.2095V482.724H42.3225V484.601H40.4355H40.4262ZM46.0873 480.836H47.9743V482.714H46.0873V480.836ZM27.1985 482.724V484.601H25.3115V482.724H27.1985ZM29.0856 482.724H30.9726V484.601H29.0856V482.724ZM36.6429 482.724H38.5299V484.601H36.6429V482.724ZM-1.14384 488.357V486.479H-3.03088V484.601H2.63945V486.479H0.752426V488.357H-1.1346H-1.14384ZM6.4135 488.357V486.479H4.52647V484.601H10.1968V486.479H8.30978V488.357H6.42274H6.4135ZM12.0838 486.479V484.601H13.9709V486.479H12.0838ZM15.8579 486.479V484.601H17.7449V486.479H15.8579ZM19.6412 486.479V484.601H21.5282V486.479H19.6412ZM23.4152 484.601H25.3023V486.479H23.4152V484.601ZM27.1985 484.601H29.0856V486.479H27.1985V484.601Z" fill="#758BF3"/>
</g>
<defs>
<clipPath id="clip0_826_6612">
<rect width="200.78" height="585.61" fill="white" transform="matrix(-1 0 0 1 200.78 0)"/>
</clipPath>
</defs>
</svg>
