<svg width="806" height="721" viewBox="0 0 806 721" fill="none" xmlns="http://www.w3.org/2000/svg">
<g clip-path="url(#clip0_1127_4087)">
<path fill-rule="evenodd" clip-rule="evenodd" d="M668.784 703.634V694.95H642.739V686.267H634.057V694.95H625.375V686.267H616.693V677.584H590.648V668.901H573.285V660.217H555.921V651.534H538.558V642.851H521.195V634.168H512.513V625.484H495.149V616.801H486.468V608.118H495.149V599.435H512.513V590.752H521.195V582.068H529.876V573.385H538.558V564.702H547.24V556.019H538.558V547.335H529.876V556.019H521.195V547.335H495.149V556.019H486.468V547.335H390.927V538.652H382.246V529.969H373.564V521.286H364.882V512.603H356.2V503.919H347.519V495.236H338.837V486.553H330.155V477.87H321.474V469.186H312.792V460.503H304.11V451.82H295.428V443.137H286.747V434.454H278.065V425.77H269.383V408.404H260.702V399.721H252.02V382.354H234.657V364.988H225.975V356.304H234.657V338.938H243.338V330.255H252.02V321.572H260.702V304.205H269.383V295.522H278.065V286.839H286.747V278.155H295.428V269.472H304.11V260.789H312.792V252.106H321.474V243.423H312.792V234.739H304.11V243.423H295.428V252.106H286.747V260.789H278.065V269.472H269.383V278.155H260.702V286.839H252.02V304.205H243.338V312.888H234.657V321.572H225.975V330.255H217.293V338.938H208.611V330.255H199.93V312.888H191.248V304.205H182.566V278.155H173.885V260.789H165.203V243.423H156.521V226.056H165.203V217.373H182.566V208.69H217.293V200.006H252.02V191.323H295.428V182.64H338.837V173.957H330.155V165.274H321.474V173.957H312.792V165.274H304.11V173.957H251.978V182.64H217.251V191.323H191.206V200.006H165.161V208.69H139.116V182.64H130.434V139.224H121.753V78.3995H130.434V61.0331H139.116V43.6666H156.479V26.3002H182.525V17.6169H208.57V8.9337H251.978V17.6169H260.66V8.9337H269.342V0H173.801V8.68323H156.438V17.3665H139.074V26.0497H130.393V43.4161H121.711V60.7826H113.029V104.199H104.347V112.882H113.029V121.565H104.347V130.248H113.029V182.389H121.711V225.806H104.347V234.489H95.6657V243.172H69.6206V251.855H60.9389V260.539H52.2572V269.222H43.5755V277.905H34.8938V286.588H26.2121V295.271H17.5304V312.638H8.84866V330.004H0V390.829H8.68171V408.195H17.3634V425.562H34.7268V442.928H52.0902V460.294H69.4537V468.978H78.1354V477.661H95.4988V486.344H112.862V495.027H130.226V503.711H121.544V529.76H112.862V590.585H104.18V599.268H112.862V607.951H104.18V616.634H112.862V660.05H121.544V677.417H130.226V686.1H138.907V694.783H147.589V703.467H164.952V712.15H182.316V720.833H277.856V712.15H295.22V703.467H329.947V694.783H347.31V686.1H373.355V677.417H382.037V668.734H408.082V660.05H416.764V651.367H434.127V642.684H451.491V634.001H460.172V625.317H477.536V634.001H494.899V642.684H503.581V651.367H520.944V660.05H538.308V668.734H555.671V677.417H573.034V686.1H599.08V694.783H607.761V703.467H633.806V712.15H642.488V703.467H651.17V712.15H659.851V703.467H668.533L668.784 703.634ZM208.444 390.912V373.546H217.126V382.229H225.808V390.912H234.49V408.279H251.853V425.645H260.535V443.012H269.216V451.695H277.898V460.378H286.58V469.061H295.262V477.744H303.943V486.428H312.625V495.111H321.307V503.794H329.988V512.477H338.67V521.161H347.352V529.844H356.033V538.527H329.988V529.844H269.175V521.161H225.766V512.477H199.721V503.794H173.676V495.111H156.312V469.061H164.994V451.695H173.676V434.328H182.358V416.962H191.039V408.279H199.721V390.912H208.403H208.444ZM112.904 477.786V469.103H95.5405V460.42H86.8588V451.736H69.4954V443.053H60.8137V434.37H52.132V425.687H43.4503V417.004H34.7686V399.637H26.0869V382.271H17.4052V338.855H26.0869V321.488H34.7686V304.122H43.4503V295.438H52.132V286.755H60.8137V278.072H69.4954V269.389H78.1771V260.706H95.5405V252.022H112.904V243.339H121.586V234.656H138.949V252.022H147.631V269.389H156.312V286.755H164.994V304.122H173.676V321.488H182.358V330.171H191.039V347.538H199.721V373.587H191.039V382.271H182.358V399.637H173.676V417.004H164.994V425.687H156.312V443.053H147.631V460.42H138.949V486.469H130.267V477.786H112.904ZM451.657 616.76H442.976V625.443H425.612V634.126H416.931V642.809H399.567V651.492H382.204V660.176H364.84V668.859H338.795V677.542H330.114V686.225H295.387V694.909H260.66V703.592H182.483V694.909H173.801V686.225H156.438V677.542H147.756V668.859H139.074V651.492H130.393V625.443H121.711V582.027H130.393V573.343H121.711V564.66H130.393V538.61H139.074V512.561H165.119V521.244H191.165V529.927H234.573V538.61H260.618V547.294H321.432V555.977H382.246V564.66H399.609V582.027H416.972V590.71H434.336V599.393H443.018V608.076H451.699V616.76H451.657ZM477.703 599.393H460.339V590.71H442.976V582.027H434.294V573.343H425.612V564.66H512.471V573.343H503.789V582.027H495.108V590.71H477.744V599.393H477.703ZM286.622 8.68323H277.94V0H286.622V8.68323ZM816.414 208.481H807.733V199.798H799.051V173.748H807.733V147.698H816.414V86.874H807.733V60.8243H799.051V43.4579H781.688V26.0914H755.642V17.4082H738.279V8.72497H729.597V17.4082H720.916V8.72497H694.87V17.4082H686.189V8.72497H677.507V17.4082H668.825V8.72497H660.144V0H773.048V8.68323H781.729V17.3665H790.411V26.0497H799.093V34.7329H807.774V43.4161H816.456V60.7826H825.138V78.149H833.82V147.657H825.138V182.389H816.456V208.439L816.414 208.481ZM269.258 17.3665V8.68323H277.94V17.3665H269.258ZM286.622 17.3665V8.68323H295.303V17.3665H286.622ZM642.697 8.68323V17.3665H634.015V8.68323H642.697ZM651.42 8.68323H660.102V17.3665H651.42V8.68323ZM277.94 17.3665H286.622V26.0497H277.94V17.3665ZM295.303 26.0497V17.3665H303.985V26.0497H295.303ZM312.667 17.3665H321.348V26.0497H312.667V17.3665ZM338.712 26.0497H330.03V17.3665H338.712V26.0497ZM616.652 17.3665V26.0497H607.97V17.3665H616.652ZM625.333 17.3665H634.015V26.0497H625.333V17.3665ZM642.697 17.3665H651.378V26.0497H642.697V17.3665ZM616.652 26.0497H625.333V34.7329H616.652V26.0497ZM330.03 34.7329H338.712V43.4161H330.03V34.7329ZM347.394 34.7329H356.075V43.4161H347.394V34.7329ZM364.799 34.7329H373.48V43.4161H364.799V34.7329ZM581.925 43.4161H573.243V34.7329H581.925V43.4161ZM599.288 43.4161H590.607V34.7329H599.288V43.4161ZM408.207 60.8243H399.525V52.1411H408.207V60.8243ZM547.156 60.8243H538.475V52.1411H547.156V60.8243ZM425.571 78.1908H416.889V69.5076H425.571V78.1908ZM529.793 78.1908H521.111V69.5076H529.793V78.1908ZM442.934 95.5572H434.252V86.874H442.934V95.5572ZM460.339 112.924H451.657V104.24H460.339V112.924ZM495.066 112.924H486.384V104.24H495.066V112.924ZM442.934 130.29H434.252V121.607H442.934V130.29ZM512.429 130.29H503.748V121.607H512.429V130.29ZM408.207 147.657H399.525V138.973H408.207V147.657ZM425.571 147.657H416.889V138.973H425.571V147.657ZM529.793 147.657H521.111V138.973H529.793V147.657ZM373.48 156.382V165.065H364.799V156.382H373.48ZM390.844 165.065H382.162V156.382H390.844V165.065ZM408.207 165.065H399.525V156.382H408.207V165.065ZM425.571 165.065H416.889V156.382H425.571V165.065ZM442.934 165.065H434.252V156.382H442.934V165.065ZM477.703 165.065H469.021V156.382H477.703V165.065ZM512.429 165.065H503.748V156.382H512.429V165.065ZM547.156 165.065H538.475V156.382H547.156V165.065ZM347.394 173.748H338.712V165.065H347.394V173.748ZM382.162 173.748H373.48V165.065H382.162V173.748ZM347.394 182.431V173.748H356.075V182.431H347.394ZM373.48 182.431H364.799V173.748H373.48V182.431ZM382.162 182.431V173.748H390.844V182.431H382.162ZM564.561 182.431H555.88V173.748H564.561V182.431ZM599.288 182.431H590.607V173.748H599.288V182.431ZM616.652 182.431H607.97V173.748H616.652V182.431ZM634.015 182.431H625.333V173.748H634.015V182.431ZM651.42 182.431H642.739V173.748H651.42V182.431ZM668.784 173.748V182.431H660.102V173.748H668.784ZM686.147 182.431H677.465V173.748H686.147V182.431ZM356.117 191.114V182.431H364.799V191.114H356.117ZM668.784 191.114V182.431H677.465V191.114H668.784ZM712.192 182.431V191.114H703.51V182.431H712.192ZM347.394 191.114H356.075V199.798H347.394V191.114ZM364.799 199.798V191.114H373.48V199.798H364.799ZM581.925 199.798H573.243V191.114H581.925V199.798ZM677.465 199.798V191.114H686.147V199.798H677.465ZM694.829 191.114H703.51V199.798H694.829V191.114ZM720.874 191.114V199.798H712.192V191.114H720.874ZM738.237 191.114V199.798H729.556V191.114H738.237ZM755.642 191.114V199.798H746.961V191.114H755.642ZM338.712 199.798H347.394V208.481H356.075V217.164H330.03V225.847H338.712V234.531H312.667V225.847H321.348V208.481H338.712V199.798ZM720.874 199.798H729.556V208.481H720.874V199.798ZM738.237 199.798H746.919V208.481H738.237V199.798ZM929.318 330.088H938V382.229H929.318V390.912H920.637V399.595H929.318V408.279H920.637V416.962H911.955V408.279H903.273V399.595H911.955V382.229H920.637V330.088H911.955V321.405H903.273V304.038H894.592V286.672H877.228V269.305H859.865V260.622H842.501V251.939H833.82V243.256H816.456V234.572H799.093V251.939H781.729V243.256H790.411V234.572H781.729V225.889H790.411V217.206H781.729V225.889H773.048V217.206H755.684V199.839H764.366V208.523H807.774V217.206H816.456V225.889H833.82V234.572H842.501V243.256H859.865V251.939H877.228V260.622H885.91V269.305H894.592V277.988H903.273V286.672H911.955V295.355H920.637V312.721H929.318V330.088ZM599.288 217.164H590.607V208.481H599.288V217.164ZM616.652 217.164H607.97V208.481H616.652V217.164ZM616.652 234.531H607.97V225.847H616.652V234.531ZM625.333 243.214H634.015V251.897H625.333V243.214ZM773.006 251.939H781.688V260.622H773.006V251.939ZM642.697 260.622H651.378V269.305H642.697V260.622ZM781.688 269.305V260.622H790.369V269.305H781.688ZM773.006 269.305H781.688V286.672H764.324V277.988H773.006V269.305ZM660.102 277.988H668.784V286.672H660.102V277.988ZM755.642 286.672H764.324V295.355H755.642V286.672ZM686.147 304.038H677.465V295.355H686.147V304.038ZM764.324 304.038V295.355H773.006V304.038H764.324ZM755.642 304.038H764.324V312.721H755.642V304.038ZM686.147 321.405H677.465V312.721H686.147V321.405ZM703.51 321.405H694.829V312.721H703.51V321.405ZM746.919 312.721H755.601V321.405H746.919V312.721ZM738.237 321.405H746.919V330.088H738.237V321.405ZM694.829 330.088H703.51V338.771H694.829V330.088ZM720.874 338.771H712.192V330.088H720.874V338.771ZM729.556 330.088H738.237V338.771H729.556V330.088ZM712.192 347.454H720.874V356.137H712.192V347.454ZM738.237 356.179H729.556V347.496H738.237V356.179ZM712.192 364.862H720.874V373.546H712.192V364.862ZM729.556 364.862H738.237V373.546H729.556V364.862ZM694.829 382.229H703.51V390.912H694.829V382.229ZM729.556 382.229H738.237V390.912H729.556V382.229ZM755.642 390.912H746.961V382.229H755.642V390.912ZM686.147 408.279H677.465V399.595H686.147V408.279ZM746.919 399.595H755.601V408.279H746.919V399.595ZM660.102 416.962H668.784V425.645H660.102V416.962ZM686.147 425.645H677.465V416.962H686.147V425.645ZM773.006 425.645H764.324V416.962H773.006V425.645ZM894.592 416.962H911.955V425.645H903.273V443.012H885.91V434.328H894.592V416.962ZM764.324 434.328H773.006V443.012H764.324V434.328ZM877.228 443.012H885.91V451.695H877.228V443.012ZM642.697 451.736H651.378V460.42H642.697V451.736ZM790.369 460.42H781.688V451.736H790.369V460.42ZM859.865 460.42H851.183V451.736H859.865V460.42ZM868.546 451.736H877.228V460.42H868.546V451.736ZM851.183 460.42V469.103H842.501V460.42H851.183ZM859.865 460.42H868.546V469.103H859.865V460.42ZM625.333 469.103H634.015V477.786H625.333V469.103ZM781.688 469.103H790.369V477.786H781.688V469.103ZM825.096 477.786H816.414V469.103H825.096V477.786ZM833.778 469.103H842.46V477.786H833.778V469.103ZM851.183 469.103H859.865V477.786H851.183V469.103ZM616.652 495.153H607.97V486.469H616.652V495.153ZM781.688 486.469H790.369V495.153H781.688V486.469ZM807.733 495.153H799.051V486.469H807.733V495.153ZM816.414 486.469H825.096V495.153H816.414V486.469ZM607.97 503.836H599.288V495.153H607.97V503.836ZM599.288 512.519H590.607V503.836H599.288V512.519ZM746.919 503.836H755.601V512.519H746.919V503.836ZM764.324 503.836H773.006V512.519H764.324V503.836ZM781.688 503.836H790.369V512.519H781.688V503.836ZM799.051 503.836H807.733V512.519H799.051V503.836ZM590.607 521.202H581.925V512.519H590.607V521.202ZM581.925 529.886H573.243V521.202H581.925V529.886ZM677.465 521.202H686.147V529.886H677.465V521.202ZM694.829 521.202H703.51V529.886H694.829V521.202ZM712.192 521.202H720.874V529.886H712.192V521.202ZM729.556 521.202H738.237V529.886H729.556V521.202ZM799.051 521.202H807.733V529.886H799.051V521.202ZM573.243 538.569H564.561V529.886H573.243V538.569ZM642.697 538.569H634.015V529.886H642.697V538.569ZM807.733 538.569V529.886H816.414V538.569H807.733ZM547.156 547.252H538.475V538.569H564.52V547.252H555.838V555.935H547.156V547.252ZM573.243 547.252V538.569H581.925V547.252H573.243ZM599.288 547.252H590.607V538.569H599.288V547.252ZM607.97 538.569H616.652V547.252H607.97V538.569ZM625.333 538.569H634.015V547.252H625.333V538.569ZM642.697 547.252V538.569H651.378V547.252H642.697ZM660.102 538.569H668.784V547.252H660.102V538.569ZM816.414 547.252V538.569H825.096V547.252H816.414ZM564.561 547.252H573.243V555.935H564.561V547.252ZM581.925 555.977V547.294H590.607V555.977H581.925ZM555.88 555.977H564.561V564.66H555.88V555.977ZM825.096 564.66H816.414V555.977H825.096V564.66ZM825.096 582.027H816.414V573.343H825.096V582.027ZM825.096 599.393H816.414V590.71H825.096V599.393ZM825.096 616.76H816.414V608.076H825.096V616.76ZM825.096 634.126H816.414V625.443H825.096V634.126ZM816.414 642.809H825.096V651.492H816.414V642.809ZM807.733 660.217V668.901H799.051V660.217H807.733ZM816.414 677.584H807.733V668.901H816.414V677.584ZM790.369 677.584V686.267H781.688V677.584H790.369ZM807.733 686.267H799.051V677.584H807.733V686.267ZM790.369 694.95V686.267H799.051V694.95H790.369ZM773.006 703.634H764.324V694.95H773.006V703.634ZM781.688 694.95H790.369V703.634H781.688V694.95ZM694.829 712.317H703.51V721H660.102V712.317H668.784V703.634H677.465V712.317H686.147V703.634H694.829V712.317ZM712.192 703.634V712.317H703.51V703.634H712.192ZM729.556 712.317H738.237V721H712.192V712.317H720.874V703.634H729.556V712.317ZM746.919 703.634V712.317H738.237V703.634H746.919ZM764.324 712.317H755.642V703.634H764.324V712.317ZM746.919 721V712.317H755.601V721H746.919Z" fill="#5A91E2" fill-opacity="0.3"/>
</g>
<defs>
<clipPath id="clip0_1127_4087">
<rect width="938" height="721" fill="white"/>
</clipPath>
</defs>
</svg>
