<svg width="15" height="15" viewBox="0 0 15 15" fill="none" xmlns="http://www.w3.org/2000/svg">
<path d="M3.36765 4.65816C4.08631 4.65816 4.6689 4.07557 4.6689 3.35691C4.6689 2.63825 4.08631 2.05566 3.36765 2.05566C2.64899 2.05566 2.06641 2.63825 2.06641 3.35691C2.06641 4.07557 2.64899 4.65816 3.36765 4.65816Z" fill="#758BF3"/>
<path d="M5.86062 5.61982H8.01721V6.60776C8.01721 6.60776 8.60242 5.43732 10.1947 5.43732C11.6151 5.43732 12.7918 6.13704 12.7918 8.26985V12.7673H10.5569V8.81483C10.5569 7.55667 9.88523 7.41829 9.37338 7.41829C8.31114 7.41829 8.12928 8.33455 8.12928 8.97894V12.7673H5.86062V5.61982Z" fill="#758BF3"/>
<path d="M2.23332 5.61982H4.50199V12.7673H2.23332V5.61982Z" fill="#758BF3"/>
</svg>
