<svg preserveAspectRatio="none" width="100%" height="100%" overflow="visible" style="display: block;" viewBox="0 0 225 173" fill="none" xmlns="http://www.w3.org/2000/svg">
<g id="Layer_1" clip-path="url(#clip0_865_412)">
<path id="Vector" fill-rule="evenodd" clip-rule="evenodd" d="M160.23 168.55V166.47H153.99V164.39H151.91V166.47H149.83V164.39H147.75V162.31H141.51V160.23H137.35V158.15H133.19V156.07H129.03V153.99H124.87V151.91H122.79V149.83H118.63V147.75H116.55V145.67H118.63V143.59H122.79V141.51H124.87V139.43H126.95V137.35H129.03V135.27H131.11V133.19H129.03V131.11H126.95V133.19H124.87V131.11H118.63V133.19H116.55V131.11H93.66V129.03H91.58V126.95H89.5V124.87H87.42V122.79H85.34V120.71H83.26V118.63H81.18V116.55H79.1V114.47H77.02V112.39H74.94V110.31H72.86V108.23H70.78V106.15H68.7V104.07H66.62V101.99H64.54V97.83H62.46V95.75H60.38V91.59H56.22V87.43H54.14V85.35H56.22V81.19H58.3V79.11H60.38V77.03H62.46V72.87H64.54V70.79H66.62V68.71H68.7V66.63H70.78V64.55H72.86V62.47H74.94V60.39H77.02V58.31H74.94V56.23H72.86V58.31H70.78V60.39H68.7V62.47H66.62V64.55H64.54V66.63H62.46V68.71H60.38V72.87H58.3V74.95H56.22V77.03H54.14V79.11H52.06V81.19H49.98V79.11H47.9V74.95H45.82V72.87H43.74V66.63H41.66V62.47H39.58V58.31H37.5V54.15H39.58V52.07H43.74V49.99H52.06V47.91H60.38V45.83H70.78V43.75H81.18V41.67H79.1V39.59H77.02V41.67H74.94V39.59H72.86V41.67H60.37V43.75H52.05V45.83H45.81V47.91H39.57V49.99H33.33V43.75H31.25V33.35H29.17V18.78H31.25V14.62H33.33V10.46H37.49V6.3H43.73V4.22H49.97V2.14H60.37V4.22H62.45V2.14H64.53V0H41.64V2.08H37.48V4.16H33.32V6.24H31.24V10.4H29.16V14.56H27.08V24.96H25V27.04H27.08V29.12H25V31.2H27.08V43.69H29.16V54.09H25V56.17H22.92V58.25H16.68V60.33H14.6V62.41H12.52V64.49H10.44V66.57H8.36V68.65H6.28V70.73H4.2V74.89H2.12V79.05H0V93.62H2.08V97.78H4.16V101.94H8.32V106.1H12.48V110.26H16.64V112.34H18.72V114.42H22.88V116.5H27.04V118.58H31.2V120.66H29.12V126.9H27.04V141.47H24.96V143.55H27.04V145.63H24.96V147.71H27.04V158.11H29.12V162.27H31.2V164.35H33.28V166.43H35.36V168.51H39.52V170.59H43.68V172.67H66.57V170.59H70.73V168.51H79.05V166.43H83.21V164.35H89.45V162.27H91.53V160.19H97.77V158.11H99.85V156.03H104.01V153.95H108.17V151.87H110.25V149.79H114.41V151.87H118.57V153.95H120.65V156.03H124.81V158.11H128.97V160.19H133.13V162.27H137.29V164.35H143.53V166.43H145.61V168.51H151.85V170.59H153.93V168.51H156.01V170.59H158.09V168.51H160.17L160.23 168.55ZM49.94 93.64V89.48H52.02V91.56H54.1V93.64H56.18V97.8H60.34V101.96H62.42V106.12H64.5V108.2H66.58V110.28H68.66V112.36H70.74V114.44H72.82V116.52H74.9V118.6H76.98V120.68H79.06V122.76H81.14V124.84H83.22V126.92H85.3V129H79.06V126.92H64.49V124.84H54.09V122.76H47.85V120.68H41.61V118.6H37.45V112.36H39.53V108.2H41.61V104.04H43.69V99.88H45.77V97.8H47.85V93.64H49.93H49.94ZM27.05 114.45V112.37H22.89V110.29H20.81V108.21H16.65V106.13H14.57V104.05H12.49V101.97H10.41V99.89H8.33V95.73H6.25V91.57H4.17V81.17H6.25V77.01H8.33V72.85H10.41V70.77H12.49V68.69H14.57V66.61H16.65V64.53H18.73V62.45H22.89V60.37H27.05V58.29H29.13V56.21H33.29V60.37H35.37V64.53H37.45V68.69H39.53V72.85H41.61V77.01H43.69V79.09H45.77V83.25H47.85V89.49H45.77V91.57H43.69V95.73H41.61V99.89H39.53V101.97H37.45V106.13H35.37V110.29H33.29V116.53H31.21V114.45H27.05ZM108.21 147.74H106.13V149.82H101.97V151.9H99.89V153.98H95.73V156.06H91.57V158.14H87.41V160.22H81.17V162.3H79.09V164.38H70.77V166.46H62.45V168.54H43.72V166.46H41.64V164.38H37.48V162.3H35.4V160.22H33.32V156.06H31.24V149.82H29.16V139.42H31.24V137.34H29.16V135.26H31.24V129.02H33.32V122.78H39.56V124.86H45.8V126.94H56.2V129.02H62.44V131.1H77.01V133.18H91.58V135.26H95.74V139.42H99.9V141.5H104.06V143.58H106.14V145.66H108.22V147.74H108.21ZM114.45 143.58H110.29V141.5H106.13V139.42H104.05V137.34H101.97V135.26H122.78V137.34H120.7V139.42H118.62V141.5H114.46V143.58H114.45ZM68.67 2.08H66.59V0H68.67V2.08ZM195.6 49.94H193.52V47.86H191.44V41.62H193.52V35.38H195.6V20.81H193.52V14.57H191.44V10.41H187.28V6.25H181.04V4.17H176.88V2.09H174.8V4.17H172.72V2.09H166.48V4.17H164.4V2.09H162.32V4.17H160.24V2.09H158.16V0H185.21V2.08H187.29V4.16H189.37V6.24H191.45V8.32H193.53V10.4H195.61V14.56H197.69V18.72H199.77V35.37H197.69V43.69H195.61V49.93L195.6 49.94ZM64.51 4.16V2.08H66.59V4.16H64.51ZM68.67 4.16V2.08H70.75V4.16H68.67ZM153.98 2.08V4.16H151.9V2.08H153.98ZM156.07 2.08H158.15V4.16H156.07V2.08ZM66.59 4.16H68.67V6.24H66.59V4.16ZM70.75 6.24V4.16H72.83V6.24H70.75ZM74.91 4.16H76.99V6.24H74.91V4.16ZM81.15 6.24H79.07V4.16H81.15V6.24ZM147.74 4.16V6.24H145.66V4.16H147.74ZM149.82 4.16H151.9V6.24H149.82V4.16ZM153.98 4.16H156.06V6.24H153.98V4.16ZM147.74 6.24H149.82V8.32H147.74V6.24ZM79.07 8.32H81.15V10.4H79.07V8.32ZM83.23 8.32H85.31V10.4H83.23V8.32ZM87.4 8.32H89.48V10.4H87.4V8.32ZM139.42 10.4H137.34V8.32H139.42V10.4ZM143.58 10.4H141.5V8.32H143.58V10.4ZM97.8 14.57H95.72V12.49H97.8V14.57ZM131.09 14.57H129.01V12.49H131.09V14.57ZM101.96 18.73H99.88V16.65H101.96V18.73ZM126.93 18.73H124.85V16.65H126.93V18.73ZM106.12 22.89H104.04V20.81H106.12V22.89ZM110.29 27.05H108.21V24.97H110.29V27.05ZM118.61 27.05H116.53V24.97H118.61V27.05ZM106.12 31.21H104.04V29.13H106.12V31.21ZM122.77 31.21H120.69V29.13H122.77V31.21ZM97.8 35.37H95.72V33.29H97.8V35.37ZM101.96 35.37H99.88V33.29H101.96V35.37ZM126.93 35.37H124.85V33.29H126.93V35.37ZM89.48 37.46V39.54H87.4V37.46H89.48ZM93.64 39.54H91.56V37.46H93.64V39.54ZM97.8 39.54H95.72V37.46H97.8V39.54ZM101.96 39.54H99.88V37.46H101.96V39.54ZM106.12 39.54H104.04V37.46H106.12V39.54ZM114.45 39.54H112.37V37.46H114.45V39.54ZM122.77 39.54H120.69V37.46H122.77V39.54ZM131.09 39.54H129.01V37.46H131.09V39.54ZM83.23 41.62H81.15V39.54H83.23V41.62ZM91.56 41.62H89.48V39.54H91.56V41.62ZM83.23 43.7V41.62H85.31V43.7H83.23ZM89.48 43.7H87.4V41.62H89.48V43.7ZM91.56 43.7V41.62H93.64V43.7H91.56ZM135.26 43.7H133.18V41.62H135.26V43.7ZM143.58 43.7H141.5V41.62H143.58V43.7ZM147.74 43.7H145.66V41.62H147.74V43.7ZM151.9 43.7H149.82V41.62H151.9V43.7ZM156.07 43.7H153.99V41.62H156.07V43.7ZM160.23 41.62V43.7H158.15V41.62H160.23ZM164.39 43.7H162.31V41.62H164.39V43.7ZM85.32 45.78V43.7H87.4V45.78H85.32ZM160.23 45.78V43.7H162.31V45.78H160.23ZM170.63 43.7V45.78H168.55V43.7H170.63ZM83.23 45.78H85.31V47.86H83.23V45.78ZM87.4 47.86V45.78H89.48V47.86H87.4ZM139.42 47.86H137.34V45.78H139.42V47.86ZM162.31 47.86V45.78H164.39V47.86H162.31ZM166.47 45.78H168.55V47.86H166.47V45.78ZM172.71 45.78V47.86H170.63V45.78H172.71ZM176.87 45.78V47.86H174.79V45.78H176.87ZM181.04 45.78V47.86H178.96V45.78H181.04ZM81.15 47.86H83.23V49.94H85.31V52.02H79.07V54.1H81.15V56.18H74.91V54.1H76.99V49.94H81.15V47.86ZM172.71 47.86H174.79V49.94H172.71V47.86ZM176.87 47.86H178.95V49.94H176.87V47.86ZM222.65 79.07H224.73V91.56H222.65V93.64H220.57V95.72H222.65V97.8H220.57V99.88H218.49V97.8H216.41V95.72H218.49V91.56H220.57V79.07H218.49V76.99H216.41V72.83H214.33V68.67H210.17V64.51H206.01V62.43H201.85V60.35H199.77V58.27H195.61V56.19H191.45V60.35H187.29V58.27H189.37V56.19H187.29V54.11H189.37V52.03H187.29V54.11H185.21V52.03H181.05V47.87H183.13V49.95H193.53V52.03H195.61V54.11H199.77V56.19H201.85V58.27H206.01V60.35H210.17V62.43H212.25V64.51H214.33V66.59H216.41V68.67H218.49V70.75H220.57V74.91H222.65V79.07ZM143.58 52.02H141.5V49.94H143.58V52.02ZM147.74 52.02H145.66V49.94H147.74V52.02ZM147.74 56.18H145.66V54.1H147.74V56.18ZM149.82 58.26H151.9V60.34H149.82V58.26ZM185.2 60.35H187.28V62.43H185.2V60.35ZM153.98 62.43H156.06V64.51H153.98V62.43ZM187.28 64.51V62.43H189.36V64.51H187.28ZM185.2 64.51H187.28V68.67H183.12V66.59H185.2V64.51ZM158.15 66.59H160.23V68.67H158.15V66.59ZM181.04 68.67H183.12V70.75H181.04V68.67ZM164.39 72.83H162.31V70.75H164.39V72.83ZM183.12 72.83V70.75H185.2V72.83H183.12ZM181.04 72.83H183.12V74.91H181.04V72.83ZM164.39 76.99H162.31V74.91H164.39V76.99ZM168.55 76.99H166.47V74.91H168.55V76.99ZM178.95 74.91H181.03V76.99H178.95V74.91ZM176.87 76.99H178.95V79.07H176.87V76.99ZM166.47 79.07H168.55V81.15H166.47V79.07ZM172.71 81.15H170.63V79.07H172.71V81.15ZM174.79 79.07H176.87V81.15H174.79V79.07ZM170.63 83.23H172.71V85.31H170.63V83.23ZM176.87 85.32H174.79V83.24H176.87V85.32ZM170.63 87.4H172.71V89.48H170.63V87.4ZM174.79 87.4H176.87V89.48H174.79V87.4ZM166.47 91.56H168.55V93.64H166.47V91.56ZM174.79 91.56H176.87V93.64H174.79V91.56ZM181.04 93.64H178.96V91.56H181.04V93.64ZM164.39 97.8H162.31V95.72H164.39V97.8ZM178.95 95.72H181.03V97.8H178.95V95.72ZM158.15 99.88H160.23V101.96H158.15V99.88ZM164.39 101.96H162.31V99.88H164.39V101.96ZM185.2 101.96H183.12V99.88H185.2V101.96ZM214.33 99.88H218.49V101.96H216.41V106.12H212.25V104.04H214.33V99.88ZM183.12 104.04H185.2V106.12H183.12V104.04ZM210.17 106.12H212.25V108.2H210.17V106.12ZM153.98 108.21H156.06V110.29H153.98V108.21ZM189.36 110.29H187.28V108.21H189.36V110.29ZM206.01 110.29H203.93V108.21H206.01V110.29ZM208.09 108.21H210.17V110.29H208.09V108.21ZM203.93 110.29V112.37H201.85V110.29H203.93ZM206.01 110.29H208.09V112.37H206.01V110.29ZM149.82 112.37H151.9V114.45H149.82V112.37ZM187.28 112.37H189.36V114.45H187.28V112.37ZM197.68 114.45H195.6V112.37H197.68V114.45ZM199.76 112.37H201.84V114.45H199.76V112.37ZM203.93 112.37H206.01V114.45H203.93V112.37ZM147.74 118.61H145.66V116.53H147.74V118.61ZM187.28 116.53H189.36V118.61H187.28V116.53ZM193.52 118.61H191.44V116.53H193.52V118.61ZM195.6 116.53H197.68V118.61H195.6V116.53ZM145.66 120.69H143.58V118.61H145.66V120.69ZM143.58 122.77H141.5V120.69H143.58V122.77ZM178.95 120.69H181.03V122.77H178.95V120.69ZM183.12 120.69H185.2V122.77H183.12V120.69ZM187.28 120.69H189.36V122.77H187.28V120.69ZM191.44 120.69H193.52V122.77H191.44V120.69ZM141.5 124.85H139.42V122.77H141.5V124.85ZM139.42 126.93H137.34V124.85H139.42V126.93ZM162.31 124.85H164.39V126.93H162.31V124.85ZM166.47 124.85H168.55V126.93H166.47V124.85ZM170.63 124.85H172.71V126.93H170.63V124.85ZM174.79 124.85H176.87V126.93H174.79V124.85ZM191.44 124.85H193.52V126.93H191.44V124.85ZM137.34 129.01H135.26V126.93H137.34V129.01ZM153.98 129.01H151.9V126.93H153.98V129.01ZM193.52 129.01V126.93H195.6V129.01H193.52ZM131.09 131.09H129.01V129.01H135.25V131.09H133.17V133.17H131.09V131.09ZM137.34 131.09V129.01H139.42V131.09H137.34ZM143.58 131.09H141.5V129.01H143.58V131.09ZM145.66 129.01H147.74V131.09H145.66V129.01ZM149.82 129.01H151.9V131.09H149.82V129.01ZM153.98 131.09V129.01H156.06V131.09H153.98ZM158.15 129.01H160.23V131.09H158.15V129.01ZM195.6 131.09V129.01H197.68V131.09H195.6ZM135.26 131.09H137.34V133.17H135.26V131.09ZM139.42 133.18V131.1H141.5V133.18H139.42ZM133.18 133.18H135.26V135.26H133.18V133.18ZM197.68 135.26H195.6V133.18H197.68V135.26ZM197.68 139.42H195.6V137.34H197.68V139.42ZM197.68 143.58H195.6V141.5H197.68V143.58ZM197.68 147.74H195.6V145.66H197.68V147.74ZM197.68 151.9H195.6V149.82H197.68V151.9ZM195.6 153.98H197.68V156.06H195.6V153.98ZM193.52 158.15V160.23H191.44V158.15H193.52ZM195.6 162.31H193.52V160.23H195.6V162.31ZM189.36 162.31V164.39H187.28V162.31H189.36ZM193.52 164.39H191.44V162.31H193.52V164.39ZM189.36 166.47V164.39H191.44V166.47H189.36ZM185.2 168.55H183.12V166.47H185.2V168.55ZM187.28 166.47H189.36V168.55H187.28V166.47ZM166.47 170.63H168.55V172.71H158.15V170.63H160.23V168.55H162.31V170.63H164.39V168.55H166.47V170.63ZM170.63 168.55V170.63H168.55V168.55H170.63ZM174.79 170.63H176.87V172.71H170.63V170.63H172.71V168.55H174.79V170.63ZM178.95 168.55V170.63H176.87V168.55H178.95ZM183.12 170.63H181.04V168.55H183.12V170.63ZM178.95 172.71V170.63H181.03V172.71H178.95Z" fill="var(--fill-0, #03FBCE)"/>
</g>
<defs>
<clipPath id="clip0_865_412">
<rect width="224.73" height="172.71" fill="white"/>
</clipPath>
</defs>
</svg>
