<svg width="206" height="36" viewBox="0 0 206 36" fill="none" xmlns="http://www.w3.org/2000/svg">
<mask id="mask0_854_118" style="mask-type:luminance" maskUnits="userSpaceOnUse" x="0" y="0" width="206" height="36">
<path d="M7.04576 17.9704L21.7969 32.5123L18.259 36L0 18L12.6824 5.49754L16.1903 8.92611L7.04576 17.9704ZM36.518 18L23.8357 30.5025L11.1233 17.9704L20.2978 8.92611L14.7211 3.48768L18.259 0L36.518 18ZM29.4723 17.9704L23.8057 12.3842L18.1391 17.9704L23.8057 23.5567L29.4723 17.9704ZM47.9112 7.95074V23.4089H50.9094V7.95074H47.9112ZM52.6783 9.45813L54.837 11.5862L56.9957 9.45813L54.837 7.33005L52.6783 9.45813ZM53.3679 12.3842V23.4089H56.3661V12.3842H53.3679ZM58.165 20.9557L58.195 23.4089H69.5281V20.9852H61.8827L69.3782 14.7488V12.3842H58.5547L58.5847 14.7488H65.6005L58.165 20.9557ZM70.9973 20.7783C70.9973 22.6404 72.4364 23.7635 74.8649 23.7635C77.0536 23.7635 78.6726 22.8177 79.752 21.4286V23.4089H82.6602V16.8473C82.6602 13.7734 80.5015 12.0591 76.6339 12.0591C74.805 12.0591 73.3658 12.4434 71.8667 13.1232V15.2808C73.7256 14.601 74.9549 14.3054 76.334 14.3054C78.4927 14.3054 79.722 15.133 79.722 16.6108V16.9951H78.9725C73.6057 16.9951 70.9973 18.2365 70.9973 20.7783ZM73.8455 20.3645C73.8455 19.3301 75.1947 18.7685 79.0924 18.7685H79.752V20.1281C78.4328 21.1034 77.0836 21.6355 75.8243 21.6355C74.6251 21.6355 73.8455 21.1626 73.8455 20.3645ZM84.9089 23.4089H87.9071V16.197C88.7466 15.3695 89.9159 14.9261 91.2351 14.9261C91.8347 14.9261 92.4643 15.0148 93.1539 15.1921V12.266C92.8841 12.2365 92.5843 12.2069 92.3144 12.2069C90.4855 12.2069 88.7166 13.064 87.8171 14.9557V12.3842H84.9089V23.4089ZM99.8399 12.0591C96.6318 12.0591 94.2632 14.3941 94.2632 17.9113C94.2632 21.399 96.6618 23.8227 99.8399 23.8227C101.759 23.8227 103.348 22.936 104.427 21.2217V23.4089H107.425V7.95074H104.427V14.4236C103.498 12.9163 101.819 12.0591 99.8399 12.0591ZM97.3514 17.9409C97.3514 15.8128 98.7605 14.3941 100.949 14.3941C103.078 14.3941 104.547 15.7537 104.547 17.7931V18C104.547 20.0985 103.108 21.4877 100.949 21.4877C98.7605 21.4877 97.3514 20.069 97.3514 17.9409ZM117.619 23.8227C120.827 23.8227 123.226 21.4877 123.226 17.9704C123.226 14.4828 120.827 12.0296 117.619 12.0296C115.7 12.0296 114.111 12.9163 113.032 14.6305V12.3547H110.034V27.6059H113.032V21.399C113.961 22.9655 115.67 23.8227 117.619 23.8227ZM112.942 18.0887V17.8818C112.942 15.7833 114.381 14.3941 116.54 14.3941C118.729 14.3941 120.138 15.8128 120.138 17.9409C120.138 20.069 118.729 21.4877 116.54 21.4877C114.411 21.4877 112.942 20.1281 112.942 18.0887ZM125.145 23.4089H128.143V16.197C128.982 15.3695 130.152 14.9261 131.471 14.9261C132.07 14.9261 132.7 15.0148 133.39 15.1921V12.266C133.12 12.2365 132.82 12.2069 132.55 12.2069C130.721 12.2069 128.952 13.064 128.053 14.9557V12.3842H125.145V23.4089ZM140.975 23.8227C145.053 23.8227 147.661 21.4581 147.661 17.9704C147.661 14.3941 145.053 12.0591 140.975 12.0591C136.928 12.0591 134.289 14.3941 134.289 17.9704C134.289 21.4581 136.898 23.8227 140.975 23.8227ZM137.347 17.9704C137.347 15.8128 138.816 14.4236 140.975 14.4236C143.104 14.4236 144.603 15.8128 144.603 17.9704C144.603 20.0985 143.134 21.4581 140.975 21.4581C138.846 21.4581 137.347 20.0985 137.347 17.9704ZM153.598 22.3153V12.3842H150.599V22.4039C150.599 24.5025 149.31 25.3892 147.031 25.3892C146.342 25.3892 145.532 25.3005 144.813 25.1232L145.203 27.4581C146.042 27.6946 147.061 27.8424 148.051 27.8424C151.529 27.8424 153.598 25.8621 153.598 22.3153ZM149.94 9.45813L152.098 11.5862L154.257 9.45813L152.098 7.33005L149.94 9.45813ZM155.726 17.9113C155.726 21.4877 158.605 23.8227 163.012 23.8227C164.841 23.8227 166.43 23.468 167.689 22.9655L167.989 20.6897C166.37 21.1921 164.901 21.4877 163.402 21.4877C160.733 21.4877 159.054 20.4236 158.664 18.6207H167.989V17.202C167.989 14.0985 165.62 12.0887 162.022 12.0887C158.185 12.0591 155.726 14.335 155.726 17.9113ZM158.634 16.8177C158.754 15.133 159.954 14.2463 162.022 14.2463C164.031 14.2463 165.141 15.1034 165.231 16.8177H158.634ZM176.174 12.0591C172.006 12.0591 169.428 14.3054 169.428 17.9113C169.428 21.5468 172.036 23.8227 176.204 23.8227C178.003 23.8227 179.442 23.4975 180.671 22.7882L180.881 20.335C179.832 20.9852 178.213 21.3695 176.804 21.3695C174.075 21.3695 172.516 19.9803 172.516 17.8522C172.516 15.6946 174.045 14.3941 176.564 14.3941C177.853 14.3941 179.112 14.7192 180.671 15.4581L180.581 13.0049C179.052 12.3547 177.703 12.0591 176.174 12.0591ZM184.089 20.0099C184.089 22.1675 186.068 23.8227 189.096 23.8227C190.265 23.8227 191.405 23.5862 192.484 23.1429L192.874 20.867C191.705 21.3103 190.685 21.399 189.996 21.399C188.107 21.399 187.057 20.601 187.057 19.0345V14.6601H192.394V12.3842H187.057V8.6601L184.119 10.67V12.4138H181.631V14.6897H184.059V20.0099H184.089ZM194.433 15.3103C194.433 19.803 203.038 18.1182 203.038 20.335C203.038 21.133 201.958 21.5764 199.89 21.5764C198.151 21.5764 196.562 21.2217 194.553 20.335L194.733 22.7882C196.412 23.5567 198.181 23.8227 200.189 23.8227C203.817 23.8227 205.826 22.67 205.826 20.3645C205.826 15.5764 197.161 17.3793 197.161 15.3695C197.161 14.6897 198.151 14.2759 200.219 14.2759C202.108 14.2759 203.607 14.6305 205.077 15.2808L204.957 12.8867C203.487 12.266 201.898 12.0591 200.309 12.0591C196.532 12.0591 194.433 13.1823 194.433 15.3103Z" fill="white"/>
</mask>
<g mask="url(#mask0_854_118)">
<rect width="205.856" height="36" fill="#03FBCE"/>
</g>
</svg>
