<svg width="244" height="33" viewBox="0 0 244 33" fill="none" xmlns="http://www.w3.org/2000/svg">
<g clip-path="url(#clip0_1111_9000)">
<path d="M30.6118 11.5478L27.014 15.0769L25.2151 16.8415L23.4162 18.6061H7.22529L3.6275 22.1352L1.8277 23.8998L0.0288086 25.6625V29.1917L1.79147 30.9562H1.8277V30.9925L3.55413 32.7208H23.4162L23.7351 32.408L25.2151 30.9562L25.4461 30.7296L27.014 29.1917H16.2198V25.6625H32.4116V29.1917H36.0094V23.8989H30.6118L32.4116 22.137V22.1343H32.4152L34.2105 20.377V20.3697H34.2177L36.0094 18.616V18.6052H36.0203L37.8083 16.8551V16.8406H37.8228L39.4958 15.203V15.076H39.6072V11.5469H30.6118V11.5478ZM3.6275 29.1917V25.6625H12.622V29.1917H3.6275ZM34.2105 16.8406H30.6118V13.3114H34.2105V16.8406Z" fill="white" stroke="white" stroke-width="0.65" stroke-miterlimit="10"/>
<path d="M43.8533 22.127L43.8384 22.142" stroke="white" stroke-width="0.65" stroke-miterlimit="10"/>
<path d="M40.2482 22.1304L40.2407 22.1379" stroke="white" stroke-width="0.65" stroke-miterlimit="10"/>
<path d="M38.4464 22.1323L38.4414 22.136" stroke="white" stroke-width="0.65" stroke-miterlimit="10"/>
<path d="M42.0508 22.1289L42.0396 22.1402" stroke="white" stroke-width="0.65" stroke-miterlimit="10"/>
<path d="M50.1753 1.78613L50.1902 1.80115" stroke="white" stroke-width="0.65" stroke-miterlimit="10"/>
<path d="M50.1787 5.39551L50.1862 5.40302" stroke="white" stroke-width="0.65" stroke-miterlimit="10"/>
<path d="M50.1807 7.19971L50.1856 7.2046" stroke="white" stroke-width="0.65" stroke-miterlimit="10"/>
<path d="M50.1768 3.59082L50.188 3.60208" stroke="white" stroke-width="0.65" stroke-miterlimit="10"/>
<path d="M57.1118 29.1819V26.8007H68.1253V29.1819H57.1118ZM58.6326 15.7327V13.3516H62.5964V15.7327H58.6326ZM61.1181 29.1819V13.3516H64.0746V29.1819H61.1181Z" fill="white"/>
<path d="M71.0601 29.1817V26.8006H81.9875V29.1817H71.0601ZM72.5818 19.6797V17.2986H76.5672V19.6797H72.5818ZM74.9595 15.5612V12.7085H78.1306V15.5612H74.9595ZM75.0881 29.1817V17.2986H78.0446V29.1817H75.0881Z" fill="white"/>
<path d="M84.808 29.1815V27.0361L89.3506 21.8884L91.5362 19.6577L88.3433 19.6795H85.0861V17.2983H95.028V19.4002L90.4429 24.5915L88.2355 26.8221L91.4284 26.8004H95.028V29.1815H84.8071H84.808Z" fill="white"/>
<path d="M105.682 29.1818L105.575 26.865V21.2666C105.575 20.6092 105.347 20.0942 104.889 19.7224C104.432 19.3506 103.803 19.1647 103.003 19.1647C102.204 19.1647 101.582 19.3334 101.097 19.6689C100.611 20.0053 100.34 20.4732 100.282 21.0744H97.4111C97.4827 20.2311 97.7644 19.5084 98.2571 18.9081C98.7499 18.3078 99.4102 17.8463 100.239 17.5244C101.067 17.2025 102.024 17.042 103.11 17.042C104.196 17.042 105.164 17.2134 105.971 17.557C106.778 17.8998 107.403 18.3976 107.846 19.0478C108.289 19.6988 108.51 20.4959 108.51 21.4398V29.1836H105.681L105.682 29.1818ZM101.717 29.4393C100.932 29.4393 100.242 29.2888 99.6493 28.9887C99.056 28.6885 98.5959 28.2705 98.2671 27.7337C97.9383 27.1978 97.7743 26.5857 97.7743 25.8993C97.7743 24.6697 98.2454 23.7185 99.1883 23.0466C100.131 22.3747 101.445 22.0383 103.131 22.0383H105.896V24.1193H103.046C102.303 24.1193 101.721 24.2553 101.3 24.5265C100.878 24.7985 100.667 25.1984 100.667 25.7279C100.667 26.1142 100.821 26.4361 101.128 26.6927C101.436 26.9502 101.86 27.079 102.404 27.079C103.132 27.079 103.782 26.8895 104.354 26.5105C104.926 26.1314 105.397 25.6137 105.768 24.9554L106.089 26.9929C105.718 27.808 105.161 28.4192 104.418 28.8263C103.676 29.2344 102.775 29.4375 101.718 29.4375L101.717 29.4393Z" fill="white"/>
<path d="M111.852 29.1819V17.2987H114.681L114.809 19.6155V29.1819H111.853H111.852ZM119.801 22.9614V21.4172C119.801 20.845 119.644 20.3844 119.33 20.0335C119.016 19.6835 118.551 19.5085 117.937 19.5085C117.222 19.5085 116.559 19.7624 115.944 20.2702C115.33 20.7779 114.78 21.6104 114.295 22.7692L113.973 20.174C114.317 19.4876 114.713 18.9118 115.163 18.4476C115.613 17.9833 116.113 17.6324 116.663 17.3966C117.212 17.1608 117.823 17.043 118.495 17.043C119.738 17.043 120.759 17.4147 121.559 18.1583C122.359 18.9018 122.76 19.9891 122.76 21.419V22.9633H119.803L119.801 22.9614Z" fill="white"/>
<path d="M130.396 17.0412C131.124 17.0412 131.799 17.1772 132.421 17.4483C133.042 17.7204 133.559 18.0994 133.974 18.5854V13.3516H136.888V29.1819H134.081L134.017 27.8308C133.602 28.3169 133.085 28.7068 132.463 28.9997C131.842 29.2925 131.153 29.4394 130.395 29.4394C129.367 29.4394 128.452 29.1647 127.653 28.6134C126.853 28.063 126.224 27.3194 125.767 26.3827C125.309 25.446 125.081 24.3987 125.081 23.2399C125.081 22.081 125.309 21.0128 125.767 20.0762C126.224 19.1395 126.852 18.3995 127.653 17.8564C128.452 17.3132 129.366 17.0412 130.395 17.0412H130.396ZM131.124 26.9948C131.781 26.9948 132.364 26.798 132.871 26.4045C133.378 26.0119 133.746 25.4859 133.974 24.8276V21.6313C133.746 20.9593 133.377 20.4334 132.871 20.0544C132.364 19.6754 131.781 19.4858 131.124 19.4858C130.525 19.4858 129.992 19.6463 129.528 19.9682C129.064 20.2902 128.7 20.7336 128.436 21.2985C128.172 21.8634 128.039 22.5108 128.039 23.2399C128.039 23.9689 128.172 24.5946 128.436 25.1595C128.701 25.7244 129.065 26.1714 129.528 26.4997C129.992 26.8289 130.525 26.993 131.124 26.993V26.9948Z" fill="white"/>
<path d="M147.22 17.041C148.277 17.041 149.202 17.313 149.995 17.8562C150.787 18.4003 151.412 19.1402 151.87 20.076C152.327 21.0127 152.555 22.0672 152.555 23.2397C152.555 24.4121 152.327 25.4458 151.87 26.3825C151.412 27.3192 150.787 28.0628 149.995 28.6132C149.202 29.1636 148.277 29.4393 147.22 29.4393C146.506 29.4393 145.842 29.2996 145.228 29.0212C144.613 28.7419 144.099 28.3665 143.685 27.895V33.0001H140.729V17.2985H143.578L143.642 18.607C144.056 18.121 144.574 17.7383 145.196 17.459C145.817 17.1798 146.492 17.041 147.22 17.041ZM146.491 26.9946C147.105 26.9946 147.644 26.8305 148.109 26.5013C148.573 26.1722 148.937 25.726 149.201 25.1611C149.466 24.5962 149.598 23.9569 149.598 23.2415C149.598 22.5261 149.466 21.865 149.201 21.3001C148.937 20.7352 148.573 20.2918 148.109 19.9699C147.644 19.648 147.105 19.4875 146.491 19.4875C145.877 19.4875 145.295 19.677 144.787 20.056C144.28 20.435 143.912 20.9465 143.684 21.5894V24.871C143.912 25.5148 144.28 26.0289 144.787 26.4152C145.295 26.8015 145.862 26.9946 146.491 26.9946Z" fill="white"/>
<path d="M155.083 29.1819V17.2987H157.912L158.041 19.6155V29.1819H155.084H155.083ZM163.033 22.9614V21.4172C163.033 20.845 162.875 20.3844 162.562 20.0335C162.247 19.6835 161.783 19.5085 161.169 19.5085C160.454 19.5085 159.79 19.7624 159.176 20.2702C158.562 20.7779 158.011 21.6104 157.526 22.7692L157.205 20.174C157.548 19.4876 157.944 18.9118 158.394 18.4476C158.844 17.9833 159.344 17.6324 159.894 17.3966C160.444 17.1608 161.054 17.043 161.727 17.043C162.969 17.043 163.99 17.4147 164.791 18.1583C165.591 18.9018 165.991 19.9891 165.991 21.419V22.9633H163.034L163.033 22.9614Z" fill="white"/>
<path d="M174.196 29.4392C172.939 29.4392 171.857 29.1889 170.95 28.6884C170.042 28.1878 169.35 27.4733 168.871 26.543C168.392 25.6135 168.154 24.5127 168.154 23.2396C168.154 21.9665 168.393 20.8303 168.871 19.9145C169.349 18.9996 170.042 18.2914 170.95 17.7908C171.857 17.2903 172.939 17.04 174.196 17.04C176.082 17.04 177.557 17.5904 178.621 18.6913C179.685 19.793 180.217 21.3082 180.217 23.2387C180.217 24.5118 179.978 25.6126 179.5 26.5421C179.021 27.4715 178.332 28.1869 177.432 28.6875C176.532 29.188 175.454 29.4383 174.196 29.4383V29.4392ZM174.196 27.0372C175.153 27.0372 175.906 26.698 176.457 26.0179C177.007 25.3388 177.282 24.413 177.282 23.2405C177.282 22.0681 177.007 21.1241 176.457 20.4522C175.907 19.7803 175.154 19.4439 174.196 19.4439C173.239 19.4439 172.468 19.7803 171.926 20.4522C171.382 21.1241 171.111 22.0536 171.111 23.2405C171.111 24.4275 171.382 25.3397 171.926 26.0179C172.468 26.6971 173.225 27.0372 174.196 27.0372Z" fill="white"/>
<path d="M189.292 17.2986V28.9242C189.292 29.7249 189.135 30.4331 188.82 31.0479C188.506 31.6627 188.063 32.1414 187.492 32.4851C186.92 32.8288 186.234 33.0001 185.435 33.0001H180.485V30.619H184.342C184.985 30.619 185.478 30.512 185.82 30.2971C186.164 30.0822 186.335 29.6324 186.335 28.946V17.2986H189.291H189.292ZM183.829 19.6797V17.2986H187.814V19.6797H183.829ZM186.206 15.5612V12.7085H189.377V15.5612H186.206Z" fill="white"/>
<path d="M198.556 29.4393C197.284 29.4393 196.196 29.189 195.288 28.6884C194.38 28.1879 193.681 27.4734 193.188 26.543C192.696 25.6136 192.449 24.5128 192.449 23.2397C192.449 21.9666 192.696 20.8268 193.188 19.9046C193.681 18.9824 194.391 18.2742 195.321 17.7809C196.249 17.2877 197.37 17.041 198.685 17.041C200.727 17.041 202.216 17.6132 203.152 18.7566C204.088 19.901 204.484 21.4733 204.341 23.4754H194.806V21.4162H201.341C201.284 20.8014 201.009 20.3045 200.516 19.9254C200.023 19.5464 199.406 19.3569 198.663 19.3569C197.562 19.3569 196.745 19.7006 196.209 20.3861C195.674 21.0725 195.406 22.0663 195.406 23.3675C195.406 24.054 195.527 24.676 195.77 25.2337C196.013 25.7913 196.366 26.2347 196.831 26.5639C197.294 26.893 197.869 27.0572 198.555 27.0572C199.298 27.0572 199.93 26.8713 200.451 26.4995C200.972 26.1277 201.29 25.649 201.405 25.0623H204.34C204.183 26.407 203.59 27.4725 202.562 28.2586C201.534 29.0448 200.198 29.4383 198.555 29.4383L198.556 29.4393Z" fill="white"/>
<path d="M212.591 29.4393C211.348 29.4393 210.273 29.189 209.366 28.6884C208.459 28.1879 207.767 27.4734 207.288 26.543C206.809 25.6136 206.57 24.5128 206.57 23.2397C206.57 21.9666 206.824 20.8231 207.331 19.8937C207.838 18.9643 208.545 18.2561 209.453 17.7701C210.359 17.284 211.427 17.041 212.656 17.041C213.699 17.041 214.627 17.2269 215.442 17.5987C216.256 17.9705 216.905 18.4964 217.392 19.1755C217.877 19.8547 218.149 20.659 218.206 21.5885H215.25C215.135 20.8884 214.853 20.3589 214.404 20.0016C213.953 19.6443 213.372 19.4657 212.657 19.4657C212.043 19.4657 211.501 19.6126 211.029 19.9055C210.558 20.1984 210.189 20.6237 209.925 21.1822C209.661 21.7399 209.529 22.4263 209.529 23.2415C209.529 24.443 209.818 25.3797 210.396 26.0516C210.975 26.7244 211.707 27.0599 212.593 27.0599C213.049 27.0599 213.464 26.9738 213.836 26.8024C214.207 26.631 214.521 26.3844 214.779 26.0625C215.036 25.7405 215.214 25.3724 215.314 24.958H218.27C218.171 25.8729 217.864 26.6636 217.349 27.3283C216.835 27.993 216.171 28.5116 215.356 28.8834C214.542 29.2552 213.621 29.4411 212.592 29.4411L212.591 29.4393Z" fill="white"/>
<path d="M220.584 19.6796V17.2984H229.177V19.6796H220.584ZM226.884 29.1816C226.112 29.1816 225.438 29.0102 224.86 28.6665C224.281 28.3229 223.838 27.8441 223.531 27.2293C223.224 26.6145 223.07 25.9136 223.07 25.1274V15.2174L226.026 13.8228V25.1265C226.026 25.4838 226.08 25.7885 226.187 26.0378C226.294 26.2881 226.494 26.4776 226.786 26.6064C227.079 26.7351 227.497 26.7995 228.04 26.7995H231.233V29.1807H226.883L226.884 29.1816Z" fill="white"/>
<path d="M238.879 29.4393C237.793 29.4393 236.836 29.257 236.008 28.8925C235.179 28.528 234.54 28.0093 234.09 27.3374C233.64 26.6655 233.408 25.8648 233.394 24.9353H236.136C236.122 25.6644 236.361 26.2365 236.854 26.6509C237.346 27.0662 238.014 27.273 238.857 27.273C239.514 27.273 240.043 27.1551 240.443 26.9193C240.843 26.6836 241.043 26.3653 241.043 25.9645C241.043 25.6218 240.907 25.3497 240.636 25.1493C240.364 24.9489 240.011 24.7884 239.576 24.6669C239.14 24.5454 238.658 24.4312 238.129 24.3242C237.6 24.2172 237.072 24.0884 236.544 23.9379C236.015 23.7874 235.529 23.5843 235.087 23.3267C234.644 23.0692 234.288 22.7301 234.016 22.3075C233.744 21.8859 233.609 21.3463 233.609 20.688C233.609 19.959 233.816 19.3224 234.231 18.7793C234.644 18.2361 235.227 17.8109 235.977 17.5026C236.727 17.1952 237.595 17.041 238.58 17.041C240.094 17.041 241.316 17.3919 242.244 18.092C243.172 18.7929 243.68 19.7649 243.765 21.009H241.044C241.001 20.4233 240.761 19.9762 240.326 19.6679C239.891 19.3605 239.316 19.2064 238.602 19.2064C237.973 19.2064 237.48 19.3243 237.124 19.56C236.767 19.7958 236.588 20.1213 236.588 20.5357C236.588 20.8649 236.724 21.1188 236.995 21.2974C237.266 21.476 237.62 21.6193 238.056 21.7263C238.491 21.8333 238.977 21.9339 239.512 22.0264C240.047 22.1198 240.576 22.2377 241.098 22.3801C241.619 22.5233 242.102 22.7228 242.545 22.9803C242.988 23.2379 243.341 23.5806 243.605 24.0095C243.87 24.4384 244.002 24.9888 244.002 25.6607C244.002 26.8477 243.537 27.7735 242.609 28.4382C241.681 29.1028 240.438 29.4356 238.881 29.4356L238.879 29.4393Z" fill="white"/>
</g>
<defs>
<clipPath id="clip0_1111_9000">
<rect width="244" height="33" fill="white"/>
</clipPath>
</defs>
</svg>
