<svg width="88" height="49" viewBox="0 0 88 49" fill="none" xmlns="http://www.w3.org/2000/svg">
<g clip-path="url(#clip0_824_3522)">
<path d="M1 0.992188C1 16.8188 6.39195 24.6442 18.0332 24.6442C6.39195 24.6442 1 32.181 1 48.0077C1 35.0241 11.5926 24.5035 24.6651 24.5035C11.5926 24.5035 1 13.9758 1 0.992188Z" fill="#758BF3"/>
<path d="M0.999034 49C0.446377 49 0 48.5567 0 48.0078C0 34.9467 3.74815 27.234 11.4145 24.6443C3.74815 22.0124 0 14.2151 0 0.992245C0 0.443343 0.446377 0 0.999034 0C1.55169 0 1.99807 0.443343 1.99807 0.992245C1.99807 13.4059 12.1655 23.5042 24.6641 23.5042C25.2167 23.5042 25.6631 23.9476 25.6631 24.4965C25.6631 25.0454 25.2167 25.4887 24.6641 25.4887C12.1655 25.4887 1.99807 35.5871 1.99807 48.0007C1.99807 48.5496 1.55169 48.993 0.999034 48.993V49ZM13.6393 26.0939C9.08341 27.1214 5.91626 29.901 4.04573 34.5667C6.42641 30.9707 9.74235 28.0362 13.6393 26.0939ZM3.88986 14.187C5.86667 19.5212 9.42351 22.5401 14.6738 23.3916C10.2383 21.4283 6.48309 18.2123 3.88986 14.187Z" fill="#758BF3"/>
<path d="M32.168 0.992188C32.168 16.8188 37.5599 24.6442 49.2011 24.6442C37.5599 24.6442 32.168 32.181 32.168 48.0077C32.168 35.0241 42.7606 24.5035 55.833 24.5035C42.7606 24.5035 32.168 13.9829 32.168 0.999225V0.992188Z" fill="#758BF3"/>
<path d="M32.167 48.9998C31.6143 48.9998 31.168 48.5565 31.168 48.0076C31.168 34.9465 34.9161 27.2338 42.5825 24.6441C34.9161 22.0192 31.168 14.2149 31.168 0.999081C31.168 0.450179 31.6143 0.00683594 32.167 0.00683594C32.7197 0.00683594 33.166 0.450179 33.166 0.999081C33.166 13.4127 43.3335 23.5111 55.8321 23.5111C56.3847 23.5111 56.8311 23.9544 56.8311 24.5033C56.8311 25.0522 56.3847 25.4956 55.8321 25.4956C43.3335 25.4956 33.166 35.5939 33.166 48.0076C33.166 48.5565 32.7197 48.9998 32.167 48.9998ZM44.8073 26.0937C40.2514 27.1212 37.0842 29.9008 35.2137 34.5665C37.5944 30.9705 40.9103 28.036 44.8073 26.0937ZM35.0578 14.1868C37.0346 19.528 40.5915 22.5399 45.8417 23.3914C41.4063 21.4281 37.6511 18.2121 35.0578 14.1868Z" fill="#758BF3"/>
<path d="M63.3301 0.992188C63.3301 16.8188 68.722 24.6442 80.3633 24.6442C68.722 24.6442 63.3301 32.181 63.3301 48.0077C63.3301 35.0241 73.9227 24.5035 86.9951 24.5035C73.9227 24.5035 63.3301 13.9829 63.3301 0.999225V0.992188Z" fill="#758BF3"/>
<path d="M63.3291 48.9998C62.7765 48.9998 62.3301 48.5565 62.3301 48.0076C62.3301 34.9465 66.0782 27.2338 73.7446 24.6441C66.0782 22.0192 62.3301 14.2149 62.3301 0.999081C62.3301 0.450179 62.7765 0.00683594 63.3291 0.00683594C63.8818 0.00683594 64.3281 0.450179 64.3281 0.999081C64.3281 13.4127 74.4956 23.5111 86.9942 23.5111C87.5468 23.5111 87.9932 23.9544 87.9932 24.5033C87.9932 25.0522 87.5468 25.4956 86.9942 25.4956C74.4956 25.4956 64.3281 35.5939 64.3281 48.0076C64.3281 48.5565 63.8818 48.9998 63.3291 48.9998ZM75.9694 26.0937C71.4135 27.1212 68.2463 29.9008 66.3758 34.5665C68.7565 30.9705 72.0724 28.036 75.9694 26.0937ZM66.2199 14.1868C68.1967 19.528 71.7536 22.5399 77.0038 23.3914C72.5684 21.4281 68.8132 18.2121 66.2199 14.1868Z" fill="#758BF3"/>
</g>
<defs>
<clipPath id="clip0_824_3522">
<rect width="88" height="49" fill="white"/>
</clipPath>
</defs>
</svg>
