<svg width="65" height="65" viewBox="0 0 65 65" fill="none" xmlns="http://www.w3.org/2000/svg">
<g clip-path="url(#clip0_1127_4016)">
<path d="M32.4966 52.3338C21.5592 52.3338 12.666 43.4345 12.666 32.4971C12.666 21.5596 21.5652 12.6604 32.4966 12.6604C43.428 12.6604 52.3333 21.5596 52.3333 32.4971C52.3333 43.4345 43.4341 52.3338 32.4966 52.3338ZM32.4966 14.3832C22.5055 14.3832 14.3767 22.512 14.3767 32.5031C14.3767 42.4943 22.5055 50.6231 32.4966 50.6231C42.4878 50.6231 50.6166 42.4943 50.6166 32.5031C50.6166 22.512 42.4878 14.3832 32.4966 14.3832Z" fill="#5A91E2"/>
<path d="M33.3584 0H31.6416V65H33.3584V0Z" fill="#5A91E2"/>
<path d="M65 31.6416H0V33.3584H65V31.6416Z" fill="#5A91E2"/>
</g>
<defs>
<clipPath id="clip0_1127_4016">
<rect width="65" height="65" fill="white"/>
</clipPath>
</defs>
</svg>
