<svg preserveAspectRatio="none" width="100%" height="100%" overflow="visible" style="display: block;" viewBox="0 0 51 51" fill="none" xmlns="http://www.w3.org/2000/svg">
<g id="Group">
<path id="Vector" d="M10.7088 50.7049C20.8837 33.1667 20.9345 25.5021 0 25.5021C20.9345 25.5021 29.783 17.8333 39.9578 0.29933C29.783 17.8333 29.7279 25.5021 50.6667 25.5021C29.7321 25.5021 20.8837 33.1709 10.7088 50.7049Z" fill="var(--fill-0, #758BF3)"/>
<path id="Vector_2" d="M11.2258 51L10.1876 50.4056C16.2349 39.9838 17.9681 34.0773 15.9806 30.6497C14.1753 27.5426 9.09847 26.0966 0 26.0966V24.9034C21.2481 24.9034 29.6474 16.8721 39.4408 0L40.4791 0.594445C34.4318 11.0162 32.6986 16.9227 34.6861 20.3503C36.4871 23.4574 41.564 24.9034 50.6667 24.9034V26.0966C29.4185 26.0966 21.0193 34.1279 11.2258 51ZM8.81031 25.5611C13.0523 26.3369 15.7179 27.8124 17.0146 30.0511C18.4682 32.5553 18.2944 35.9576 16.29 40.9872C19.5912 36.5563 22.7949 33.3985 26.3165 31.0292C30.6983 28.078 35.6735 26.2652 41.8564 25.4347C37.6144 24.6589 34.9488 23.1834 33.6521 20.9447C32.1985 18.4404 32.3723 15.0382 34.3767 10.0086C31.0755 14.4395 27.8718 17.5973 24.3502 19.9666C19.9683 22.9177 14.9932 24.7306 8.81031 25.5611Z" fill="var(--fill-0, #758BF3)"/>
</g>
</svg>
