<svg preserveAspectRatio="none" width="100%" height="100%" overflow="visible" style="display: block;" viewBox="0 0 51 51" fill="none" xmlns="http://www.w3.org/2000/svg">
<g id="Group">
<path id="Vector" d="M10.7088 50.7049C20.8837 33.1709 20.9388 25.5021 0 25.5021C20.9345 25.5021 29.783 17.8333 39.9578 0.29933C29.783 17.8333 29.7279 25.5021 50.6667 25.5021C29.7321 25.5021 20.8837 33.1709 10.7088 50.7049Z" fill="var(--fill-0, #758BF3)"/>
<path id="Vector_2" d="M11.2301 51L10.1919 50.4056C16.2392 39.9838 17.9724 34.0773 15.9849 30.6497C14.1839 27.5426 9.10703 26.0966 0.00431936 26.0966V24.9034C21.2525 24.9034 29.6517 16.8721 39.4452 0L40.4834 0.594445C34.4361 11.0162 32.7029 16.9227 34.6946 20.3503C36.4957 23.4574 41.5725 24.9034 50.6752 24.9034V26.0966C29.4271 26.0966 21.0279 34.1279 11.2344 51H11.2301ZM8.81463 25.5611C13.0566 26.3369 15.7222 27.8124 17.0189 30.0511C18.4725 32.5553 18.2987 35.9576 16.2943 40.9872C19.5955 36.5563 22.7992 33.3985 26.3208 31.0292C30.7027 28.078 35.6778 26.2652 41.8607 25.4347C37.6187 24.6589 34.9531 23.1834 33.6564 20.9447C32.2028 18.4404 32.3766 15.0382 34.381 10.0086C31.0798 14.4395 27.8761 17.5973 24.3587 19.9666C19.9726 22.9177 15.0018 24.7306 8.81887 25.5611H8.81463Z" fill="var(--fill-0, #758BF3)"/>
</g>
</svg>
