<svg width="152" height="51" viewBox="0 0 152 51" fill="none" xmlns="http://www.w3.org/2000/svg">
<g clip-path="url(#clip0_824_3592)">
<path d="M10.7088 50.7049C20.8837 33.1666 20.9345 25.5021 0 25.5021C20.9345 25.5021 29.783 17.8333 39.9578 0.299316C29.783 17.8333 29.7279 25.5021 50.6667 25.5021C29.7321 25.5021 20.8837 33.1709 10.7088 50.7049Z" fill="#758BF3"/>
<path d="M11.2258 51L10.1876 50.4056C16.2349 39.9838 17.9681 34.0773 15.9806 30.6497C14.1753 27.5426 9.09847 26.0966 0 26.0966V24.9034C21.2481 24.9034 29.6474 16.8721 39.4408 0L40.4791 0.594445C34.4318 11.0162 32.6986 16.9227 34.6861 20.3503C36.4871 23.4574 41.564 24.9034 50.6667 24.9034V26.0966C29.4185 26.0966 21.0193 34.1279 11.2258 51ZM8.81031 25.5611C13.0523 26.3369 15.7179 27.8124 17.0146 30.0511C18.4682 32.5553 18.2944 35.9576 16.29 40.9872C19.5912 36.5563 22.7949 33.3985 26.3165 31.0292C30.6983 28.078 35.6735 26.2652 41.8564 25.4347C37.6144 24.6589 34.9488 23.1834 33.6521 20.9447C32.1985 18.4404 32.3723 15.0382 34.3767 10.0086C31.0755 14.4395 27.8718 17.5973 24.3502 19.9666C19.9683 22.9177 14.9932 24.7306 8.81031 25.5611Z" fill="#758BF3"/>
<path d="M61.3709 50.7049C71.5458 33.1709 71.6009 25.5021 50.6621 25.5021C71.5966 25.5021 80.4451 17.8333 90.62 0.299316C80.4451 17.8333 80.39 25.5021 101.329 25.5021C80.3942 25.5021 71.5458 33.1709 61.3709 50.7049Z" fill="#758BF3"/>
<path d="M61.8922 51L60.8539 50.4056C66.9012 39.9838 68.6344 34.0773 66.6427 30.6497C64.8417 27.5426 59.7648 26.0966 50.6621 26.0966V24.9034C71.9102 24.9034 80.3095 16.8721 90.1029 0L91.1412 0.594445C85.0939 11.0162 83.3607 16.9227 85.3524 20.3503C87.1535 23.4574 92.2303 24.9034 101.333 24.9034V26.0966C80.0849 26.0966 71.6856 34.1279 61.8922 51ZM59.4767 25.5611C63.7187 26.3369 66.3842 27.8124 67.681 30.0511C69.1345 32.5553 68.9608 35.9576 66.9563 40.9872C70.2575 36.5563 73.4613 33.3985 76.9786 31.0292C81.3604 28.078 86.3356 26.2652 92.5185 25.4347C88.2765 24.6589 85.6109 23.1834 84.3142 20.9447C82.8606 18.4404 83.0344 15.0382 85.0388 10.0086C81.7376 14.4395 78.5339 17.5973 75.0165 19.9666C70.6347 22.9177 65.6595 24.7306 59.4767 25.5611Z" fill="#758BF3"/>
<path d="M112.039 50.7049C122.214 33.1709 122.269 25.5021 101.33 25.5021C122.265 25.5021 131.113 17.8333 141.288 0.299316C131.113 17.8333 131.058 25.5021 151.997 25.5021C131.062 25.5021 122.214 33.1709 112.039 50.7049Z" fill="#758BF3"/>
<path d="M112.56 51L111.522 50.4056C117.569 39.9838 119.302 34.0773 117.315 30.6497C115.514 27.5426 110.437 26.0966 101.334 26.0966V24.9034C122.582 24.9034 130.981 16.8721 140.775 0L141.813 0.594445C135.766 11.0162 134.033 16.9227 136.024 20.3503C137.825 23.4574 142.902 24.9034 152.005 24.9034V26.0966C130.757 26.0966 122.358 34.1279 112.564 51H112.56ZM110.144 25.5611C114.386 26.3369 117.052 27.8124 118.349 30.0511C119.802 32.5553 119.628 35.9576 117.624 40.9872C120.925 36.5563 124.129 33.3985 127.65 31.0292C132.032 28.078 137.007 26.2652 143.19 25.4347C138.948 24.6589 136.283 23.1834 134.986 20.9447C133.532 18.4404 133.706 15.0382 135.711 10.0086C132.409 14.4395 129.206 17.5973 125.688 19.9666C121.302 22.9177 116.331 24.7306 110.149 25.5611H110.144Z" fill="#758BF3"/>
</g>
<defs>
<clipPath id="clip0_824_3592">
<rect width="152" height="51" fill="white"/>
</clipPath>
</defs>
</svg>
