<svg width="10" height="10" viewBox="0 0 10 10" fill="none" xmlns="http://www.w3.org/2000/svg">
<path d="M3.6381 0.196289C1.83255 0.710145 0.834085 2.08793 0.560547 2.71259H2.62551C2.8426 1.49947 3.39103 0.529589 3.6381 0.196289Z" fill="#758BF3"/>
<path d="M6.37362 0.196289C8.17917 0.710145 9.17763 2.08793 9.45117 2.71259H7.38621C7.16912 1.49947 6.62069 0.529589 6.37362 0.196289Z" fill="#758BF3"/>
<path d="M3.6381 9.81836C1.83255 9.3045 0.834085 7.92672 0.560547 7.30206H2.62551C2.8426 8.51518 3.39103 9.48506 3.6381 9.81836Z" fill="#758BF3"/>
<path d="M6.37362 9.81836C8.17917 9.3045 9.17763 7.92672 9.45117 7.30206H7.38621C7.16912 8.51518 6.62069 9.48506 6.37362 9.81836Z" fill="#758BF3"/>
<path d="M2.50977 3.30762H0.292148C-0.365185 5.15495 0.292148 6.74907 0.292148 6.70625C0.292148 6.672 1.77056 6.69198 2.50977 6.70625C2.29944 5.45248 2.42213 3.90508 2.50977 3.30762Z" fill="#758BF3"/>
<path d="M7.49023 3.30762H9.70785C10.3652 5.15495 9.70785 6.74907 9.70785 6.70625C9.70785 6.672 8.22944 6.69198 7.49023 6.70625C7.70056 5.45248 7.57787 3.90508 7.49023 3.30762Z" fill="#758BF3"/>
<path d="M6.78252 7.29817C6.78252 7.27814 4.40146 7.28982 3.21094 7.29817C3.41863 8.24069 4.07899 10.0997 5.05888 9.99557C6.28373 9.86543 6.78252 7.32322 6.78252 7.29817Z" fill="#758BF3"/>
<path d="M6.78252 2.70183C6.78252 2.72186 4.40146 2.71018 3.21094 2.70183C3.41863 1.75931 4.07899 -0.0996842 5.05888 0.00442743C6.28373 0.134567 6.78252 2.67678 6.78252 2.70183Z" fill="#758BF3"/>
<path d="M6.90667 3.31494C7.11598 5.00908 7.00437 6.06575 6.90667 6.69027H3.08437C2.88589 4.95723 3.02234 3.71795 3.11537 3.31494H6.90667Z" fill="#758BF3"/>
</svg>
